CooperHewitt-BoldItalic.ufo
<glyph name="exclam" format="1">
  <advance width="265"/>
  <unicode hex="0021"/>
  <outline>
    <contour>
      <point x="88" y="780" type="line"/>
      <point x="58" y="228" type="line"/>
      <point x="170" y="228" type="line"/>
      <point x="284" y="780" type="line"/>
    </contour>
    <contour>
      <point x="190" y="167" type="line"/>
      <point x="23" y="167" type="line"/>
      <point x="1" y="0" type="line"/>
      <point x="168" y="0" type="line"/>
    </contour>
  </outline>
</glyph>
<glyph name="quotedbl" format="1">
  <advance width="446"/>
  <unicode hex="0022"/>
  <outline>
    <contour>
      <point x="100" y="780" type="line"/>
      <point x="83" y="457" type="line"/>
      <point x="204" y="457" type="line"/>
      <point x="255" y="780" type="line"/>
    </contour>
    <contour>
      <point x="298" y="780" type="line"/>
      <point x="264" y="457" type="line"/>
      <point x="385" y="457" type="line"/>
      <point x="452" y="780" type="line"/>
    </contour>
  </outline>
</glyph>
<glyph name="numbersign" format="1">
  <advance width="600"/>
  <unicode hex="0023"/>
  <outline>
    <contour>
      <point x="384" y="780" type="line"/>
      <point x="247" y="780" type="line"/>
      <point x="186" y="587" type="line"/>
      <point x="95" y="587" type="line"/>
      <point x="77" y="449" type="line"/>
      <point x="143" y="449" type="line"/>
      <point x="106" y="331" type="line"/>
      <point x="17" y="331" type="line"/>
      <point x="-1" y="193" type="line"/>
      <point x="62" y="193" type="line"/>
      <point x="2" y="0" type="line"/>
      <point x="139" y="0" type="line"/>
      <point x="199" y="193" type="line"/>
      <point x="280" y="193" type="line"/>
      <point x="220" y="0" type="line"/>
      <point x="357" y="0" type="line"/>
      <point x="417" y="193" type="line"/>
      <point x="509" y="193" type="line"/>
      <point x="527" y="331" type="line"/>
      <point x="461" y="331" type="line"/>
      <point x="498" y="449" type="line"/>
      <point x="587" y="449" type="line"/>
      <point x="605" y="587" type="line"/>
      <point x="541" y="587" type="line"/>
      <point x="602" y="780" type="line"/>
      <point x="465" y="780" type="line"/>
      <point x="404" y="587" type="line"/>
      <point x="323" y="587" type="line"/>
    </contour>
    <contour>
      <point x="280" y="449" type="line"/>
      <point x="361" y="449" type="line"/>
      <point x="324" y="331" type="line"/>
      <point x="243" y="331" type="line"/>
    </contour>
  </outline>
</glyph>
<glyph name="dollar" format="1">
  <advance width="600"/>
  <unicode hex="0024"/>
  <outline>
    <contour>
      <point x="263" y="333" type="curve" smooth="yes"/>
      <point x="340" y="319"/>
      <point x="381" y="303"/>
      <point x="381" y="256" type="curve" smooth="yes"/>
      <point x="381" y="208"/>
      <point x="346" y="180"/>
      <point x="285" y="180" type="curve" smooth="yes"/>
      <point x="280" y="180" type="line" smooth="yes"/>
      <point x="214" y="180"/>
      <point x="181" y="219"/>
      <point x="191" y="281" type="curve"/>
      <point x="32" y="281" type="line"/>
      <point x="31" y="274" type="line" smooth="yes"/>
      <point x="15" y="180"/>
      <point x="51" y="112"/>
      <point x="127" y="77" type="curve"/>
      <point x="77" y="-60" type="line"/>
      <point x="198" y="-60" type="line"/>
      <point x="239" y="52" type="line"/>
      <point x="248" y="51"/>
      <point x="258" y="51"/>
      <point x="268" y="51" type="curve" smooth="yes"/>
      <point x="428" y="51"/>
      <point x="526" y="120"/>
      <point x="541" y="247" type="curve" smooth="yes"/>
      <point x="543" y="264" type="line" smooth="yes"/>
      <point x="556" y="377"/>
      <point x="475" y="433"/>
      <point x="346" y="453" type="curve" smooth="yes"/>
      <point x="257" y="467"/>
      <point x="229" y="483"/>
      <point x="229" y="524" type="curve" smooth="yes"/>
      <point x="229" y="570"/>
      <point x="263" y="601"/>
      <point x="321" y="601" type="curve" smooth="yes"/>
      <point x="326" y="601" type="line" smooth="yes"/>
      <point x="397" y="601"/>
      <point x="420" y="560"/>
      <point x="409" y="491" type="curve"/>
      <point x="566" y="491" type="line"/>
      <point x="568" y="502" type="line"/>
      <point x="580" y="596"/>
      <point x="553" y="666"/>
      <point x="480" y="702" type="curve"/>
      <point x="531" y="840" type="line"/>
      <point x="410" y="840" type="line"/>
      <point x="369" y="730" type="line"/>
      <point x="358" y="731"/>
      <point x="347" y="731"/>
      <point x="335" y="731" type="curve" smooth="yes"/>
      <point x="189" y="731"/>
      <point x="86" y="660"/>
      <point x="72" y="539" type="curve" smooth="yes"/>
      <point x="70" y="522" type="line" smooth="yes"/>
      <point x="57" y="410"/>
      <point x="121" y="359"/>
    </contour>
  </outline>
</glyph>
<glyph name="percent" format="1">
  <advance width="981"/>
  <unicode hex="0025"/>
  <outline>
    <contour>
      <point x="928" y="188" type="line" smooth="yes"/>
      <point x="938" y="299"/>
      <point x="875" y="376"/>
      <point x="750" y="376" type="curve" smooth="yes"/>
      <point x="662" y="376"/>
      <point x="561" y="307"/>
      <point x="550" y="186" type="curve" smooth="yes"/>
      <point x="549" y="175" type="line" smooth="yes"/>
      <point x="539" y="64"/>
      <point x="602" y="-13"/>
      <point x="727" y="-13" type="curve" smooth="yes"/>
      <point x="815" y="-13"/>
      <point x="916" y="56"/>
      <point x="927" y="177" type="curve" smooth="yes"/>
    </contour>
    <contour>
      <point x="811" y="176" type="line" smooth="yes"/>
      <point x="807" y="130"/>
      <point x="774" y="104"/>
      <point x="738" y="104" type="curve" smooth="yes"/>
      <point x="728" y="104" type="line" smooth="yes"/>
      <point x="690" y="104"/>
      <point x="661" y="134"/>
      <point x="665" y="176" type="curve" smooth="yes"/>
      <point x="666" y="187" type="line" smooth="yes"/>
      <point x="670" y="233"/>
      <point x="703" y="259"/>
      <point x="739" y="259" type="curve" smooth="yes"/>
      <point x="749" y="259" type="line" smooth="yes"/>
      <point x="787" y="259"/>
      <point x="816" y="229"/>
      <point x="812" y="187" type="curve" smooth="yes"/>
    </contour>
    <contour>
      <point x="174" y="604" type="line" smooth="yes"/>
      <point x="178" y="650"/>
      <point x="211" y="676"/>
      <point x="247" y="676" type="curve" smooth="yes"/>
      <point x="257" y="676" type="line" smooth="yes"/>
      <point x="295" y="676"/>
      <point x="324" y="646"/>
      <point x="320" y="604" type="curve" smooth="yes"/>
      <point x="319" y="593" type="line" smooth="yes"/>
      <point x="315" y="547"/>
      <point x="282" y="521"/>
      <point x="246" y="521" type="curve" smooth="yes"/>
      <point x="236" y="521" type="line" smooth="yes"/>
      <point x="198" y="521"/>
      <point x="169" y="551"/>
      <point x="173" y="593" type="curve" smooth="yes"/>
    </contour>
    <contour>
      <point x="57" y="592" type="line" smooth="yes"/>
      <point x="47" y="481"/>
      <point x="110" y="404"/>
      <point x="235" y="404" type="curve" smooth="yes"/>
      <point x="323" y="404"/>
      <point x="424" y="473"/>
      <point x="435" y="594" type="curve" smooth="yes"/>
      <point x="436" y="605" type="line"/>
      <point x="436" y="613"/>
      <point x="437" y="621"/>
      <point x="437" y="628" type="curve"/>
      <point x="459" y="625"/>
      <point x="471" y="625"/>
      <point x="485" y="625" type="curve" smooth="yes"/>
      <point x="517" y="625"/>
      <point x="542" y="629"/>
      <point x="557" y="633" type="curve"/>
      <point x="210" y="0" type="line"/>
      <point x="348" y="0" type="line"/>
      <point x="736" y="708" type="line"/>
      <point x="746" y="783" type="line"/>
      <point x="712" y="772"/>
      <point x="621" y="751"/>
      <point x="520" y="751" type="curve" smooth="yes"/>
      <point x="452" y="751"/>
      <point x="393" y="760"/>
      <point x="343" y="778" type="curve" smooth="yes"/>
      <point x="315" y="788"/>
      <point x="290" y="793"/>
      <point x="258" y="793" type="curve" smooth="yes"/>
      <point x="170" y="793"/>
      <point x="69" y="724"/>
      <point x="58" y="603" type="curve" smooth="yes"/>
    </contour>
  </outline>
</glyph>
<glyph name="ampersand" format="1">
  <advance width="691"/>
  <unicode hex="0026"/>
  <outline>
    <contour>
      <point x="204" y="-13" type="curve" smooth="yes"/>
      <point x="285" y="-13"/>
      <point x="351" y="6"/>
      <point x="412" y="37" type="curve"/>
      <point x="440" y="0" type="line"/>
      <point x="630" y="0" type="line"/>
      <point x="537" y="129" type="line"/>
      <point x="607" y="199"/>
      <point x="648" y="290"/>
      <point x="664" y="395" type="curve"/>
      <point x="498" y="395" type="line"/>
      <point x="497" y="388" type="line" smooth="yes"/>
      <point x="489" y="334"/>
      <point x="468" y="292"/>
      <point x="445" y="257" type="curve"/>
      <point x="344" y="398" type="line"/>
      <point x="428" y="441"/>
      <point x="507" y="486"/>
      <point x="524" y="596" type="curve" smooth="yes"/>
      <point x="526" y="609" type="line" smooth="yes"/>
      <point x="541" y="705"/>
      <point x="484" y="793"/>
      <point x="326" y="793" type="curve" smooth="yes"/>
      <point x="178" y="793"/>
      <point x="104" y="712"/>
      <point x="90" y="616" type="curve" smooth="yes"/>
      <point x="88" y="602" type="line" smooth="yes"/>
      <point x="77" y="527"/>
      <point x="99" y="474"/>
      <point x="135" y="424" type="curve"/>
      <point x="65" y="386"/>
      <point x="11" y="327"/>
      <point x="-1" y="224" type="curve" smooth="yes"/>
      <point x="-3" y="207" type="line" smooth="yes"/>
      <point x="-19" y="72"/>
      <point x="57" y="-13"/>
    </contour>
    <contour>
      <point x="242" y="123" type="line" smooth="yes"/>
      <point x="179" y="123"/>
      <point x="152" y="160"/>
      <point x="160" y="224" type="curve" smooth="yes"/>
      <point x="161" y="232" type="line" smooth="yes"/>
      <point x="166" y="269"/>
      <point x="184" y="296"/>
      <point x="211" y="319" type="curve"/>
      <point x="333" y="148" type="line"/>
      <point x="322" y="137"/>
      <point x="280" y="123"/>
      <point x="248" y="123" type="curve" smooth="yes"/>
    </contour>
    <contour>
      <point x="249" y="608" type="line" smooth="yes"/>
      <point x="253" y="640"/>
      <point x="279" y="663"/>
      <point x="313" y="663" type="curve" smooth="yes"/>
      <point x="319" y="663" type="line" smooth="yes"/>
      <point x="353" y="663"/>
      <point x="372" y="638"/>
      <point x="368" y="606" type="curve" smooth="yes"/>
      <point x="367" y="598" type="line" smooth="yes"/>
      <point x="362" y="555"/>
      <point x="322" y="531"/>
      <point x="273" y="503" type="curve"/>
      <point x="257" y="526"/>
      <point x="244" y="565"/>
      <point x="248" y="600" type="curve" smooth="yes"/>
    </contour>
  </outline>
</glyph>
<glyph name="quotesingle" format="1">
  <advance width="265"/>
  <unicode hex="0027"/>
  <outline>
    <contour>
      <point x="100" y="780" type="line"/>
      <point x="83" y="457" type="line"/>
      <point x="204" y="457" type="line"/>
      <point x="271" y="780" type="line"/>
    </contour>
  </outline>
</glyph>
<glyph name="parenleft" format="1">
  <advance width="365"/>
  <unicode hex="0028"/>
  <outline>
    <contour>
      <point x="36" y="346" type="line" smooth="yes"/>
      <point x="13" y="126"/>
      <point x="66" y="-5"/>
      <point x="121" y="-120" type="curve"/>
      <point x="281" y="-120" type="line"/>
      <point x="223" y="5"/>
      <point x="171" y="156"/>
      <point x="191" y="346" type="curve" smooth="yes"/>
      <point x="194" y="375" type="line" smooth="yes"/>
      <point x="214" y="565"/>
      <point x="310" y="725"/>
      <point x="407" y="840" type="curve"/>
      <point x="245" y="840" type="line"/>
      <point x="150" y="735"/>
      <point x="61" y="585"/>
      <point x="39" y="375" type="curve" smooth="yes"/>
    </contour>
  </outline>
</glyph>
<glyph name="parenright" format="1">
  <advance width="365"/>
  <unicode hex="0029"/>
  <outline>
    <contour>
      <point x="326" y="374" type="line" smooth="yes"/>
      <point x="349" y="594"/>
      <point x="296" y="725"/>
      <point x="241" y="840" type="curve"/>
      <point x="81" y="840" type="line"/>
      <point x="139" y="715"/>
      <point x="191" y="564"/>
      <point x="171" y="374" type="curve" smooth="yes"/>
      <point x="168" y="345" type="line" smooth="yes"/>
      <point x="148" y="155"/>
      <point x="52" y="-5"/>
      <point x="-45" y="-120" type="curve"/>
      <point x="117" y="-120" type="line"/>
      <point x="212" y="-15"/>
      <point x="301" y="135"/>
      <point x="323" y="345" type="curve" smooth="yes"/>
    </contour>
  </outline>
</glyph>
<glyph name="asterisk" format="1">
  <advance width="413"/>
  <unicode hex="002A"/>
  <outline>
    <contour>
      <point x="218" y="800" type="line"/>
      <point x="205" y="666" type="line"/>
      <point x="284" y="666" type="line"/>
      <point x="307" y="800" type="line"/>
    </contour>
    <contour>
      <point x="37" y="621" type="line"/>
      <point x="160" y="584" type="line"/>
      <point x="195" y="659" type="line"/>
      <point x="75" y="706" type="line"/>
    </contour>
    <contour>
      <point x="131" y="415" type="line"/>
      <point x="221" y="526" type="line"/>
      <point x="163" y="572" type="line"/>
      <point x="66" y="467" type="line"/>
    </contour>
    <contour>
      <point x="423" y="706" type="line"/>
      <point x="292" y="659" type="line"/>
      <point x="306" y="584" type="line"/>
      <point x="440" y="621" type="line"/>
    </contour>
    <contour>
      <point x="370" y="467" type="line"/>
      <point x="301" y="572" type="line"/>
      <point x="231" y="526" type="line"/>
      <point x="292" y="415" type="line"/>
    </contour>
  </outline>
</glyph>
<glyph name="plus" format="1">
  <advance width="600"/>
  <unicode hex="002B"/>
  <outline>
    <contour>
      <point x="265" y="648" type="line"/>
      <point x="240" y="460" type="line"/>
      <point x="52" y="460" type="line"/>
      <point x="34" y="320" type="line"/>
      <point x="222" y="320" type="line"/>
      <point x="197" y="132" type="line"/>
      <point x="337" y="132" type="line"/>
      <point x="362" y="320" type="line"/>
      <point x="550" y="320" type="line"/>
      <point x="568" y="460" type="line"/>
      <point x="380" y="460" type="line"/>
      <point x="405" y="648" type="line"/>
    </contour>
  </outline>
</glyph>
<glyph name="comma" format="1">
  <advance width="266"/>
  <unicode hex="002C"/>
  <outline>
    <contour>
      <point x="190" y="167" type="line"/>
      <point x="23" y="167" type="line"/>
      <point x="1" y="0" type="line"/>
      <point x="86" y="0" type="line"/>
      <point x="75" y="-45"/>
      <point x="38" y="-67"/>
      <point x="-12" y="-67" type="curve"/>
      <point x="-22" y="-143" type="line"/>
      <point x="90" y="-143"/>
      <point x="157" y="-86"/>
      <point x="173" y="37" type="curve" smooth="yes"/>
    </contour>
  </outline>
</glyph>
<glyph name="hyphen" format="1">
  <advance width="353"/>
  <unicode hex="002D"/>
  <outline>
    <contour>
      <point x="27" y="281" type="line"/>
      <point x="300" y="281" type="line"/>
      <point x="318" y="419" type="line"/>
      <point x="45" y="419" type="line"/>
    </contour>
  </outline>
</glyph>
<glyph name="slash" format="1">
  <advance width="414"/>
  <unicode hex="002F"/>
  <outline>
    <contour>
      <point x="460" y="840" type="line"/>
      <point x="307" y="840" type="line"/>
      <point x="-49" y="-120" type="line"/>
      <point x="104" y="-120" type="line"/>
    </contour>
  </outline>
</glyph>
<glyph name="zero" format="1">
  <advance width="600"/>
  <unicode hex="0030"/>
  <outline>
    <contour>
      <point x="578" y="558" type="line" smooth="yes"/>
      <point x="597" y="700"/>
      <point x="514" y="793"/>
      <point x="340" y="793" type="curve" smooth="yes"/>
      <point x="164" y="793"/>
      <point x="89" y="716"/>
      <point x="68" y="558" type="curve" smooth="yes"/>
      <point x="24" y="222" type="line" smooth="yes"/>
      <point x="5" y="80"/>
      <point x="88" y="-13"/>
      <point x="262" y="-13" type="curve" smooth="yes"/>
      <point x="438" y="-13"/>
      <point x="513" y="64"/>
      <point x="534" y="222" type="curve" smooth="yes"/>
    </contour>
    <contour>
      <point x="374" y="223" type="line" smooth="yes"/>
      <point x="365" y="154"/>
      <point x="335" y="127"/>
      <point x="270" y="127" type="curve" smooth="yes"/>
      <point x="266" y="127" type="line" smooth="yes"/>
      <point x="202" y="127"/>
      <point x="176" y="164"/>
      <point x="184" y="222" type="curve" smooth="yes"/>
      <point x="228" y="557" type="line" smooth="yes"/>
      <point x="237" y="626"/>
      <point x="267" y="653"/>
      <point x="332" y="653" type="curve" smooth="yes"/>
      <point x="336" y="653" type="line" smooth="yes"/>
      <point x="400" y="653"/>
      <point x="426" y="616"/>
      <point x="418" y="558" type="curve" smooth="yes"/>
    </contour>
  </outline>
</glyph>
<glyph name="one" format="1">
  <advance width="600"/>
  <unicode hex="0031"/>
  <outline>
    <contour>
      <point x="512" y="0" type="line"/>
      <point x="531" y="140" type="line"/>
      <point x="359" y="140" type="line"/>
      <point x="443" y="781" type="line"/>
      <point x="325" y="781" type="line"/>
      <point x="59" y="616" type="line"/>
      <point x="123" y="500" type="line"/>
      <point x="257" y="582" type="line"/>
      <point x="199" y="140" type="line"/>
      <point x="28" y="140" type="line"/>
      <point x="10" y="0" type="line"/>
    </contour>
  </outline>
</glyph>
<glyph name="two" format="1">
  <advance width="600"/>
  <unicode hex="0032"/>
  <outline>
    <contour>
      <point x="310" y="140" type="line"/>
      <point x="239" y="139" type="line"/>
      <point x="466" y="358" type="line" smooth="yes"/>
      <point x="537" y="426"/>
      <point x="567" y="464"/>
      <point x="578" y="547" type="curve" smooth="yes"/>
      <point x="581" y="569" type="line" smooth="yes"/>
      <point x="596" y="680"/>
      <point x="529" y="793"/>
      <point x="340" y="793" type="curve" smooth="yes"/>
      <point x="174" y="793"/>
      <point x="89" y="710"/>
      <point x="66" y="542" type="curve" smooth="yes"/>
      <point x="63" y="520" type="line"/>
      <point x="223" y="520" type="line"/>
      <point x="236" y="619"/>
      <point x="272" y="653"/>
      <point x="333" y="653" type="curve" smooth="yes"/>
      <point x="343" y="653" type="line" smooth="yes"/>
      <point x="395" y="653"/>
      <point x="428" y="619"/>
      <point x="419" y="548" type="curve" smooth="yes"/>
      <point x="418" y="540" type="line" smooth="yes"/>
      <point x="413" y="499"/>
      <point x="396" y="475"/>
      <point x="351" y="432" type="curve" smooth="yes"/>
      <point x="8" y="101" type="line"/>
      <point x="-5" y="0" type="line"/>
      <point x="507" y="0" type="line"/>
      <point x="525" y="140" type="line"/>
    </contour>
  </outline>
</glyph>
<glyph name="three" format="1">
  <advance width="600"/>
  <unicode hex="0033"/>
  <outline>
    <contour>
      <point x="182" y="250" type="curve"/>
      <point x="22" y="250" type="line"/>
      <point x="19" y="228" type="line" smooth="yes"/>
      <point x="-1" y="83"/>
      <point x="81" y="-13"/>
      <point x="269" y="-13" type="curve" smooth="yes"/>
      <point x="452" y="-13"/>
      <point x="525" y="101"/>
      <point x="538" y="199" type="curve" smooth="yes"/>
      <point x="541" y="221" type="line" smooth="yes"/>
      <point x="553" y="308"/>
      <point x="521" y="378"/>
      <point x="458" y="397" type="curve"/>
      <point x="523" y="415"/>
      <point x="568" y="471"/>
      <point x="579" y="555" type="curve" smooth="yes"/>
      <point x="582" y="577" type="line" smooth="yes"/>
      <point x="596" y="681"/>
      <point x="530" y="793"/>
      <point x="340" y="793" type="curve" smooth="yes"/>
      <point x="177" y="793"/>
      <point x="88" y="705"/>
      <point x="66" y="542" type="curve" smooth="yes"/>
      <point x="63" y="520" type="line"/>
      <point x="223" y="520" type="line"/>
      <point x="236" y="619"/>
      <point x="276" y="653"/>
      <point x="335" y="653" type="curve" smooth="yes"/>
      <point x="345" y="653" type="line" smooth="yes"/>
      <point x="394" y="653"/>
      <point x="427" y="619"/>
      <point x="420" y="566" type="curve" smooth="yes"/>
      <point x="419" y="558" type="line" smooth="yes"/>
      <point x="412" y="498"/>
      <point x="373" y="468"/>
      <point x="315" y="468" type="curve" smooth="yes"/>
      <point x="211" y="468" type="line"/>
      <point x="193" y="328" type="line"/>
      <point x="299" y="328" type="line" smooth="yes"/>
      <point x="360" y="328"/>
      <point x="389" y="296"/>
      <point x="381" y="231" type="curve" smooth="yes"/>
      <point x="380" y="223" type="line" smooth="yes"/>
      <point x="371" y="153"/>
      <point x="325" y="127"/>
      <point x="274" y="127" type="curve" smooth="yes"/>
      <point x="264" y="127" type="line" smooth="yes"/>
      <point x="211" y="127"/>
      <point x="168" y="150"/>
    </contour>
  </outline>
</glyph>
<glyph name="four" format="1">
  <advance width="600"/>
  <unicode hex="0034"/>
  <outline>
    <contour>
      <point x="439" y="0" type="line"/>
      <point x="462" y="170" type="line"/>
      <point x="546" y="170" type="line"/>
      <point x="565" y="310" type="line"/>
      <point x="480" y="310" type="line"/>
      <point x="542" y="780" type="line"/>
      <point x="390" y="780" type="line"/>
      <point x="14" y="286" type="line"/>
      <point x="-1" y="170" type="line"/>
      <point x="302" y="170" type="line"/>
      <point x="279" y="0" type="line"/>
    </contour>
    <contour>
      <point x="349" y="525" type="line"/>
      <point x="341" y="466" type="line"/>
      <point x="320" y="310" type="line"/>
      <point x="236" y="310" type="line"/>
      <point x="184" y="308" type="line"/>
    </contour>
  </outline>
</glyph>
<glyph name="five" format="1">
  <advance width="600"/>
  <unicode hex="0035"/>
  <outline>
    <contour>
      <point x="22" y="250" type="line"/>
      <point x="19" y="228" type="line" smooth="yes"/>
      <point x="-1" y="83"/>
      <point x="81" y="-13"/>
      <point x="269" y="-13" type="curve" smooth="yes"/>
      <point x="425" y="-13"/>
      <point x="521" y="80"/>
      <point x="542" y="235" type="curve" smooth="yes"/>
      <point x="545" y="257" type="line" smooth="yes"/>
      <point x="565" y="401"/>
      <point x="485" y="506"/>
      <point x="335" y="506" type="curve" smooth="yes"/>
      <point x="281" y="506"/>
      <point x="234" y="493"/>
      <point x="201" y="466" type="curve"/>
      <point x="232" y="640" type="line"/>
      <point x="585" y="640" type="line"/>
      <point x="604" y="780" type="line"/>
      <point x="116" y="780" type="line"/>
      <point x="41" y="353" type="line"/>
      <point x="173" y="306" type="line"/>
      <point x="199" y="348"/>
      <point x="245" y="367"/>
      <point x="286" y="367" type="curve" smooth="yes"/>
      <point x="296" y="367" type="line" smooth="yes"/>
      <point x="347" y="367"/>
      <point x="394" y="333"/>
      <point x="384" y="251" type="curve" smooth="yes"/>
      <point x="383" y="243" type="line" smooth="yes"/>
      <point x="372" y="159"/>
      <point x="325" y="127"/>
      <point x="274" y="127" type="curve" smooth="yes"/>
      <point x="264" y="127" type="line" smooth="yes"/>
      <point x="211" y="127"/>
      <point x="168" y="150"/>
      <point x="182" y="250" type="curve"/>
    </contour>
  </outline>
</glyph>
<glyph name="six" format="1">
  <advance width="600"/>
  <unicode hex="0036"/>
  <outline>
    <contour>
      <point x="578" y="793" type="line"/>
      <point x="422" y="793"/>
      <point x="297" y="766"/>
      <point x="186" y="655" type="curve" smooth="yes"/>
      <point x="81" y="550"/>
      <point x="47" y="408"/>
      <point x="33" y="304" type="curve" smooth="yes"/>
      <point x="30" y="282" type="line" smooth="yes"/>
      <point x="7" y="111"/>
      <point x="80" y="-13"/>
      <point x="268" y="-13" type="curve" smooth="yes"/>
      <point x="432" y="-13"/>
      <point x="523" y="80"/>
      <point x="544" y="235" type="curve" smooth="yes"/>
      <point x="547" y="257" type="line" smooth="yes"/>
      <point x="567" y="401"/>
      <point x="491" y="493"/>
      <point x="362" y="493" type="curve" smooth="yes"/>
      <point x="309" y="493"/>
      <point x="259" y="476"/>
      <point x="227" y="446" type="curve"/>
      <point x="241" y="493"/>
      <point x="264" y="530"/>
      <point x="294" y="560" type="curve" smooth="yes"/>
      <point x="357" y="623"/>
      <point x="447" y="651"/>
      <point x="560" y="651" type="curve"/>
    </contour>
    <contour>
      <point x="189" y="293" type="curve"/>
      <point x="217" y="332"/>
      <point x="258" y="352"/>
      <point x="294" y="352" type="curve" smooth="yes"/>
      <point x="304" y="352" type="line" smooth="yes"/>
      <point x="354" y="352"/>
      <point x="395" y="320"/>
      <point x="386" y="251" type="curve" smooth="yes"/>
      <point x="385" y="243" type="line" smooth="yes"/>
      <point x="374" y="159"/>
      <point x="332" y="127"/>
      <point x="273" y="127" type="curve" smooth="yes"/>
      <point x="263" y="127" type="line" smooth="yes"/>
      <point x="216" y="127"/>
      <point x="181" y="161"/>
      <point x="181" y="236" type="curve" smooth="yes"/>
      <point x="181" y="250"/>
      <point x="186" y="279"/>
    </contour>
  </outline>
</glyph>
<glyph name="seven" format="1">
  <advance width="600"/>
  <unicode hex="0037"/>
  <outline>
    <contour>
      <point x="52" y="500" type="line"/>
      <point x="193" y="500" type="line"/>
      <point x="211" y="640" type="line"/>
      <point x="326" y="640" type="line"/>
      <point x="421" y="642" type="line"/>
      <point x="68" y="0" type="line"/>
      <point x="241" y="0" type="line"/>
      <point x="606" y="679" type="line"/>
      <point x="619" y="780" type="line"/>
      <point x="89" y="780" type="line"/>
    </contour>
  </outline>
</glyph>
<glyph name="eight" format="1">
  <advance width="600"/>
  <unicode hex="0038"/>
  <outline>
    <contour>
      <point x="264" y="-13" type="curve" smooth="yes"/>
      <point x="449" y="-13"/>
      <point x="525" y="101"/>
      <point x="538" y="199" type="curve" smooth="yes"/>
      <point x="541" y="221" type="line" smooth="yes"/>
      <point x="553" y="308"/>
      <point x="521" y="378"/>
      <point x="459" y="397" type="curve"/>
      <point x="523" y="415"/>
      <point x="568" y="471"/>
      <point x="579" y="555" type="curve" smooth="yes"/>
      <point x="582" y="577" type="line" smooth="yes"/>
      <point x="596" y="681"/>
      <point x="528" y="793"/>
      <point x="338" y="793" type="curve" smooth="yes"/>
      <point x="148" y="793"/>
      <point x="84" y="679"/>
      <point x="71" y="584" type="curve" smooth="yes"/>
      <point x="68" y="562" type="line" smooth="yes"/>
      <point x="57" y="485"/>
      <point x="97" y="413"/>
      <point x="151" y="397" type="curve"/>
      <point x="81" y="373"/>
      <point x="33" y="325"/>
      <point x="20" y="231" type="curve" smooth="yes"/>
      <point x="17" y="209" type="line" smooth="yes"/>
      <point x="1" y="92"/>
      <point x="83" y="-13"/>
    </contour>
    <contour>
      <point x="299" y="328" type="line" smooth="yes"/>
      <point x="357" y="328"/>
      <point x="389" y="296"/>
      <point x="381" y="231" type="curve" smooth="yes"/>
      <point x="380" y="223" type="line" smooth="yes"/>
      <point x="371" y="153"/>
      <point x="325" y="127"/>
      <point x="274" y="127" type="curve" smooth="yes"/>
      <point x="264" y="127" type="line" smooth="yes"/>
      <point x="210" y="127"/>
      <point x="171" y="158"/>
      <point x="179" y="219" type="curve" smooth="yes"/>
      <point x="180" y="227" type="line" smooth="yes"/>
      <point x="188" y="294"/>
      <point x="233" y="328"/>
      <point x="285" y="328" type="curve" smooth="yes"/>
    </contour>
    <contour>
      <point x="345" y="653" type="line" smooth="yes"/>
      <point x="392" y="653"/>
      <point x="427" y="619"/>
      <point x="420" y="566" type="curve" smooth="yes"/>
      <point x="419" y="558" type="line" smooth="yes"/>
      <point x="412" y="498"/>
      <point x="373" y="468"/>
      <point x="315" y="468" type="curve" smooth="yes"/>
      <point x="304" y="468" type="line" smooth="yes"/>
      <point x="259" y="468"/>
      <point x="220" y="500"/>
      <point x="227" y="554" type="curve" smooth="yes"/>
      <point x="228" y="562" type="line" smooth="yes"/>
      <point x="235" y="621"/>
      <point x="276" y="653"/>
      <point x="335" y="653" type="curve" smooth="yes"/>
    </contour>
  </outline>
</glyph>
<glyph name="nine" format="1">
  <advance width="600"/>
  <unicode hex="0039"/>
  <outline>
    <contour>
      <point x="26" y="-13" type="line"/>
      <point x="182" y="-13"/>
      <point x="307" y="14"/>
      <point x="418" y="125" type="curve" smooth="yes"/>
      <point x="523" y="230"/>
      <point x="557" y="372"/>
      <point x="571" y="476" type="curve" smooth="yes"/>
      <point x="574" y="498" type="line" smooth="yes"/>
      <point x="597" y="669"/>
      <point x="524" y="793"/>
      <point x="336" y="793" type="curve" smooth="yes"/>
      <point x="172" y="793"/>
      <point x="81" y="700"/>
      <point x="60" y="545" type="curve" smooth="yes"/>
      <point x="57" y="523" type="line" smooth="yes"/>
      <point x="37" y="379"/>
      <point x="113" y="287"/>
      <point x="242" y="287" type="curve" smooth="yes"/>
      <point x="295" y="287"/>
      <point x="345" y="304"/>
      <point x="377" y="334" type="curve"/>
      <point x="363" y="287"/>
      <point x="340" y="250"/>
      <point x="310" y="220" type="curve" smooth="yes"/>
      <point x="247" y="157"/>
      <point x="157" y="129"/>
      <point x="44" y="129" type="curve"/>
    </contour>
    <contour>
      <point x="415" y="487" type="curve"/>
      <point x="387" y="448"/>
      <point x="346" y="428"/>
      <point x="310" y="428" type="curve" smooth="yes"/>
      <point x="300" y="428" type="line" smooth="yes"/>
      <point x="250" y="428"/>
      <point x="209" y="460"/>
      <point x="218" y="529" type="curve" smooth="yes"/>
      <point x="219" y="537" type="line" smooth="yes"/>
      <point x="230" y="621"/>
      <point x="272" y="653"/>
      <point x="331" y="653" type="curve" smooth="yes"/>
      <point x="341" y="653" type="line" smooth="yes"/>
      <point x="388" y="653"/>
      <point x="423" y="619"/>
      <point x="423" y="544" type="curve" smooth="yes"/>
      <point x="423" y="530"/>
      <point x="418" y="501"/>
    </contour>
  </outline>
</glyph>
<glyph name="colon" format="1">
  <advance width="266"/>
  <unicode hex="003A"/>
  <outline>
    <contour>
      <point x="190" y="167" type="line"/>
      <point x="23" y="167" type="line"/>
      <point x="1" y="0" type="line"/>
      <point x="168" y="0" type="line"/>
    </contour>
    <contour>
      <point x="231" y="474" type="line"/>
      <point x="64" y="474" type="line"/>
      <point x="42" y="307" type="line"/>
      <point x="209" y="307" type="line"/>
    </contour>
  </outline>
</glyph>
<glyph name="semicolon" format="1">
  <advance width="266"/>
  <unicode hex="003B"/>
  <outline>
    <contour>
      <point x="231" y="474" type="line"/>
      <point x="64" y="474" type="line"/>
      <point x="42" y="307" type="line"/>
      <point x="209" y="307" type="line"/>
    </contour>
    <contour>
      <point x="190" y="167" type="line"/>
      <point x="23" y="167" type="line"/>
      <point x="1" y="0" type="line"/>
      <point x="86" y="0" type="line"/>
      <point x="75" y="-45"/>
      <point x="38" y="-67"/>
      <point x="-12" y="-67" type="curve"/>
      <point x="-22" y="-143" type="line"/>
      <point x="90" y="-143"/>
      <point x="157" y="-86"/>
      <point x="173" y="37" type="curve" smooth="yes"/>
    </contour>
  </outline>
</glyph>
<glyph name="less" format="1">
  <advance width="600"/>
  <unicode hex="003C"/>
  <outline>
    <contour>
      <point x="53" y="467" type="line"/>
      <point x="33" y="313" type="line"/>
      <point x="522" y="108" type="line"/>
      <point x="542" y="259" type="line"/>
      <point x="217" y="389" type="line"/>
      <point x="576" y="519" type="line"/>
      <point x="596" y="672" type="line"/>
    </contour>
  </outline>
</glyph>
<glyph name="equal" format="1">
  <advance width="600"/>
  <unicode hex="003D"/>
  <outline>
    <contour>
      <point x="48" y="429" type="line"/>
      <point x="564" y="429" type="line"/>
      <point x="582" y="569" type="line"/>
      <point x="66" y="569" type="line"/>
    </contour>
    <contour>
      <point x="20" y="211" type="line"/>
      <point x="536" y="211" type="line"/>
      <point x="554" y="351" type="line"/>
      <point x="38" y="351" type="line"/>
    </contour>
  </outline>
</glyph>
<glyph name="greater" format="1">
  <advance width="600"/>
  <unicode hex="003E"/>
  <outline>
    <contour>
      <point x="549" y="313" type="line"/>
      <point x="569" y="467" type="line"/>
      <point x="80" y="672" type="line"/>
      <point x="60" y="521" type="line"/>
      <point x="385" y="391" type="line"/>
      <point x="26" y="261" type="line"/>
      <point x="6" y="108" type="line"/>
    </contour>
  </outline>
</glyph>
<glyph name="question" format="1">
  <advance width="497"/>
  <unicode hex="003F"/>
  <outline>
    <contour>
      <point x="290" y="654" type="curve" smooth="yes"/>
      <point x="332" y="654"/>
      <point x="348" y="633"/>
      <point x="348" y="598" type="curve" smooth="yes"/>
      <point x="348" y="490"/>
      <point x="169" y="409"/>
      <point x="169" y="228" type="curve"/>
      <point x="281" y="228" type="line"/>
      <point x="307" y="399"/>
      <point x="510" y="419"/>
      <point x="510" y="625" type="curve" smooth="yes"/>
      <point x="510" y="717"/>
      <point x="464" y="793"/>
      <point x="295" y="793" type="curve" smooth="yes"/>
      <point x="138" y="793"/>
      <point x="64" y="706"/>
      <point x="42" y="539" type="curve" smooth="yes"/>
      <point x="39" y="516" type="line"/>
      <point x="198" y="516" type="line"/>
      <point x="211" y="614"/>
      <point x="235" y="654"/>
    </contour>
    <contour>
      <point x="301" y="167" type="line"/>
      <point x="134" y="167" type="line"/>
      <point x="112" y="0" type="line"/>
      <point x="279" y="0" type="line"/>
    </contour>
  </outline>
</glyph>
<glyph name="at" format="1">
  <advance width="991"/>
  <unicode hex="0040"/>
  <outline>
    <contour>
      <point x="464" y="-110" type="line" smooth="yes"/>
      <point x="240" y="-110"/>
      <point x="84" y="23"/>
      <point x="118" y="278" type="curve" smooth="yes"/>
      <point x="123" y="316" type="line" smooth="yes"/>
      <point x="156" y="569"/>
      <point x="316" y="690"/>
      <point x="534" y="690" type="curve" smooth="yes"/>
      <point x="544" y="690" type="line" smooth="yes"/>
      <point x="713" y="690"/>
      <point x="891" y="623"/>
      <point x="862" y="400" type="curve" smooth="yes"/>
      <point x="857" y="362" type="line" smooth="yes"/>
      <point x="837" y="208"/>
      <point x="785" y="162"/>
      <point x="672" y="162" type="curve"/>
      <point x="702" y="393" type="line"/>
      <point x="728" y="530" type="line"/>
      <point x="606" y="530" type="line"/>
      <point x="590" y="471" type="line"/>
      <point x="568" y="513"/>
      <point x="525" y="543"/>
      <point x="455" y="543" type="curve" smooth="yes"/>
      <point x="333" y="543"/>
      <point x="261" y="450"/>
      <point x="243" y="316" type="curve" smooth="yes"/>
      <point x="238" y="278" type="line" smooth="yes"/>
      <point x="220" y="144"/>
      <point x="269" y="47"/>
      <point x="400" y="47" type="curve" smooth="yes"/>
      <point x="461" y="47"/>
      <point x="509" y="77"/>
      <point x="541" y="119" type="curve"/>
      <point x="544" y="60" type="line"/>
      <point x="639" y="60" type="line" smooth="yes"/>
      <point x="794" y="60"/>
      <point x="930" y="122"/>
      <point x="962" y="362" type="curve" smooth="yes"/>
      <point x="967" y="400" type="line" smooth="yes"/>
      <point x="1003" y="672"/>
      <point x="796" y="793"/>
      <point x="539" y="793" type="curve" smooth="yes"/>
      <point x="275" y="793"/>
      <point x="60" y="632"/>
      <point x="18" y="316" type="curve" smooth="yes"/>
      <point x="13" y="278" type="line" smooth="yes"/>
      <point x="-28" y="-31"/>
      <point x="165" y="-213"/>
      <point x="469" y="-213" type="curve" smooth="yes"/>
      <point x="566" y="-213"/>
      <point x="706" y="-191"/>
      <point x="850" y="-82" type="curve"/>
      <point x="798" y="0" type="line"/>
      <point x="704" y="-69"/>
      <point x="595" y="-110"/>
      <point x="474" y="-110" type="curve" smooth="yes"/>
    </contour>
    <contour>
      <point x="563" y="374" type="curve"/>
      <point x="542" y="216" type="line"/>
      <point x="527" y="197"/>
      <point x="495" y="169"/>
      <point x="452" y="169" type="curve" smooth="yes"/>
      <point x="394" y="169"/>
      <point x="373" y="211"/>
      <point x="382" y="278" type="curve" smooth="yes"/>
      <point x="387" y="316" type="line" smooth="yes"/>
      <point x="396" y="383"/>
      <point x="427" y="421"/>
      <point x="482" y="421" type="curve" smooth="yes"/>
      <point x="528" y="421"/>
      <point x="553" y="393"/>
    </contour>
  </outline>
</glyph>
<glyph name="B" format="1">
  <advance width="631"/>
  <unicode hex="0042"/>
  <outline>
    <contour>
      <point x="109" y="780" type="line"/>
      <point x="7" y="0" type="line"/>
      <point x="272" y="0" type="line" smooth="yes"/>
      <point x="404" y="0"/>
      <point x="536" y="23"/>
      <point x="561" y="214" type="curve" smooth="yes"/>
      <point x="564" y="237" type="line" smooth="yes"/>
      <point x="575" y="323"/>
      <point x="547" y="382"/>
      <point x="485" y="403" type="curve"/>
      <point x="545" y="424"/>
      <point x="575" y="464"/>
      <point x="585" y="542" type="curve" smooth="yes"/>
      <point x="588" y="565" type="line" smooth="yes"/>
      <point x="611" y="742"/>
      <point x="489" y="780"/>
      <point x="367" y="780" type="curve" smooth="yes"/>
    </contour>
    <contour>
      <point x="322" y="328" type="line" smooth="yes"/>
      <point x="372" y="328"/>
      <point x="410" y="306"/>
      <point x="401" y="238" type="curve" smooth="yes"/>
      <point x="399" y="223" type="line" smooth="yes"/>
      <point x="390" y="152"/>
      <point x="344" y="140"/>
      <point x="294" y="140" type="curve" smooth="yes"/>
      <point x="187" y="140" type="line"/>
      <point x="211" y="328" type="line"/>
    </contour>
    <contour>
      <point x="348" y="640" type="line" smooth="yes"/>
      <point x="391" y="640"/>
      <point x="432" y="622"/>
      <point x="424" y="561" type="curve" smooth="yes"/>
      <point x="422" y="546" type="line" smooth="yes"/>
      <point x="414" y="482"/>
      <point x="365" y="469"/>
      <point x="326" y="469" type="curve" smooth="yes"/>
      <point x="230" y="469" type="line"/>
      <point x="253" y="640" type="line"/>
    </contour>
  </outline>
</glyph>
<glyph name="C" format="1">
  <advance width="650"/>
  <unicode hex="0043"/>
  <outline>
    <contour>
      <point x="207" y="407" type="line" smooth="yes"/>
      <point x="226" y="563"/>
      <point x="273" y="653"/>
      <point x="362" y="653" type="curve" smooth="yes"/>
      <point x="372" y="653" type="line" smooth="yes"/>
      <point x="458" y="653"/>
      <point x="477" y="596"/>
      <point x="463" y="484" type="curve"/>
      <point x="626" y="484" type="line"/>
      <point x="630" y="516" type="line" smooth="yes"/>
      <point x="653" y="701"/>
      <point x="574" y="793"/>
      <point x="371" y="793" type="curve" smooth="yes"/>
      <point x="178" y="793"/>
      <point x="76" y="677"/>
      <point x="42" y="406" type="curve" smooth="yes"/>
      <point x="38" y="374" type="line" smooth="yes"/>
      <point x="4" y="102"/>
      <point x="102" y="-13"/>
      <point x="295" y="-13" type="curve" smooth="yes"/>
      <point x="466" y="-13"/>
      <point x="569" y="60"/>
      <point x="595" y="251" type="curve" smooth="yes"/>
      <point x="597" y="266" type="line"/>
      <point x="434" y="266" type="line"/>
      <point x="422" y="178"/>
      <point x="403" y="127"/>
      <point x="304" y="127" type="curve" smooth="yes"/>
      <point x="294" y="127" type="line" smooth="yes"/>
      <point x="204" y="127"/>
      <point x="184" y="217"/>
      <point x="203" y="374" type="curve" smooth="yes"/>
    </contour>
  </outline>
</glyph>
<glyph name="D" format="1">
  <advance width="663"/>
  <unicode hex="0044"/>
  <outline>
    <contour>
      <point x="628" y="406" type="line" smooth="yes"/>
      <point x="662" y="681"/>
      <point x="561" y="780"/>
      <point x="337" y="780" type="curve" smooth="yes"/>
      <point x="109" y="780" type="line"/>
      <point x="7" y="0" type="line"/>
      <point x="248" y="0" type="line" smooth="yes"/>
      <point x="473" y="0"/>
      <point x="589" y="95"/>
      <point x="624" y="374" type="curve" smooth="yes"/>
    </contour>
    <contour>
      <point x="187" y="140" type="line"/>
      <point x="253" y="640" type="line"/>
      <point x="329" y="640" type="line" smooth="yes"/>
      <point x="455" y="640"/>
      <point x="482" y="561"/>
      <point x="463" y="406" type="curve" smooth="yes"/>
      <point x="459" y="374" type="line" smooth="yes"/>
      <point x="438" y="208"/>
      <point x="385" y="140"/>
      <point x="250" y="140" type="curve" smooth="yes"/>
    </contour>
  </outline>
</glyph>
<glyph name="E" format="1">
  <advance width="573"/>
  <unicode hex="0045"/>
  <outline>
    <contour>
      <point x="109" y="780" type="line"/>
      <point x="7" y="0" type="line"/>
      <point x="484" y="0" type="line"/>
      <point x="502" y="140" type="line"/>
      <point x="187" y="140" type="line"/>
      <point x="212" y="328" type="line"/>
      <point x="477" y="328" type="line"/>
      <point x="495" y="468" type="line"/>
      <point x="230" y="468" type="line"/>
      <point x="253" y="640" type="line"/>
      <point x="568" y="640" type="line"/>
      <point x="586" y="780" type="line"/>
    </contour>
  </outline>
</glyph>
<glyph name="F" format="1">
  <advance width="549"/>
  <unicode hex="0046"/>
  <outline>
    <contour>
      <point x="109" y="780" type="line"/>
      <point x="7" y="0" type="line"/>
      <point x="169" y="0" type="line"/>
      <point x="212" y="328" type="line"/>
      <point x="473" y="328" type="line"/>
      <point x="491" y="468" type="line"/>
      <point x="230" y="468" type="line"/>
      <point x="253" y="640" type="line"/>
      <point x="564" y="640" type="line"/>
      <point x="582" y="780" type="line"/>
    </contour>
  </outline>
</glyph>
<glyph name="G" format="1">
  <advance width="673"/>
  <unicode hex="0047"/>
  <outline>
    <contour>
      <point x="314" y="-13" type="curve" smooth="yes"/>
      <point x="441" y="-13"/>
      <point x="536" y="34"/>
      <point x="583" y="77" type="curve"/>
      <point x="628" y="422" type="line"/>
      <point x="363" y="422" type="line"/>
      <point x="345" y="282" type="line"/>
      <point x="448" y="282" type="line"/>
      <point x="431" y="154" type="line"/>
      <point x="409" y="138"/>
      <point x="374" y="127"/>
      <point x="325" y="127" type="curve" smooth="yes"/>
      <point x="315" y="127" type="line" smooth="yes"/>
      <point x="216" y="127"/>
      <point x="184" y="217"/>
      <point x="203" y="374" type="curve" smooth="yes"/>
      <point x="207" y="407" type="line" smooth="yes"/>
      <point x="226" y="563"/>
      <point x="278" y="653"/>
      <point x="367" y="653" type="curve" smooth="yes"/>
      <point x="377" y="653" type="line" smooth="yes"/>
      <point x="463" y="653"/>
      <point x="487" y="596"/>
      <point x="473" y="484" type="curve"/>
      <point x="636" y="484" type="line"/>
      <point x="640" y="516" type="line" smooth="yes"/>
      <point x="663" y="701"/>
      <point x="579" y="793"/>
      <point x="376" y="793" type="curve" smooth="yes"/>
      <point x="183" y="793"/>
      <point x="76" y="677"/>
      <point x="42" y="406" type="curve" smooth="yes"/>
      <point x="38" y="374" type="line" smooth="yes"/>
      <point x="4" y="102"/>
      <point x="121" y="-13"/>
    </contour>
  </outline>
</glyph>
<glyph name="H" format="1">
  <advance width="663"/>
  <unicode hex="0048"/>
  <outline>
    <contour>
      <point x="498" y="780" type="line"/>
      <point x="457" y="468" type="line"/>
      <point x="230" y="468" type="line"/>
      <point x="271" y="780" type="line"/>
      <point x="109" y="780" type="line"/>
      <point x="7" y="0" type="line"/>
      <point x="169" y="0" type="line"/>
      <point x="212" y="328" type="line"/>
      <point x="439" y="328" type="line"/>
      <point x="396" y="0" type="line"/>
      <point x="558" y="0" type="line"/>
      <point x="660" y="780" type="line"/>
    </contour>
  </outline>
</glyph>
<glyph name="I" format="1">
  <advance width="283"/>
  <unicode hex="0049"/>
  <outline>
    <contour>
      <point x="276" y="780" type="line"/>
      <point x="114" y="780" type="line"/>
      <point x="12" y="0" type="line"/>
      <point x="174" y="0" type="line"/>
    </contour>
  </outline>
</glyph>
<glyph name="J" format="1">
  <advance width="537"/>
  <unicode hex="004A"/>
  <outline>
    <contour>
      <point x="377" y="780" type="line"/>
      <point x="309" y="252" type="line" smooth="yes"/>
      <point x="297" y="159"/>
      <point x="277" y="127"/>
      <point x="219" y="127" type="curve" smooth="yes"/>
      <point x="161" y="127"/>
      <point x="150" y="169"/>
      <point x="162" y="266" type="curve"/>
      <point x="8" y="266" type="line"/>
      <point x="4" y="234" type="line" smooth="yes"/>
      <point x="-16" y="77"/>
      <point x="44" y="-13"/>
      <point x="217" y="-13" type="curve" smooth="yes"/>
      <point x="377" y="-13"/>
      <point x="447" y="72"/>
      <point x="469" y="239" type="curve" smooth="yes"/>
      <point x="539" y="780" type="line"/>
    </contour>
  </outline>
</glyph>
<glyph name="K" format="1">
  <advance width="625"/>
  <unicode hex="004B"/>
  <outline>
    <contour>
      <point x="271" y="780" type="line"/>
      <point x="109" y="780" type="line"/>
      <point x="7" y="0" type="line"/>
      <point x="169" y="0" type="line"/>
      <point x="197" y="225" type="line"/>
      <point x="278" y="322" type="line"/>
      <point x="378" y="0" type="line"/>
      <point x="557" y="0" type="line"/>
      <point x="398" y="467" type="line"/>
      <point x="659" y="780" type="line"/>
      <point x="462" y="780" type="line"/>
      <point x="230" y="479" type="line"/>
    </contour>
  </outline>
</glyph>
<glyph name="L" format="1">
  <advance width="521"/>
  <unicode hex="004C"/>
  <outline>
    <contour>
      <point x="457" y="0" type="line"/>
      <point x="475" y="140" type="line"/>
      <point x="187" y="140" type="line"/>
      <point x="271" y="780" type="line"/>
      <point x="109" y="780" type="line"/>
      <point x="7" y="0" type="line"/>
    </contour>
  </outline>
</glyph>
<glyph name="M" format="1">
  <advance width="869"/>
  <unicode hex="004D"/>
  <outline>
    <contour>
      <point x="673" y="499" type="line"/>
      <point x="645" y="322" type="line"/>
      <point x="603" y="0" type="line"/>
      <point x="765" y="0" type="line"/>
      <point x="867" y="780" type="line"/>
      <point x="618" y="780" type="line"/>
      <point x="416" y="281" type="line"/>
      <point x="345" y="780" type="line"/>
      <point x="109" y="780" type="line"/>
      <point x="7" y="0" type="line"/>
      <point x="169" y="0" type="line"/>
      <point x="211" y="322" type="line"/>
      <point x="229" y="499" type="line"/>
      <point x="303" y="0" type="line"/>
      <point x="468" y="0" type="line"/>
    </contour>
  </outline>
</glyph>
<glyph name="P" format="1">
  <advance width="609"/>
  <unicode hex="0050"/>
  <outline>
    <contour>
      <point x="206" y="280" type="line"/>
      <point x="310" y="280" type="line" smooth="yes"/>
      <point x="437" y="280"/>
      <point x="574" y="310"/>
      <point x="602" y="515" type="curve" smooth="yes"/>
      <point x="605" y="538" type="line" smooth="yes"/>
      <point x="630" y="730"/>
      <point x="511" y="780"/>
      <point x="372" y="780" type="curve" smooth="yes"/>
      <point x="109" y="780" type="line"/>
      <point x="7" y="0" type="line"/>
      <point x="169" y="0" type="line"/>
    </contour>
    <contour>
      <point x="223" y="420" type="line"/>
      <point x="253" y="640" type="line"/>
      <point x="353" y="640" type="line" smooth="yes"/>
      <point x="397" y="640"/>
      <point x="453" y="622"/>
      <point x="441" y="534" type="curve" smooth="yes"/>
      <point x="439" y="519" type="line" smooth="yes"/>
      <point x="428" y="434"/>
      <point x="369" y="420"/>
      <point x="325" y="420" type="curve" smooth="yes"/>
    </contour>
  </outline>
</glyph>
<glyph name="Q" format="1">
  <advance width="673"/>
  <unicode hex="0051"/>
  <outline>
    <contour>
      <point x="376" y="793" type="curve" smooth="yes"/>
      <point x="173" y="793"/>
      <point x="76" y="677"/>
      <point x="42" y="406" type="curve" smooth="yes"/>
      <point x="38" y="374" type="line" smooth="yes"/>
      <point x="4" y="102"/>
      <point x="97" y="-13"/>
      <point x="300" y="-13" type="curve" smooth="yes"/>
      <point x="320" y="-13" type="line"/>
      <point x="342" y="-100" type="line"/>
      <point x="468" y="-100" type="line"/>
      <point x="438" y="12" type="line"/>
      <point x="549" y="56"/>
      <point x="609" y="174"/>
      <point x="634" y="374" type="curve" smooth="yes"/>
      <point x="638" y="406" type="line" smooth="yes"/>
      <point x="672" y="678"/>
      <point x="579" y="793"/>
    </contour>
    <contour>
      <point x="372" y="262" type="line"/>
      <point x="250" y="262" type="line"/>
      <point x="284" y="128" type="line"/>
      <point x="197" y="137"/>
      <point x="184" y="225"/>
      <point x="203" y="374" type="curve" smooth="yes"/>
      <point x="207" y="406" type="line" smooth="yes"/>
      <point x="227" y="563"/>
      <point x="268" y="653"/>
      <point x="367" y="653" type="curve" smooth="yes"/>
      <point x="377" y="653" type="line" smooth="yes"/>
      <point x="477" y="653"/>
      <point x="493" y="563"/>
      <point x="473" y="406" type="curve" smooth="yes"/>
      <point x="469" y="374" type="line" smooth="yes"/>
      <point x="456" y="276"/>
      <point x="436" y="204"/>
      <point x="398" y="164" type="curve"/>
    </contour>
  </outline>
</glyph>
<glyph name="T" format="1">
  <advance width="557"/>
  <unicode hex="0054"/>
  <outline>
    <contour>
      <point x="394" y="640" type="line"/>
      <point x="575" y="640" type="line"/>
      <point x="593" y="780" type="line"/>
      <point x="70" y="780" type="line"/>
      <point x="52" y="640" type="line"/>
      <point x="232" y="640" type="line"/>
      <point x="148" y="0" type="line"/>
      <point x="310" y="0" type="line"/>
    </contour>
  </outline>
</glyph>
<glyph name="V" format="1">
  <advance width="641"/>
  <unicode hex="0056"/>
  <outline>
    <contour>
      <point x="383" y="-2" type="line"/>
      <point x="680" y="780" type="line"/>
      <point x="506" y="780" type="line"/>
      <point x="294" y="179" type="line"/>
      <point x="241" y="780" type="line"/>
      <point x="67" y="780" type="line"/>
      <point x="160" y="-2" type="line"/>
    </contour>
  </outline>
</glyph>
<glyph name="W" format="1">
  <advance width="937"/>
  <unicode hex="0057"/>
  <outline>
    <contour>
      <point x="529" y="-2" type="line"/>
      <point x="738" y="-2" type="line"/>
      <point x="971" y="780" type="line"/>
      <point x="814" y="780" type="line"/>
      <point x="655" y="220" type="line"/>
      <point x="628" y="780" type="line"/>
      <point x="415" y="780" type="line"/>
      <point x="248" y="221" type="line"/>
      <point x="230" y="780" type="line"/>
      <point x="72" y="780" type="line"/>
      <point x="101" y="-2" type="line"/>
      <point x="326" y="-2" type="line"/>
      <point x="501" y="585" type="line"/>
    </contour>
  </outline>
</glyph>
<glyph name="X" format="1">
  <advance width="649"/>
  <unicode hex="0058"/>
  <outline>
    <contour>
      <point x="-30" y="0" type="line"/>
      <point x="153" y="0" type="line"/>
      <point x="308" y="260" type="line"/>
      <point x="394" y="0" type="line"/>
      <point x="581" y="0" type="line"/>
      <point x="435" y="396" type="line"/>
      <point x="683" y="780" type="line"/>
      <point x="500" y="780" type="line"/>
      <point x="345" y="519" type="line"/>
      <point x="259" y="780" type="line"/>
      <point x="72" y="780" type="line"/>
      <point x="218" y="397" type="line"/>
    </contour>
  </outline>
</glyph>
<glyph name="bracketleft" format="1">
  <advance width="365"/>
  <unicode hex="005B"/>
  <outline>
    <contour>
      <point x="119" y="840" type="line"/>
      <point x="-7" y="-120" type="line"/>
      <point x="267" y="-120" type="line"/>
      <point x="285" y="18" type="line"/>
      <point x="168" y="18" type="line"/>
      <point x="258" y="702" type="line"/>
      <point x="375" y="702" type="line"/>
      <point x="393" y="840" type="line"/>
    </contour>
  </outline>
</glyph>
<glyph name="backslash" format="1">
  <advance width="412"/>
  <unicode hex="005C"/>
  <outline>
    <contour>
      <point x="180" y="-120" type="line"/>
      <point x="334" y="-120" type="line"/>
      <point x="230" y="840" type="line"/>
      <point x="76" y="840" type="line"/>
    </contour>
  </outline>
</glyph>
<glyph name="bracketright" format="1">
  <advance width="365"/>
  <unicode hex="005D"/>
  <outline>
    <contour>
      <point x="242" y="-120" type="line"/>
      <point x="368" y="840" type="line"/>
      <point x="94" y="840" type="line"/>
      <point x="76" y="702" type="line"/>
      <point x="193" y="702" type="line"/>
      <point x="103" y="18" type="line"/>
      <point x="-14" y="18" type="line"/>
      <point x="-32" y="-120" type="line"/>
    </contour>
  </outline>
</glyph>
<glyph name="asciicircum" format="1">
  <advance width="600"/>
  <unicode hex="005E"/>
  <outline>
    <contour>
      <point x="430" y="780" type="line"/>
      <point x="276" y="780" type="line"/>
      <point x="3" y="264" type="line"/>
      <point x="163" y="264" type="line"/>
      <point x="334" y="602" type="line"/>
      <point x="415" y="264" type="line"/>
      <point x="567" y="264" type="line"/>
    </contour>
  </outline>
</glyph>
<glyph name="underscore" format="1">
  <advance width="320"/>
  <unicode hex="005F"/>
  <outline>
    <contour>
      <point x="-32" y="-185" type="line"/>
      <point x="204" y="-185" type="line"/>
      <point x="222" y="-47" type="line"/>
      <point x="-14" y="-47" type="line"/>
    </contour>
  </outline>
</glyph>
<glyph name="grave" format="1">
  <advance width="500"/>
  <unicode hex="0060"/>
  <outline>
    <contour>
      <point x="118" y="780" type="line"/>
      <point x="201" y="596" type="line"/>
      <point x="357" y="596" type="line"/>
      <point x="290" y="780" type="line"/>
    </contour>
  </outline>
</glyph>
<glyph name="f" format="1">
  <advance width="411"/>
  <unicode hex="0066"/>
  <outline>
    <contour>
      <point x="288" y="606" type="line" smooth="yes"/>
      <point x="296" y="666"/>
      <point x="329" y="677"/>
      <point x="372" y="677" type="curve" smooth="yes"/>
      <point x="397" y="677"/>
      <point x="417" y="672"/>
      <point x="422" y="670" type="curve"/>
      <point x="439" y="800" type="line"/>
      <point x="430" y="804"/>
      <point x="402" y="813"/>
      <point x="352" y="813" type="curve" smooth="yes"/>
      <point x="233" y="813"/>
      <point x="150" y="761"/>
      <point x="132" y="623" type="curve" smooth="yes"/>
      <point x="120" y="530" type="line"/>
      <point x="38" y="530" type="line"/>
      <point x="20" y="392" type="line"/>
      <point x="102" y="392" type="line"/>
      <point x="51" y="0" type="line"/>
      <point x="209" y="0" type="line"/>
      <point x="260" y="392" type="line"/>
      <point x="376" y="392" type="line"/>
      <point x="394" y="530" type="line"/>
      <point x="278" y="530" type="line"/>
    </contour>
  </outline>
</glyph>
<glyph name="j" format="1">
  <advance width="268"/>
  <unicode hex="006A"/>
  <outline>
    <contour>
      <point x="268" y="772" type="line"/>
      <point x="101" y="772" type="line"/>
      <point x="79" y="605" type="line"/>
      <point x="246" y="605" type="line"/>
    </contour>
    <contour>
      <point x="4" y="-6" type="line" smooth="yes"/>
      <point x="-4" y="-66"/>
      <point x="-37" y="-77"/>
      <point x="-80" y="-77" type="curve" smooth="yes"/>
      <point x="-105" y="-77"/>
      <point x="-125" y="-72"/>
      <point x="-130" y="-70" type="curve"/>
      <point x="-147" y="-200" type="line"/>
      <point x="-138" y="-204"/>
      <point x="-110" y="-213"/>
      <point x="-60" y="-213" type="curve" smooth="yes"/>
      <point x="59" y="-213"/>
      <point x="142" y="-161"/>
      <point x="160" y="-23" type="curve" smooth="yes"/>
      <point x="232" y="530" type="line"/>
      <point x="74" y="530" type="line"/>
    </contour>
  </outline>
</glyph>
<glyph name="k" format="1">
  <advance width="562"/>
  <unicode hex="006B"/>
  <outline>
    <contour>
      <point x="1" y="0" type="line"/>
      <point x="159" y="0" type="line"/>
      <point x="178" y="146" type="line"/>
      <point x="240" y="208" type="line"/>
      <point x="317" y="0" type="line"/>
      <point x="495" y="0" type="line"/>
      <point x="362" y="329" type="line"/>
      <point x="564" y="530" type="line"/>
      <point x="374" y="530" type="line"/>
      <point x="205" y="352" type="line"/>
      <point x="264" y="800" type="line"/>
      <point x="106" y="800" type="line"/>
    </contour>
  </outline>
</glyph>
<glyph name="l" format="1">
  <advance width="266"/>
  <unicode hex="006C"/>
  <outline>
    <contour>
      <point x="5" y="0" type="line"/>
      <point x="163" y="0" type="line"/>
      <point x="268" y="800" type="line"/>
      <point x="110" y="800" type="line"/>
    </contour>
  </outline>
</glyph>
<glyph name="m" format="1">
  <advance width="863"/>
  <unicode hex="006D"/>
  <outline>
    <contour>
      <point x="512" y="366" type="line"/>
      <point x="527" y="385"/>
      <point x="557" y="407"/>
      <point x="595" y="407" type="curve" smooth="yes"/>
      <point x="638" y="407"/>
      <point x="657" y="384"/>
      <point x="652" y="343" type="curve" smooth="yes"/>
      <point x="607" y="0" type="line"/>
      <point x="765" y="0" type="line"/>
      <point x="813" y="366" type="line" smooth="yes"/>
      <point x="826" y="463"/>
      <point x="777" y="543"/>
      <point x="663" y="543" type="curve" smooth="yes"/>
      <point x="593" y="543"/>
      <point x="543" y="518"/>
      <point x="501" y="463" type="curve"/>
      <point x="480" y="511"/>
      <point x="434" y="543"/>
      <point x="362" y="543" type="curve" smooth="yes"/>
      <point x="289" y="543"/>
      <point x="240" y="513"/>
      <point x="206" y="470" type="curve"/>
      <point x="206" y="530" type="line"/>
      <point x="65" y="530" type="line"/>
      <point x="55" y="381" type="line"/>
      <point x="5" y="0" type="line"/>
      <point x="163" y="0" type="line"/>
      <point x="211" y="366" type="line"/>
      <point x="226" y="385"/>
      <point x="256" y="407"/>
      <point x="294" y="407" type="curve" smooth="yes"/>
      <point x="337" y="407"/>
      <point x="356" y="384"/>
      <point x="351" y="343" type="curve" smooth="yes"/>
      <point x="306" y="0" type="line"/>
      <point x="464" y="0" type="line"/>
    </contour>
  </outline>
</glyph>
<glyph name="n" format="1">
  <advance width="580"/>
  <unicode hex="006E"/>
  <outline>
    <contour>
      <point x="483" y="0" type="line"/>
      <point x="530" y="358" type="line" smooth="yes"/>
      <point x="544" y="464"/>
      <point x="502" y="543"/>
      <point x="375" y="543" type="curve" smooth="yes"/>
      <point x="305" y="543"/>
      <point x="246" y="508"/>
      <point x="206" y="460" type="curve"/>
      <point x="206" y="530" type="line"/>
      <point x="65" y="530" type="line"/>
      <point x="55" y="381" type="line"/>
      <point x="5" y="0" type="line"/>
      <point x="163" y="0" type="line"/>
      <point x="210" y="358" type="line"/>
      <point x="227" y="379"/>
      <point x="265" y="407"/>
      <point x="310" y="407" type="curve" smooth="yes"/>
      <point x="358" y="407"/>
      <point x="375" y="381"/>
      <point x="369" y="335" type="curve" smooth="yes"/>
      <point x="325" y="0" type="line"/>
    </contour>
  </outline>
</glyph>
<glyph name="q" format="1">
  <advance width="581"/>
  <unicode hex="0071"/>
  <outline>
    <contour>
      <point x="448" y="-200" type="line"/>
      <point x="524" y="380" type="line"/>
      <point x="552" y="530" type="line"/>
      <point x="410" y="530" type="line"/>
      <point x="392" y="465" type="line"/>
      <point x="368" y="511"/>
      <point x="320" y="543"/>
      <point x="245" y="543" type="curve" smooth="yes"/>
      <point x="108" y="543"/>
      <point x="40" y="437"/>
      <point x="20" y="284" type="curve" smooth="yes"/>
      <point x="15" y="246" type="line" smooth="yes"/>
      <point x="-6" y="88"/>
      <point x="50" y="-13"/>
      <point x="185" y="-13" type="curve" smooth="yes"/>
      <point x="248" y="-13"/>
      <point x="292" y="8"/>
      <point x="322" y="42" type="curve"/>
      <point x="290" y="-200" type="line"/>
    </contour>
    <contour>
      <point x="282" y="407" type="curve" smooth="yes"/>
      <point x="329" y="407"/>
      <point x="353" y="375"/>
      <point x="363" y="355" type="curve"/>
      <point x="339" y="172" type="line"/>
      <point x="324" y="153"/>
      <point x="298" y="123"/>
      <point x="247" y="123" type="curve" smooth="yes"/>
      <point x="188" y="123"/>
      <point x="162" y="165"/>
      <point x="173" y="246" type="curve" smooth="yes"/>
      <point x="178" y="284" type="line" smooth="yes"/>
      <point x="188" y="364"/>
      <point x="220" y="407"/>
    </contour>
  </outline>
</glyph>
<glyph name="r" format="1">
  <advance width="385"/>
  <unicode hex="0072"/>
  <outline>
    <contour>
      <point x="360" y="543" type="curve" smooth="yes"/>
      <point x="297" y="543"/>
      <point x="243" y="515"/>
      <point x="206" y="460" type="curve"/>
      <point x="206" y="530" type="line"/>
      <point x="65" y="530" type="line"/>
      <point x="55" y="381" type="line"/>
      <point x="5" y="0" type="line"/>
      <point x="163" y="0" type="line"/>
      <point x="207" y="335" type="line"/>
      <point x="226" y="358"/>
      <point x="268" y="380"/>
      <point x="340" y="380" type="curve" smooth="yes"/>
      <point x="353" y="380" type="line"/>
      <point x="374" y="542" type="line"/>
      <point x="375" y="542"/>
      <point x="368" y="543"/>
    </contour>
  </outline>
</glyph>
<glyph name="u" format="1">
  <advance width="580"/>
  <unicode hex="0075"/>
  <outline>
    <contour>
      <point x="68" y="530" type="line"/>
      <point x="21" y="172" type="line" smooth="yes"/>
      <point x="7" y="66"/>
      <point x="49" y="-13"/>
      <point x="176" y="-13" type="curve" smooth="yes"/>
      <point x="246" y="-13"/>
      <point x="305" y="22"/>
      <point x="345" y="70" type="curve"/>
      <point x="345" y="0" type="line"/>
      <point x="486" y="0" type="line"/>
      <point x="496" y="149" type="line"/>
      <point x="546" y="530" type="line"/>
      <point x="388" y="530" type="line"/>
      <point x="341" y="172" type="line"/>
      <point x="324" y="151"/>
      <point x="286" y="123"/>
      <point x="241" y="123" type="curve" smooth="yes"/>
      <point x="193" y="123"/>
      <point x="176" y="149"/>
      <point x="182" y="195" type="curve" smooth="yes"/>
      <point x="226" y="530" type="line"/>
    </contour>
  </outline>
</glyph>
<glyph name="v" format="1">
  <advance width="549"/>
  <unicode hex="0076"/>
  <outline>
    <contour>
      <point x="115" y="0" type="line"/>
      <point x="336" y="0" type="line"/>
      <point x="560" y="530" type="line"/>
      <point x="392" y="530" type="line"/>
      <point x="238" y="127" type="line"/>
      <point x="189" y="530" type="line"/>
      <point x="30" y="530" type="line"/>
    </contour>
  </outline>
</glyph>
<glyph name="w" format="1">
  <advance width="766"/>
  <unicode hex="0077"/>
  <outline>
    <contour>
      <point x="382" y="365" type="line"/>
      <point x="409" y="0" type="line"/>
      <point x="608" y="0" type="line"/>
      <point x="767" y="530" type="line"/>
      <point x="614" y="530" type="line"/>
      <point x="527" y="171" type="line"/>
      <point x="499" y="530" type="line"/>
      <point x="307" y="530" type="line"/>
      <point x="187" y="171" type="line"/>
      <point x="189" y="530" type="line"/>
      <point x="39" y="530" type="line"/>
      <point x="58" y="0" type="line"/>
      <point x="261" y="0" type="line"/>
    </contour>
  </outline>
</glyph>
<glyph name="x" format="1">
  <advance width="558"/>
  <unicode hex="0078"/>
  <outline>
    <contour>
      <point x="37" y="530" type="line"/>
      <point x="146" y="273" type="line"/>
      <point x="-32" y="0" type="line"/>
      <point x="149" y="0" type="line"/>
      <point x="254" y="172" type="line"/>
      <point x="310" y="0" type="line"/>
      <point x="493" y="0" type="line"/>
      <point x="393" y="267" type="line"/>
      <point x="562" y="530" type="line"/>
      <point x="381" y="530" type="line"/>
      <point x="280" y="364" type="line"/>
      <point x="220" y="530" type="line"/>
    </contour>
  </outline>
</glyph>
<glyph name="z" format="1">
  <advance width="499"/>
  <unicode hex="007A"/>
  <outline>
    <contour>
      <point x="-12" y="108" type="line"/>
      <point x="-26" y="0" type="line"/>
      <point x="425" y="0" type="line"/>
      <point x="443" y="138" type="line"/>
      <point x="313" y="138" type="line"/>
      <point x="202" y="135" type="line"/>
      <point x="470" y="422" type="line"/>
      <point x="484" y="530" type="line"/>
      <point x="53" y="530" type="line"/>
      <point x="35" y="392" type="line"/>
      <point x="145" y="392" type="line"/>
      <point x="256" y="395" type="line"/>
    </contour>
  </outline>
</glyph>
<glyph name="braceleft" format="1">
  <advance width="365"/>
  <unicode hex="007B"/>
  <outline>
    <contour>
      <point x="393" y="840" type="line"/>
      <point x="366" y="840" type="line" smooth="yes"/>
      <point x="242" y="840"/>
      <point x="154" y="795"/>
      <point x="137" y="662" type="curve" smooth="yes"/>
      <point x="117" y="511" type="line" smooth="yes"/>
      <point x="109" y="450"/>
      <point x="82" y="429"/>
      <point x="31" y="429" type="curve"/>
      <point x="13" y="291" type="line"/>
      <point x="61" y="291"/>
      <point x="85" y="271"/>
      <point x="78" y="217" type="curve" smooth="yes"/>
      <point x="57" y="58" type="line" smooth="yes"/>
      <point x="39" y="-79"/>
      <point x="125" y="-120"/>
      <point x="240" y="-120" type="curve" smooth="yes"/>
      <point x="267" y="-120" type="line"/>
      <point x="285" y="18" type="line"/>
      <point x="234" y="18"/>
      <point x="211" y="37"/>
      <point x="220" y="103" type="curve" smooth="yes"/>
      <point x="239" y="244" type="line" smooth="yes"/>
      <point x="247" y="307"/>
      <point x="230" y="338"/>
      <point x="190" y="360" type="curve"/>
      <point x="236" y="382"/>
      <point x="261" y="413"/>
      <point x="269" y="476" type="curve" smooth="yes"/>
      <point x="289" y="626" type="line" smooth="yes"/>
      <point x="297" y="685"/>
      <point x="326" y="702"/>
      <point x="375" y="702" type="curve"/>
    </contour>
  </outline>
</glyph>
<glyph name="bar" format="1">
  <advance width="261"/>
  <unicode hex="007C"/>
  <outline>
    <contour>
      <point x="-11" y="-120" type="line"/>
      <point x="143" y="-120" type="line"/>
      <point x="269" y="840" type="line"/>
      <point x="115" y="840" type="line"/>
    </contour>
  </outline>
</glyph>
<glyph name="braceright" format="1">
  <advance width="365"/>
  <unicode hex="007D"/>
  <outline>
    <contour>
      <point x="-32" y="-120" type="line"/>
      <point x="-5" y="-120" type="line" smooth="yes"/>
      <point x="119" y="-120"/>
      <point x="207" y="-75"/>
      <point x="224" y="58" type="curve" smooth="yes"/>
      <point x="244" y="209" type="line" smooth="yes"/>
      <point x="252" y="270"/>
      <point x="279" y="291"/>
      <point x="330" y="291" type="curve"/>
      <point x="348" y="429" type="line"/>
      <point x="300" y="429"/>
      <point x="276" y="449"/>
      <point x="283" y="503" type="curve" smooth="yes"/>
      <point x="304" y="662" type="line" smooth="yes"/>
      <point x="322" y="799"/>
      <point x="236" y="840"/>
      <point x="121" y="840" type="curve" smooth="yes"/>
      <point x="94" y="840" type="line"/>
      <point x="76" y="702" type="line"/>
      <point x="127" y="702"/>
      <point x="150" y="683"/>
      <point x="141" y="617" type="curve" smooth="yes"/>
      <point x="122" y="476" type="line" smooth="yes"/>
      <point x="114" y="413"/>
      <point x="131" y="382"/>
      <point x="171" y="360" type="curve"/>
      <point x="125" y="338"/>
      <point x="100" y="307"/>
      <point x="92" y="244" type="curve" smooth="yes"/>
      <point x="72" y="94" type="line" smooth="yes"/>
      <point x="64" y="35"/>
      <point x="35" y="18"/>
      <point x="-14" y="18" type="curve"/>
    </contour>
  </outline>
</glyph>
<glyph name="asciitilde" format="1">
  <advance width="600"/>
  <unicode hex="007E"/>
  <outline>
    <contour>
      <point x="192" y="482" type="curve" smooth="yes"/>
      <point x="112" y="482"/>
      <point x="62" y="437"/>
      <point x="30" y="387" type="curve"/>
      <point x="94" y="313" type="line"/>
      <point x="112" y="332"/>
      <point x="142" y="361"/>
      <point x="192" y="361" type="curve" smooth="yes"/>
      <point x="261" y="361"/>
      <point x="308" y="296"/>
      <point x="412" y="296" type="curve" smooth="yes"/>
      <point x="492" y="296"/>
      <point x="542" y="341"/>
      <point x="574" y="391" type="curve"/>
      <point x="510" y="465" type="line"/>
      <point x="492" y="446"/>
      <point x="462" y="417"/>
      <point x="410" y="417" type="curve" smooth="yes"/>
      <point x="343" y="417"/>
      <point x="296" y="482"/>
    </contour>
  </outline>
</glyph>
<glyph name="exclamdown" format="1">
  <advance width="265"/>
  <unicode hex="00A1"/>
  <outline>
    <contour>
      <point x="155" y="-200" type="line"/>
      <point x="179" y="302" type="line"/>
      <point x="67" y="302" type="line"/>
      <point x="-41" y="-200" type="line"/>
    </contour>
    <contour>
      <point x="47" y="363" type="line"/>
      <point x="214" y="363" type="line"/>
      <point x="236" y="530" type="line"/>
      <point x="69" y="530" type="line"/>
    </contour>
  </outline>
</glyph>
<glyph name="cent" format="1">
  <advance width="600"/>
  <unicode hex="00A2"/>
  <outline>
    <contour>
      <point x="192" y="-60" type="line"/>
      <point x="234" y="53" type="line"/>
      <point x="249" y="52"/>
      <point x="265" y="51"/>
      <point x="282" y="51" type="curve" smooth="yes"/>
      <point x="439" y="51"/>
      <point x="526" y="136"/>
      <point x="548" y="281" type="curve" smooth="yes"/>
      <point x="550" y="294" type="line"/>
      <point x="395" y="294" type="line"/>
      <point x="386" y="222"/>
      <point x="349" y="189"/>
      <point x="290" y="189" type="curve" smooth="yes"/>
      <point x="207" y="189"/>
      <point x="183" y="256"/>
      <point x="199" y="379" type="curve" smooth="yes"/>
      <point x="203" y="409" type="line" smooth="yes"/>
      <point x="220" y="539"/>
      <point x="266" y="593"/>
      <point x="334" y="593" type="curve" smooth="yes"/>
      <point x="394" y="593"/>
      <point x="433" y="561"/>
      <point x="417" y="466" type="curve"/>
      <point x="573" y="466" type="line"/>
      <point x="577" y="496" type="line" smooth="yes"/>
      <point x="591" y="604"/>
      <point x="550" y="673"/>
      <point x="476" y="706" type="curve"/>
      <point x="525" y="840" type="line"/>
      <point x="404" y="840" type="line"/>
      <point x="364" y="730" type="line"/>
      <point x="357" y="731"/>
      <point x="351" y="731"/>
      <point x="344" y="731" type="curve" smooth="yes"/>
      <point x="167" y="731"/>
      <point x="72" y="630"/>
      <point x="43" y="409" type="curve" smooth="yes"/>
      <point x="38" y="371" type="line" smooth="yes"/>
      <point x="20" y="235"/>
      <point x="47" y="138"/>
      <point x="125" y="89" type="curve"/>
      <point x="71" y="-60" type="line"/>
    </contour>
  </outline>
</glyph>
<glyph name="sterling" format="1">
  <advance width="600"/>
  <unicode hex="00A3"/>
  <outline>
    <contour>
      <point x="355" y="654" type="curve" smooth="yes"/>
      <point x="410" y="654"/>
      <point x="427" y="597"/>
      <point x="414" y="500" type="curve"/>
      <point x="573" y="500" type="line"/>
      <point x="577" y="529" type="line" smooth="yes"/>
      <point x="602" y="708"/>
      <point x="534" y="793"/>
      <point x="360" y="793" type="curve" smooth="yes"/>
      <point x="158" y="793"/>
      <point x="114" y="638"/>
      <point x="114" y="513" type="curve" smooth="yes"/>
      <point x="114" y="485"/>
      <point x="117" y="459"/>
      <point x="120" y="434" type="curve"/>
      <point x="53" y="434" type="line"/>
      <point x="34" y="297" type="line"/>
      <point x="147" y="297" type="line"/>
      <point x="157" y="248"/>
      <point x="165" y="197"/>
      <point x="166" y="139" type="curve"/>
      <point x="14" y="139" type="line"/>
      <point x="-5" y="0" type="line"/>
      <point x="507" y="0" type="line"/>
      <point x="526" y="139" type="line"/>
      <point x="304" y="139" type="line"/>
      <point x="307" y="197"/>
      <point x="304" y="249"/>
      <point x="300" y="297" type="curve"/>
      <point x="440" y="297" type="line"/>
      <point x="459" y="434" type="line"/>
      <point x="282" y="434" type="line"/>
      <point x="277" y="465"/>
      <point x="275" y="494"/>
      <point x="275" y="521" type="curve" smooth="yes"/>
      <point x="275" y="598"/>
      <point x="290" y="654"/>
    </contour>
  </outline>
</glyph>
<glyph name="yen" format="1">
  <advance width="600"/>
  <unicode hex="00A5"/>
  <outline>
    <contour>
      <point x="37" y="342" type="line"/>
      <point x="185" y="342" type="line"/>
      <point x="203" y="280" type="line"/>
      <point x="28" y="280" type="line"/>
      <point x="10" y="142" type="line"/>
      <point x="188" y="142" type="line"/>
      <point x="170" y="0" type="line"/>
      <point x="332" y="0" type="line"/>
      <point x="350" y="142" type="line"/>
      <point x="528" y="142" type="line"/>
      <point x="546" y="280" type="line"/>
      <point x="371" y="280" type="line"/>
      <point x="405" y="342" type="line"/>
      <point x="555" y="342" type="line"/>
      <point x="573" y="480" type="line"/>
      <point x="481" y="480" type="line"/>
      <point x="646" y="780" type="line"/>
      <point x="468" y="780" type="line"/>
      <point x="309" y="446" type="line"/>
      <point x="238" y="780" type="line"/>
      <point x="60" y="780" type="line"/>
      <point x="146" y="480" type="line"/>
      <point x="55" y="480" type="line"/>
    </contour>
  </outline>
</glyph>
<glyph name="section" format="1">
  <advance width="549"/>
  <unicode hex="00A7"/>
  <outline>
    <contour>
      <point x="122" y="514" type="curve"/>
      <point x="70" y="491"/>
      <point x="41" y="455"/>
      <point x="33" y="394" type="curve" smooth="yes"/>
      <point x="31" y="379" type="line" smooth="yes"/>
      <point x="17" y="276"/>
      <point x="85" y="231"/>
      <point x="225" y="215" type="curve" smooth="yes"/>
      <point x="279" y="209"/>
      <point x="300" y="191"/>
      <point x="300" y="165" type="curve" smooth="yes"/>
      <point x="300" y="129"/>
      <point x="279" y="106"/>
      <point x="230" y="106" type="curve" smooth="yes"/>
      <point x="182" y="106"/>
      <point x="160" y="132"/>
      <point x="165" y="174" type="curve"/>
      <point x="12" y="174" type="line"/>
      <point x="10" y="159" type="line" smooth="yes"/>
      <point x="-4" y="55"/>
      <point x="58" y="-13"/>
      <point x="225" y="-13" type="curve" smooth="yes"/>
      <point x="339" y="-13"/>
      <point x="441" y="35"/>
      <point x="456" y="145" type="curve" smooth="yes"/>
      <point x="458" y="160" type="line" smooth="yes"/>
      <point x="464" y="206"/>
      <point x="453" y="242"/>
      <point x="430" y="266" type="curve"/>
      <point x="482" y="289"/>
      <point x="511" y="325"/>
      <point x="519" y="386" type="curve" smooth="yes"/>
      <point x="521" y="401" type="line" smooth="yes"/>
      <point x="535" y="504"/>
      <point x="467" y="549"/>
      <point x="327" y="565" type="curve" smooth="yes"/>
      <point x="273" y="571"/>
      <point x="252" y="589"/>
      <point x="252" y="615" type="curve" smooth="yes"/>
      <point x="252" y="651"/>
      <point x="273" y="674"/>
      <point x="322" y="674" type="curve" smooth="yes"/>
      <point x="370" y="674"/>
      <point x="392" y="648"/>
      <point x="387" y="606" type="curve"/>
      <point x="540" y="606" type="line"/>
      <point x="542" y="621" type="line" smooth="yes"/>
      <point x="556" y="725"/>
      <point x="494" y="793"/>
      <point x="327" y="793" type="curve" smooth="yes"/>
      <point x="213" y="793"/>
      <point x="111" y="745"/>
      <point x="96" y="635" type="curve" smooth="yes"/>
      <point x="94" y="620" type="line" smooth="yes"/>
      <point x="88" y="574"/>
      <point x="99" y="538"/>
    </contour>
    <contour>
      <point x="267" y="325" type="line" smooth="yes"/>
      <point x="215" y="325"/>
      <point x="189" y="346"/>
      <point x="189" y="381" type="curve" smooth="yes"/>
      <point x="189" y="421"/>
      <point x="217" y="455"/>
      <point x="276" y="455" type="curve" smooth="yes"/>
      <point x="285" y="455" type="line" smooth="yes"/>
      <point x="337" y="455"/>
      <point x="363" y="434"/>
      <point x="363" y="399" type="curve" smooth="yes"/>
      <point x="363" y="359"/>
      <point x="335" y="325"/>
      <point x="276" y="325" type="curve" smooth="yes"/>
    </contour>
  </outline>
</glyph>
<glyph name="dieresis" format="1">
  <advance width="500"/>
  <unicode hex="00A8"/>
  <outline>
    <contour>
      <point x="278" y="772" type="line"/>
      <point x="111" y="772" type="line"/>
      <point x="89" y="605" type="line"/>
      <point x="256" y="605" type="line"/>
    </contour>
    <contour>
      <point x="493" y="772" type="line"/>
      <point x="326" y="772" type="line"/>
      <point x="304" y="605" type="line"/>
      <point x="471" y="605" type="line"/>
    </contour>
  </outline>
</glyph>
<glyph name="copyright" format="1">
  <advance width="920"/>
  <unicode hex="00A9"/>
  <outline>
    <contour>
      <point x="57" y="390" type="curve" smooth="yes"/>
      <point x="57" y="167"/>
      <point x="237" y="-13"/>
      <point x="460" y="-13" type="curve" smooth="yes"/>
      <point x="683" y="-13"/>
      <point x="863" y="167"/>
      <point x="863" y="390" type="curve" smooth="yes"/>
      <point x="863" y="613"/>
      <point x="683" y="793"/>
      <point x="460" y="793" type="curve" smooth="yes"/>
      <point x="237" y="793"/>
      <point x="57" y="613"/>
    </contour>
    <contour>
      <point x="113" y="390" type="curve" smooth="yes"/>
      <point x="113" y="582"/>
      <point x="268" y="737"/>
      <point x="460" y="737" type="curve" smooth="yes"/>
      <point x="652" y="737"/>
      <point x="807" y="582"/>
      <point x="807" y="390" type="curve" smooth="yes"/>
      <point x="807" y="198"/>
      <point x="652" y="43"/>
      <point x="460" y="43" type="curve" smooth="yes"/>
      <point x="268" y="43"/>
      <point x="113" y="198"/>
    </contour>
    <contour>
      <point x="463" y="264" type="curve" smooth="yes"/>
      <point x="405" y="264"/>
      <point x="385" y="309"/>
      <point x="385" y="373" type="curve" smooth="yes"/>
      <point x="385" y="407" type="line" smooth="yes"/>
      <point x="385" y="471"/>
      <point x="405" y="516"/>
      <point x="463" y="516" type="curve" smooth="yes"/>
      <point x="510" y="516"/>
      <point x="533" y="489"/>
      <point x="533" y="444" type="curve"/>
      <point x="666" y="444" type="line"/>
      <point x="666" y="465" type="line" smooth="yes"/>
      <point x="666" y="566"/>
      <point x="599" y="639"/>
      <point x="460" y="639" type="curve" smooth="yes"/>
      <point x="307" y="639"/>
      <point x="244" y="539"/>
      <point x="244" y="407" type="curve" smooth="yes"/>
      <point x="244" y="373" type="line" smooth="yes"/>
      <point x="244" y="241"/>
      <point x="307" y="141"/>
      <point x="460" y="141" type="curve" smooth="yes"/>
      <point x="599" y="141"/>
      <point x="666" y="213"/>
      <point x="666" y="307" type="curve" smooth="yes"/>
      <point x="666" y="327" type="line"/>
      <point x="533" y="327" type="line"/>
      <point x="533" y="292"/>
      <point x="511" y="264"/>
    </contour>
  </outline>
</glyph>
<glyph name="ordfeminine" format="1">
  <advance width="429"/>
  <unicode hex="00AA"/>
  <outline>
    <contour>
      <point x="280" y="387" type="line"/>
      <point x="405" y="387" type="line"/>
      <point x="412" y="499" type="line"/>
      <point x="431" y="641" type="line" smooth="yes"/>
      <point x="443" y="730"/>
      <point x="406" y="793"/>
      <point x="262" y="793" type="curve" smooth="yes"/>
      <point x="136" y="793"/>
      <point x="88" y="733"/>
      <point x="80" y="661" type="curve" smooth="yes"/>
      <point x="79" y="652" type="line"/>
      <point x="209" y="652" type="line"/>
      <point x="211" y="674"/>
      <point x="223" y="690"/>
      <point x="255" y="690" type="curve" smooth="yes"/>
      <point x="287" y="690"/>
      <point x="294" y="676"/>
      <point x="294" y="648" type="curve"/>
      <point x="208" y="635" type="line" smooth="yes"/>
      <point x="114" y="621"/>
      <point x="61" y="596"/>
      <point x="45" y="510" type="curve" smooth="yes"/>
      <point x="43" y="499" type="line" smooth="yes"/>
      <point x="31" y="436"/>
      <point x="61" y="377"/>
      <point x="158" y="377" type="curve" smooth="yes"/>
      <point x="215" y="377"/>
      <point x="256" y="400"/>
      <point x="280" y="429" type="curve"/>
    </contour>
    <contour>
      <point x="375" y="181" type="line"/>
      <point x="391" y="300" type="line"/>
      <point x="29" y="300" type="line"/>
      <point x="13" y="181" type="line"/>
    </contour>
    <contour>
      <point x="218" y="487" type="curve" smooth="yes"/>
      <point x="189" y="487"/>
      <point x="180" y="502"/>
      <point x="183" y="519" type="curve" smooth="yes"/>
      <point x="184" y="525" type="line" smooth="yes"/>
      <point x="187" y="543"/>
      <point x="200" y="557"/>
      <point x="227" y="561" type="curve" smooth="yes"/>
      <point x="284" y="570" type="line"/>
      <point x="276" y="509" type="line"/>
      <point x="262" y="499"/>
      <point x="241" y="487"/>
    </contour>
  </outline>
</glyph>
<glyph name="guillemotleft" format="1">
  <advance width="565"/>
  <unicode hex="00AB"/>
  <outline>
    <contour>
      <point x="291" y="563" type="line"/>
      <point x="55" y="416" type="line"/>
      <point x="35" y="264" type="line"/>
      <point x="232" y="117" type="line"/>
      <point x="250" y="251" type="line"/>
      <point x="152" y="335" type="line"/>
      <point x="272" y="419" type="line"/>
    </contour>
    <contour>
      <point x="541" y="563" type="line"/>
      <point x="305" y="416" type="line"/>
      <point x="285" y="264" type="line"/>
      <point x="482" y="117" type="line"/>
      <point x="500" y="251" type="line"/>
      <point x="402" y="335" type="line"/>
      <point x="522" y="419" type="line"/>
    </contour>
  </outline>
</glyph>
<glyph name="logicalnot" format="1">
  <advance width="600"/>
  <unicode hex="00AC"/>
  <outline>
    <contour>
      <point x="67" y="576" type="line"/>
      <point x="49" y="436" type="line"/>
      <point x="425" y="436" type="line"/>
      <point x="393" y="194" type="line"/>
      <point x="532" y="194" type="line"/>
      <point x="583" y="576" type="line"/>
    </contour>
  </outline>
</glyph>
<glyph name="uni00AD" format="1">
  <advance width="353"/>
  <unicode hex="00AD"/>
  <outline>
    <contour>
      <point x="27" y="281" type="line"/>
      <point x="300" y="281" type="line"/>
      <point x="318" y="419" type="line"/>
      <point x="45" y="419" type="line"/>
    </contour>
  </outline>
</glyph>
<glyph name="registered" format="1">
  <advance width="330"/>
  <unicode hex="00AE"/>
  <outline>
    <contour>
      <point x="17" y="665" type="curve" smooth="yes"/>
      <point x="17" y="583"/>
      <point x="83" y="517"/>
      <point x="165" y="517" type="curve" smooth="yes"/>
      <point x="247" y="517"/>
      <point x="313" y="583"/>
      <point x="313" y="665" type="curve" smooth="yes"/>
      <point x="313" y="747"/>
      <point x="247" y="813"/>
      <point x="165" y="813" type="curve" smooth="yes"/>
      <point x="83" y="813"/>
      <point x="17" y="747"/>
    </contour>
    <contour>
      <point x="41" y="665" type="curve" smooth="yes"/>
      <point x="41" y="734"/>
      <point x="96" y="789"/>
      <point x="165" y="789" type="curve" smooth="yes"/>
      <point x="234" y="789"/>
      <point x="289" y="734"/>
      <point x="289" y="665" type="curve" smooth="yes"/>
      <point x="289" y="596"/>
      <point x="234" y="541"/>
      <point x="165" y="541" type="curve" smooth="yes"/>
      <point x="96" y="541"/>
      <point x="41" y="596"/>
    </contour>
    <contour>
      <point x="241" y="689" type="curve" smooth="yes"/>
      <point x="241" y="694" type="line" smooth="yes"/>
      <point x="241" y="739"/>
      <point x="210" y="751"/>
      <point x="180" y="751" type="curve" smooth="yes"/>
      <point x="89" y="751" type="line"/>
      <point x="89" y="579" type="line"/>
      <point x="144" y="579" type="line"/>
      <point x="144" y="632" type="line"/>
      <point x="163" y="632" type="line"/>
      <point x="184" y="579" type="line"/>
      <point x="241" y="579" type="line"/>
      <point x="213" y="638" type="line"/>
      <point x="229" y="645"/>
      <point x="241" y="661"/>
    </contour>
    <contour>
      <point x="186" y="693" type="curve" smooth="yes"/>
      <point x="186" y="690" type="line" smooth="yes"/>
      <point x="186" y="677"/>
      <point x="178" y="673"/>
      <point x="168" y="673" type="curve" smooth="yes"/>
      <point x="144" y="673" type="line"/>
      <point x="144" y="710" type="line"/>
      <point x="168" y="710" type="line" smooth="yes"/>
      <point x="178" y="710"/>
      <point x="186" y="706"/>
    </contour>
  </outline>
</glyph>
<glyph name="macron" format="1">
  <advance width="500"/>
  <unicode hex="00AF"/>
  <outline>
    <contour>
      <point x="132" y="619" type="line"/>
      <point x="432" y="619" type="line"/>
      <point x="450" y="757" type="line"/>
      <point x="150" y="757" type="line"/>
    </contour>
  </outline>
</glyph>
<glyph name="degree" format="1">
  <advance width="400"/>
  <unicode hex="00B0"/>
  <outline>
    <contour>
      <point x="245" y="793" type="curve" smooth="yes"/>
      <point x="157" y="793"/>
      <point x="80" y="735"/>
      <point x="71" y="634" type="curve" smooth="yes"/>
      <point x="70" y="623" type="line" smooth="yes"/>
      <point x="61" y="522"/>
      <point x="127" y="466"/>
      <point x="222" y="466" type="curve" smooth="yes"/>
      <point x="310" y="466"/>
      <point x="387" y="524"/>
      <point x="396" y="625" type="curve" smooth="yes"/>
      <point x="397" y="636" type="line" smooth="yes"/>
      <point x="406" y="737"/>
      <point x="340" y="793"/>
    </contour>
    <contour>
      <point x="299" y="624" type="line" smooth="yes"/>
      <point x="296" y="589"/>
      <point x="270" y="562"/>
      <point x="233" y="562" type="curve" smooth="yes"/>
      <point x="223" y="562" type="line" smooth="yes"/>
      <point x="184" y="562"/>
      <point x="164" y="592"/>
      <point x="167" y="624" type="curve" smooth="yes"/>
      <point x="168" y="635" type="line" smooth="yes"/>
      <point x="171" y="670"/>
      <point x="197" y="697"/>
      <point x="234" y="697" type="curve" smooth="yes"/>
      <point x="244" y="697" type="line" smooth="yes"/>
      <point x="283" y="697"/>
      <point x="303" y="667"/>
      <point x="300" y="635" type="curve" smooth="yes"/>
    </contour>
  </outline>
</glyph>
<glyph name="plusminus" format="1">
  <advance width="600"/>
  <unicode hex="00B1"/>
  <outline>
    <contour>
      <point x="362" y="317" type="line"/>
      <point x="376" y="425" type="line"/>
      <point x="564" y="425" type="line"/>
      <point x="582" y="565" type="line"/>
      <point x="394" y="565" type="line"/>
      <point x="408" y="673" type="line"/>
      <point x="268" y="673" type="line"/>
      <point x="254" y="565" type="line"/>
      <point x="66" y="565" type="line"/>
      <point x="48" y="425" type="line"/>
      <point x="236" y="425" type="line"/>
      <point x="222" y="317" type="line"/>
    </contour>
    <contour>
      <point x="11" y="136" type="line"/>
      <point x="527" y="136" type="line"/>
      <point x="545" y="276" type="line"/>
      <point x="29" y="276" type="line"/>
    </contour>
  </outline>
</glyph>
<glyph name="twosuperior" format="1">
  <advance width="300"/>
  <unicode hex="00B2"/>
  <outline>
    <contour>
      <point x="305" y="493" type="line"/>
      <point x="197" y="493" type="line"/>
      <point x="270" y="562" type="line" smooth="yes"/>
      <point x="303" y="594"/>
      <point x="323" y="618"/>
      <point x="329" y="661" type="curve" smooth="yes"/>
      <point x="331" y="676" type="line" smooth="yes"/>
      <point x="337" y="718"/>
      <point x="310" y="793"/>
      <point x="201" y="793" type="curve" smooth="yes"/>
      <point x="96" y="793"/>
      <point x="62" y="730"/>
      <point x="54" y="659" type="curve" smooth="yes"/>
      <point x="53" y="650" type="line"/>
      <point x="173" y="650" type="line"/>
      <point x="176" y="679"/>
      <point x="182" y="689"/>
      <point x="194" y="689" type="curve" smooth="yes"/>
      <point x="196" y="689" type="line" smooth="yes"/>
      <point x="206" y="689"/>
      <point x="211" y="681"/>
      <point x="209" y="665" type="curve" smooth="yes"/>
      <point x="207" y="650" type="line" smooth="yes"/>
      <point x="205" y="638"/>
      <point x="199" y="630"/>
      <point x="188" y="619" type="curve" smooth="yes"/>
      <point x="30" y="468" type="line"/>
      <point x="20" y="390" type="line"/>
      <point x="292" y="390" type="line"/>
    </contour>
  </outline>
</glyph>
<glyph name="threesuperior" format="1">
  <advance width="300"/>
  <unicode hex="00B3"/>
  <outline>
    <contour>
      <point x="149" y="515" type="curve"/>
      <point x="29" y="515" type="line"/>
      <point x="28" y="506" type="line" smooth="yes"/>
      <point x="19" y="427"/>
      <point x="74" y="377"/>
      <point x="158" y="377" type="curve" smooth="yes"/>
      <point x="235" y="377"/>
      <point x="293" y="416"/>
      <point x="303" y="490" type="curve" smooth="yes"/>
      <point x="305" y="505" type="line" smooth="yes"/>
      <point x="311" y="547"/>
      <point x="292" y="578"/>
      <point x="262" y="589" type="curve"/>
      <point x="293" y="599"/>
      <point x="317" y="618"/>
      <point x="323" y="661" type="curve" smooth="yes"/>
      <point x="325" y="676" type="line" smooth="yes"/>
      <point x="331" y="718"/>
      <point x="304" y="793"/>
      <point x="195" y="793" type="curve" smooth="yes"/>
      <point x="90" y="793"/>
      <point x="56" y="730"/>
      <point x="48" y="659" type="curve" smooth="yes"/>
      <point x="47" y="650" type="line"/>
      <point x="167" y="650" type="line"/>
      <point x="170" y="679"/>
      <point x="176" y="689"/>
      <point x="188" y="689" type="curve" smooth="yes"/>
      <point x="190" y="689" type="line" smooth="yes"/>
      <point x="200" y="689"/>
      <point x="205" y="681"/>
      <point x="203" y="665" type="curve" smooth="yes"/>
      <point x="202" y="658" type="line" smooth="yes"/>
      <point x="200" y="642"/>
      <point x="193" y="637"/>
      <point x="181" y="637" type="curve" smooth="yes"/>
      <point x="134" y="637" type="line"/>
      <point x="122" y="541" type="line"/>
      <point x="170" y="541" type="line" smooth="yes"/>
      <point x="183" y="541"/>
      <point x="189" y="532"/>
      <point x="187" y="516" type="curve" smooth="yes"/>
      <point x="186" y="509" type="line" smooth="yes"/>
      <point x="183" y="489"/>
      <point x="176" y="481"/>
      <point x="165" y="481" type="curve" smooth="yes"/>
      <point x="163" y="481" type="line" smooth="yes"/>
      <point x="153" y="481"/>
      <point x="144" y="488"/>
    </contour>
  </outline>
</glyph>
<glyph name="acute" format="1">
  <advance width="500"/>
  <unicode hex="00B4"/>
  <outline>
    <contour>
      <point x="316" y="780" type="line"/>
      <point x="201" y="596" type="line"/>
      <point x="357" y="596" type="line"/>
      <point x="488" y="780" type="line"/>
    </contour>
  </outline>
</glyph>
<glyph name="paragraph" format="1">
  <advance width="549"/>
  <unicode hex="00B6"/>
  <outline>
    <contour>
      <point x="283" y="0" type="line"/>
      <point x="445" y="0" type="line"/>
      <point x="547" y="780" type="line"/>
      <point x="338" y="780" type="line" smooth="yes"/>
      <point x="211" y="780"/>
      <point x="73" y="749"/>
      <point x="46" y="545" type="curve" smooth="yes"/>
      <point x="43" y="522" type="line" smooth="yes"/>
      <point x="18" y="330"/>
      <point x="137" y="280"/>
      <point x="276" y="280" type="curve" smooth="yes"/>
      <point x="319" y="280" type="line"/>
    </contour>
  </outline>
</glyph>
<glyph name="periodcentered" format="1">
  <advance width="266"/>
  <unicode hex="00B7"/>
  <outline>
    <contour>
      <point x="225" y="434" type="line"/>
      <point x="58" y="434" type="line"/>
      <point x="36" y="267" type="line"/>
      <point x="203" y="267" type="line"/>
    </contour>
  </outline>
</glyph>
<glyph name="cedilla" format="1">
  <advance width="602"/>
  <unicode hex="00B8"/>
  <outline>
    <contour>
      <point x="69" y="-190" type="line"/>
      <point x="87" y="-202"/>
      <point x="124" y="-215"/>
      <point x="180" y="-215" type="curve" smooth="yes"/>
      <point x="255" y="-215"/>
      <point x="306" y="-178"/>
      <point x="306" y="-118" type="curve" smooth="yes"/>
      <point x="306" y="-65"/>
      <point x="268" y="-44"/>
      <point x="216" y="-40" type="curve"/>
      <point x="237" y="0" type="line"/>
      <point x="165" y="0" type="line"/>
      <point x="126" y="-72" type="line"/>
      <point x="137" y="-100" type="line"/>
      <point x="137" y="-100"/>
      <point x="158" y="-95"/>
      <point x="176" y="-95" type="curve" smooth="yes"/>
      <point x="206" y="-95"/>
      <point x="221" y="-102"/>
      <point x="221" y="-116" type="curve" smooth="yes"/>
      <point x="221" y="-131"/>
      <point x="207" y="-141"/>
      <point x="175" y="-141" type="curve" smooth="yes"/>
      <point x="145" y="-141"/>
      <point x="116" y="-134"/>
      <point x="101" y="-124" type="curve"/>
    </contour>
  </outline>
</glyph>
<glyph name="onesuperior" format="1">
  <advance width="300"/>
  <unicode hex="00B9"/>
  <outline>
    <contour>
      <point x="292" y="390" type="line"/>
      <point x="305" y="493" type="line"/>
      <point x="234" y="493" type="line"/>
      <point x="272" y="782" type="line"/>
      <point x="183" y="782" type="line"/>
      <point x="47" y="697" type="line"/>
      <point x="95" y="612" type="line"/>
      <point x="133" y="635" type="line"/>
      <point x="114" y="493" type="line"/>
      <point x="42" y="493" type="line"/>
      <point x="29" y="390" type="line"/>
    </contour>
  </outline>
</glyph>
<glyph name="ordmasculine" format="1">
  <advance width="443"/>
  <unicode hex="00BA"/>
  <outline>
    <contour>
      <point x="230" y="376" type="curve" smooth="yes"/>
      <point x="348" y="376"/>
      <point x="420" y="454"/>
      <point x="436" y="571" type="curve" smooth="yes"/>
      <point x="440" y="600" type="line" smooth="yes"/>
      <point x="456" y="717"/>
      <point x="383" y="795"/>
      <point x="266" y="795" type="curve" smooth="yes"/>
      <point x="148" y="795"/>
      <point x="76" y="717"/>
      <point x="60" y="600" type="curve" smooth="yes"/>
      <point x="56" y="571" type="line" smooth="yes"/>
      <point x="40" y="454"/>
      <point x="113" y="376"/>
    </contour>
    <contour>
      <point x="299" y="571" type="line" smooth="yes"/>
      <point x="292" y="517"/>
      <point x="271" y="495"/>
      <point x="241" y="495" type="curve" smooth="yes"/>
      <point x="201" y="495"/>
      <point x="186" y="521"/>
      <point x="193" y="571" type="curve" smooth="yes"/>
      <point x="197" y="600" type="line" smooth="yes"/>
      <point x="204" y="654"/>
      <point x="225" y="676"/>
      <point x="255" y="676" type="curve" smooth="yes"/>
      <point x="295" y="676"/>
      <point x="310" y="650"/>
      <point x="303" y="600" type="curve" smooth="yes"/>
    </contour>
    <contour>
      <point x="377" y="181" type="line"/>
      <point x="393" y="300" type="line"/>
      <point x="29" y="300" type="line"/>
      <point x="13" y="181" type="line"/>
    </contour>
  </outline>
</glyph>
<glyph name="guillemotright" format="1">
  <advance width="565"/>
  <unicode hex="00BB"/>
  <outline>
    <contour>
      <point x="265" y="117" type="line"/>
      <point x="501" y="264" type="line"/>
      <point x="521" y="416" type="line"/>
      <point x="324" y="563" type="line"/>
      <point x="306" y="429" type="line"/>
      <point x="404" y="345" type="line"/>
      <point x="284" y="261" type="line"/>
    </contour>
    <contour>
      <point x="15" y="117" type="line"/>
      <point x="251" y="264" type="line"/>
      <point x="271" y="416" type="line"/>
      <point x="74" y="563" type="line"/>
      <point x="56" y="429" type="line"/>
      <point x="154" y="345" type="line"/>
      <point x="34" y="261" type="line"/>
    </contour>
  </outline>
</glyph>
<glyph name="onequarter" format="1">
  <advance width="800"/>
  <unicode hex="00BC"/>
  <outline>
    <contour>
      <point x="292" y="390" type="line"/>
      <point x="305" y="493" type="line"/>
      <point x="234" y="493" type="line"/>
      <point x="272" y="782" type="line"/>
      <point x="183" y="782" type="line"/>
      <point x="47" y="697" type="line"/>
      <point x="95" y="612" type="line"/>
      <point x="133" y="635" type="line"/>
      <point x="114" y="493" type="line"/>
      <point x="42" y="493" type="line"/>
      <point x="29" y="390" type="line"/>
    </contour>
    <contour>
      <point x="130" y="0" type="line"/>
      <point x="808" y="780" type="line"/>
      <point x="674" y="780" type="line"/>
      <point x="-4" y="0" type="line"/>
    </contour>
    <contour>
      <point x="708" y="0" type="line"/>
      <point x="717" y="68" type="line"/>
      <point x="749" y="68" type="line"/>
      <point x="762" y="171" type="line"/>
      <point x="730" y="171" type="line"/>
      <point x="759" y="390" type="line"/>
      <point x="645" y="390" type="line"/>
      <point x="478" y="165" type="line"/>
      <point x="466" y="68" type="line"/>
      <point x="597" y="68" type="line"/>
      <point x="588" y="0" type="line"/>
    </contour>
    <contour>
      <point x="619" y="235" type="line"/>
      <point x="610" y="171" type="line"/>
      <point x="573" y="171" type="line"/>
    </contour>
  </outline>
</glyph>
<glyph name="onehalf" format="1">
  <advance width="800"/>
  <unicode hex="00BD"/>
  <outline>
    <contour>
      <point x="292" y="390" type="line"/>
      <point x="305" y="493" type="line"/>
      <point x="234" y="493" type="line"/>
      <point x="272" y="782" type="line"/>
      <point x="183" y="782" type="line"/>
      <point x="47" y="697" type="line"/>
      <point x="95" y="612" type="line"/>
      <point x="133" y="635" type="line"/>
      <point x="114" y="493" type="line"/>
      <point x="42" y="493" type="line"/>
      <point x="29" y="390" type="line"/>
    </contour>
    <contour>
      <point x="130" y="0" type="line"/>
      <point x="808" y="780" type="line"/>
      <point x="674" y="780" type="line"/>
      <point x="-4" y="0" type="line"/>
    </contour>
    <contour>
      <point x="754" y="103" type="line"/>
      <point x="646" y="103" type="line"/>
      <point x="719" y="172" type="line" smooth="yes"/>
      <point x="752" y="204"/>
      <point x="772" y="228"/>
      <point x="778" y="271" type="curve" smooth="yes"/>
      <point x="780" y="286" type="line" smooth="yes"/>
      <point x="786" y="328"/>
      <point x="759" y="403"/>
      <point x="650" y="403" type="curve" smooth="yes"/>
      <point x="545" y="403"/>
      <point x="511" y="340"/>
      <point x="503" y="269" type="curve" smooth="yes"/>
      <point x="502" y="260" type="line"/>
      <point x="622" y="260" type="line"/>
      <point x="625" y="289"/>
      <point x="631" y="299"/>
      <point x="643" y="299" type="curve" smooth="yes"/>
      <point x="645" y="299" type="line" smooth="yes"/>
      <point x="655" y="299"/>
      <point x="660" y="291"/>
      <point x="658" y="275" type="curve" smooth="yes"/>
      <point x="656" y="260" type="line" smooth="yes"/>
      <point x="654" y="248"/>
      <point x="648" y="240"/>
      <point x="637" y="229" type="curve" smooth="yes"/>
      <point x="479" y="78" type="line"/>
      <point x="469" y="0" type="line"/>
      <point x="741" y="0" type="line"/>
    </contour>
  </outline>
</glyph>
<glyph name="threequarters" format="1">
  <advance width="800"/>
  <unicode hex="00BE"/>
  <outline>
    <contour>
      <point x="149" y="515" type="curve"/>
      <point x="29" y="515" type="line"/>
      <point x="28" y="506" type="line" smooth="yes"/>
      <point x="19" y="427"/>
      <point x="74" y="377"/>
      <point x="158" y="377" type="curve" smooth="yes"/>
      <point x="235" y="377"/>
      <point x="293" y="416"/>
      <point x="303" y="490" type="curve" smooth="yes"/>
      <point x="305" y="505" type="line" smooth="yes"/>
      <point x="311" y="547"/>
      <point x="292" y="578"/>
      <point x="262" y="589" type="curve"/>
      <point x="293" y="599"/>
      <point x="317" y="618"/>
      <point x="323" y="661" type="curve" smooth="yes"/>
      <point x="325" y="676" type="line" smooth="yes"/>
      <point x="331" y="718"/>
      <point x="304" y="793"/>
      <point x="195" y="793" type="curve" smooth="yes"/>
      <point x="90" y="793"/>
      <point x="56" y="730"/>
      <point x="48" y="659" type="curve" smooth="yes"/>
      <point x="47" y="650" type="line"/>
      <point x="167" y="650" type="line"/>
      <point x="170" y="679"/>
      <point x="176" y="689"/>
      <point x="188" y="689" type="curve" smooth="yes"/>
      <point x="190" y="689" type="line" smooth="yes"/>
      <point x="200" y="689"/>
      <point x="205" y="681"/>
      <point x="203" y="665" type="curve" smooth="yes"/>
      <point x="202" y="658" type="line" smooth="yes"/>
      <point x="200" y="642"/>
      <point x="193" y="637"/>
      <point x="181" y="637" type="curve" smooth="yes"/>
      <point x="134" y="637" type="line"/>
      <point x="122" y="541" type="line"/>
      <point x="170" y="541" type="line" smooth="yes"/>
      <point x="183" y="541"/>
      <point x="189" y="532"/>
      <point x="187" y="516" type="curve" smooth="yes"/>
      <point x="186" y="509" type="line" smooth="yes"/>
      <point x="183" y="489"/>
      <point x="176" y="481"/>
      <point x="165" y="481" type="curve" smooth="yes"/>
      <point x="163" y="481" type="line" smooth="yes"/>
      <point x="153" y="481"/>
      <point x="144" y="488"/>
    </contour>
    <contour>
      <point x="130" y="0" type="line"/>
      <point x="808" y="780" type="line"/>
      <point x="674" y="780" type="line"/>
      <point x="-4" y="0" type="line"/>
    </contour>
    <contour>
      <point x="708" y="0" type="line"/>
      <point x="717" y="68" type="line"/>
      <point x="749" y="68" type="line"/>
      <point x="762" y="171" type="line"/>
      <point x="730" y="171" type="line"/>
      <point x="759" y="390" type="line"/>
      <point x="645" y="390" type="line"/>
      <point x="478" y="165" type="line"/>
      <point x="466" y="68" type="line"/>
      <point x="597" y="68" type="line"/>
      <point x="588" y="0" type="line"/>
    </contour>
    <contour>
      <point x="619" y="235" type="line"/>
      <point x="610" y="171" type="line"/>
      <point x="573" y="171" type="line"/>
    </contour>
  </outline>
</glyph>
<glyph name="questiondown" format="1">
  <advance width="497"/>
  <unicode hex="00BF"/>
  <outline>
    <contour>
      <point x="182" y="-74" type="curve" smooth="yes"/>
      <point x="140" y="-74"/>
      <point x="126" y="-53"/>
      <point x="126" y="-21" type="curve" smooth="yes"/>
      <point x="126" y="80"/>
      <point x="298" y="134"/>
      <point x="298" y="302" type="curve"/>
      <point x="186" y="302" type="line"/>
      <point x="161" y="145"/>
      <point x="-36" y="163"/>
      <point x="-36" y="-48" type="curve" smooth="yes"/>
      <point x="-36" y="-135"/>
      <point x="8" y="-213"/>
      <point x="177" y="-213" type="curve" smooth="yes"/>
      <point x="334" y="-213"/>
      <point x="408" y="-130"/>
      <point x="430" y="37" type="curve" smooth="yes"/>
      <point x="433" y="60" type="line"/>
      <point x="274" y="60" type="line"/>
      <point x="261" y="-38"/>
      <point x="237" y="-74"/>
    </contour>
    <contour>
      <point x="166" y="363" type="line"/>
      <point x="333" y="363" type="line"/>
      <point x="355" y="530" type="line"/>
      <point x="188" y="530" type="line"/>
    </contour>
  </outline>
</glyph>
<glyph name="Agrave" format="1">
  <advance width="641"/>
  <unicode hex="00C0"/>
  <outline>
    <contour>
      <point x="254" y="950" type="line"/>
      <point x="303" y="840" type="line"/>
      <point x="459" y="840" type="line"/>
      <point x="419" y="950" type="line"/>
    </contour>
    <contour>
      <point x="262" y="782" type="line"/>
      <point x="-35" y="0" type="line"/>
      <point x="139" y="0" type="line"/>
      <point x="199" y="168" type="line"/>
      <point x="389" y="168" type="line"/>
      <point x="404" y="0" type="line"/>
      <point x="578" y="0" type="line"/>
      <point x="485" y="782" type="line"/>
    </contour>
    <contour>
      <point x="351" y="601" type="line"/>
      <point x="376" y="308" type="line"/>
      <point x="248" y="308" type="line"/>
    </contour>
  </outline>
</glyph>
<glyph name="Acircumflex" format="1">
  <advance width="641"/>
  <unicode hex="00C2"/>
  <outline>
    <contour>
      <point x="585" y="840" type="line"/>
      <point x="476" y="950" type="line"/>
      <point x="316" y="950" type="line"/>
      <point x="177" y="840" type="line"/>
      <point x="322" y="840" type="line"/>
      <point x="389" y="890" type="line"/>
      <point x="446" y="840" type="line"/>
    </contour>
    <contour>
      <point x="262" y="782" type="line"/>
      <point x="-35" y="0" type="line"/>
      <point x="139" y="0" type="line"/>
      <point x="199" y="168" type="line"/>
      <point x="389" y="168" type="line"/>
      <point x="404" y="0" type="line"/>
      <point x="578" y="0" type="line"/>
      <point x="485" y="782" type="line"/>
    </contour>
    <contour>
      <point x="351" y="601" type="line"/>
      <point x="376" y="308" type="line"/>
      <point x="248" y="308" type="line"/>
    </contour>
  </outline>
</glyph>
<glyph name="Atilde" format="1">
  <advance width="641"/>
  <unicode hex="00C3"/>
  <outline>
    <contour>
      <point x="495" y="947" type="line"/>
      <point x="493" y="922"/>
      <point x="476" y="914"/>
      <point x="458" y="914" type="curve" smooth="yes"/>
      <point x="420" y="914"/>
      <point x="374" y="962"/>
      <point x="310" y="962" type="curve" smooth="yes"/>
      <point x="256" y="962"/>
      <point x="205" y="931"/>
      <point x="196" y="843" type="curve"/>
      <point x="281" y="843" type="line"/>
      <point x="283" y="868"/>
      <point x="300" y="876"/>
      <point x="318" y="876" type="curve" smooth="yes"/>
      <point x="356" y="876"/>
      <point x="402" y="828"/>
      <point x="466" y="828" type="curve" smooth="yes"/>
      <point x="520" y="828"/>
      <point x="571" y="859"/>
      <point x="580" y="947" type="curve"/>
    </contour>
    <contour>
      <point x="262" y="782" type="line"/>
      <point x="-35" y="0" type="line"/>
      <point x="139" y="0" type="line"/>
      <point x="199" y="168" type="line"/>
      <point x="389" y="168" type="line"/>
      <point x="404" y="0" type="line"/>
      <point x="578" y="0" type="line"/>
      <point x="485" y="782" type="line"/>
    </contour>
    <contour>
      <point x="351" y="601" type="line"/>
      <point x="376" y="308" type="line"/>
      <point x="248" y="308" type="line"/>
    </contour>
  </outline>
</glyph>
<glyph name="Adieresis" format="1">
  <advance width="641"/>
  <unicode hex="00C4"/>
  <outline>
    <contour>
      <point x="374" y="945" type="line"/>
      <point x="241" y="945" type="line"/>
      <point x="228" y="845" type="line"/>
      <point x="361" y="845" type="line"/>
    </contour>
    <contour>
      <point x="549" y="945" type="line"/>
      <point x="416" y="945" type="line"/>
      <point x="403" y="845" type="line"/>
      <point x="536" y="845" type="line"/>
    </contour>
    <contour>
      <point x="262" y="782" type="line"/>
      <point x="-35" y="0" type="line"/>
      <point x="139" y="0" type="line"/>
      <point x="199" y="168" type="line"/>
      <point x="389" y="168" type="line"/>
      <point x="404" y="0" type="line"/>
      <point x="578" y="0" type="line"/>
      <point x="485" y="782" type="line"/>
    </contour>
    <contour>
      <point x="351" y="601" type="line"/>
      <point x="376" y="308" type="line"/>
      <point x="248" y="308" type="line"/>
    </contour>
  </outline>
</glyph>
<glyph name="Aring" format="1">
  <advance width="641"/>
  <unicode hex="00C5"/>
  <outline>
    <contour>
      <point x="262" y="782" type="line"/>
      <point x="-35" y="0" type="line"/>
      <point x="139" y="0" type="line"/>
      <point x="199" y="168" type="line"/>
      <point x="389" y="168" type="line"/>
      <point x="404" y="0" type="line"/>
      <point x="578" y="0" type="line"/>
      <point x="485" y="782" type="line"/>
      <point x="449" y="782" type="line"/>
      <point x="473" y="803"/>
      <point x="489" y="834"/>
      <point x="489" y="870" type="curve" smooth="yes"/>
      <point x="489" y="923"/>
      <point x="448" y="963"/>
      <point x="393" y="963" type="curve" smooth="yes"/>
      <point x="329" y="963"/>
      <point x="276" y="913"/>
      <point x="276" y="846" type="curve" smooth="yes"/>
      <point x="276" y="821"/>
      <point x="285" y="798"/>
      <point x="301" y="782" type="curve"/>
    </contour>
    <contour>
      <point x="351" y="601" type="line"/>
      <point x="376" y="308" type="line"/>
      <point x="248" y="308" type="line"/>
    </contour>
    <contour>
      <point x="434" y="863" type="curve" smooth="yes"/>
      <point x="434" y="830"/>
      <point x="409" y="807"/>
      <point x="377" y="807" type="curve" smooth="yes"/>
      <point x="351" y="807"/>
      <point x="331" y="826"/>
      <point x="331" y="853" type="curve" smooth="yes"/>
      <point x="331" y="886"/>
      <point x="356" y="909"/>
      <point x="388" y="909" type="curve" smooth="yes"/>
      <point x="414" y="909"/>
      <point x="434" y="890"/>
    </contour>
  </outline>
</glyph>
<glyph name="AE" format="1">
  <advance width="885"/>
  <unicode hex="00C6"/>
  <outline>
    <contour>
      <point x="333" y="780" type="line"/>
      <point x="-41" y="0" type="line"/>
      <point x="133" y="0" type="line"/>
      <point x="209" y="168" type="line"/>
      <point x="391" y="168" type="line"/>
      <point x="388" y="0" type="line"/>
      <point x="796" y="0" type="line"/>
      <point x="814" y="140" type="line"/>
      <point x="559" y="140" type="line"/>
      <point x="558" y="328" type="line"/>
      <point x="789" y="328" type="line"/>
      <point x="807" y="468" type="line"/>
      <point x="557" y="468" type="line"/>
      <point x="556" y="640" type="line"/>
      <point x="880" y="640" type="line"/>
      <point x="898" y="780" type="line"/>
    </contour>
    <contour>
      <point x="400" y="596" type="line"/>
      <point x="394" y="308" type="line"/>
      <point x="272" y="308" type="line"/>
    </contour>
  </outline>
</glyph>
<glyph name="Ccedilla" format="1">
  <advance width="650"/>
  <unicode hex="00C7"/>
  <outline>
    <contour>
      <point x="207" y="407" type="line" smooth="yes"/>
      <point x="226" y="563"/>
      <point x="273" y="653"/>
      <point x="362" y="653" type="curve" smooth="yes"/>
      <point x="372" y="653" type="line" smooth="yes"/>
      <point x="458" y="653"/>
      <point x="477" y="596"/>
      <point x="463" y="484" type="curve"/>
      <point x="626" y="484" type="line"/>
      <point x="630" y="516" type="line" smooth="yes"/>
      <point x="653" y="701"/>
      <point x="574" y="793"/>
      <point x="371" y="793" type="curve" smooth="yes"/>
      <point x="178" y="793"/>
      <point x="76" y="677"/>
      <point x="42" y="406" type="curve" smooth="yes"/>
      <point x="38" y="374" type="line" smooth="yes"/>
      <point x="6" y="123"/>
      <point x="87" y="6"/>
      <point x="251" y="-11" type="curve"/>
      <point x="218" y="-72" type="line"/>
      <point x="229" y="-100" type="line"/>
      <point x="229" y="-100"/>
      <point x="250" y="-95"/>
      <point x="268" y="-95" type="curve" smooth="yes"/>
      <point x="298" y="-95"/>
      <point x="313" y="-102"/>
      <point x="313" y="-116" type="curve" smooth="yes"/>
      <point x="313" y="-131"/>
      <point x="299" y="-141"/>
      <point x="267" y="-141" type="curve" smooth="yes"/>
      <point x="237" y="-141"/>
      <point x="208" y="-134"/>
      <point x="193" y="-124" type="curve"/>
      <point x="161" y="-190" type="line"/>
      <point x="179" y="-202"/>
      <point x="216" y="-215"/>
      <point x="272" y="-215" type="curve" smooth="yes"/>
      <point x="347" y="-215"/>
      <point x="398" y="-178"/>
      <point x="398" y="-118" type="curve" smooth="yes"/>
      <point x="398" y="-65"/>
      <point x="360" y="-44"/>
      <point x="308" y="-40" type="curve"/>
      <point x="322" y="-12" type="line"/>
      <point x="477" y="-5"/>
      <point x="570" y="70"/>
      <point x="595" y="251" type="curve" smooth="yes"/>
      <point x="597" y="266" type="line"/>
      <point x="434" y="266" type="line"/>
      <point x="422" y="178"/>
      <point x="403" y="127"/>
      <point x="304" y="127" type="curve" smooth="yes"/>
      <point x="294" y="127" type="line" smooth="yes"/>
      <point x="204" y="127"/>
      <point x="184" y="217"/>
      <point x="203" y="374" type="curve" smooth="yes"/>
    </contour>
  </outline>
</glyph>
<glyph name="Edieresis" format="1">
  <advance width="573"/>
  <unicode hex="00CB"/>
  <outline>
    <contour>
      <point x="350" y="945" type="line"/>
      <point x="217" y="945" type="line"/>
      <point x="204" y="845" type="line"/>
      <point x="337" y="845" type="line"/>
    </contour>
    <contour>
      <point x="525" y="945" type="line"/>
      <point x="392" y="945" type="line"/>
      <point x="379" y="845" type="line"/>
      <point x="512" y="845" type="line"/>
    </contour>
    <contour>
      <point x="109" y="780" type="line"/>
      <point x="7" y="0" type="line"/>
      <point x="484" y="0" type="line"/>
      <point x="502" y="140" type="line"/>
      <point x="187" y="140" type="line"/>
      <point x="212" y="328" type="line"/>
      <point x="477" y="328" type="line"/>
      <point x="495" y="468" type="line"/>
      <point x="230" y="468" type="line"/>
      <point x="253" y="640" type="line"/>
      <point x="568" y="640" type="line"/>
      <point x="586" y="780" type="line"/>
    </contour>
  </outline>
</glyph>
<glyph name="Iacute" format="1">
  <advance width="283"/>
  <unicode hex="00CD"/>
  <outline>
    <contour>
      <point x="195" y="950" type="line"/>
      <point x="125" y="840" type="line"/>
      <point x="281" y="840" type="line"/>
      <point x="360" y="950" type="line"/>
    </contour>
    <contour>
      <point x="276" y="780" type="line"/>
      <point x="114" y="780" type="line"/>
      <point x="12" y="0" type="line"/>
      <point x="174" y="0" type="line"/>
    </contour>
  </outline>
</glyph>
<glyph name="Icircumflex" format="1">
  <advance width="283"/>
  <unicode hex="00CE"/>
  <outline>
    <contour>
      <point x="407" y="840" type="line"/>
      <point x="298" y="950" type="line"/>
      <point x="138" y="950" type="line"/>
      <point x="-1" y="840" type="line"/>
      <point x="144" y="840" type="line"/>
      <point x="211" y="890" type="line"/>
      <point x="268" y="840" type="line"/>
    </contour>
    <contour>
      <point x="276" y="780" type="line"/>
      <point x="114" y="780" type="line"/>
      <point x="12" y="0" type="line"/>
      <point x="174" y="0" type="line"/>
    </contour>
  </outline>
</glyph>
<glyph name="Idieresis" format="1">
  <advance width="283"/>
  <unicode hex="00CF"/>
  <outline>
    <contour>
      <point x="196" y="945" type="line"/>
      <point x="63" y="945" type="line"/>
      <point x="50" y="845" type="line"/>
      <point x="183" y="845" type="line"/>
    </contour>
    <contour>
      <point x="371" y="945" type="line"/>
      <point x="238" y="945" type="line"/>
      <point x="225" y="845" type="line"/>
      <point x="358" y="845" type="line"/>
    </contour>
    <contour>
      <point x="276" y="780" type="line"/>
      <point x="114" y="780" type="line"/>
      <point x="12" y="0" type="line"/>
      <point x="174" y="0" type="line"/>
    </contour>
  </outline>
</glyph>
<glyph name="Eth" format="1">
  <advance width="723"/>
  <unicode hex="00D0"/>
  <outline>
    <contour>
      <point x="688" y="406" type="line" smooth="yes"/>
      <point x="722" y="681"/>
      <point x="621" y="780"/>
      <point x="397" y="780" type="curve" smooth="yes"/>
      <point x="169" y="780" type="line"/>
      <point x="127" y="459" type="line"/>
      <point x="23" y="459" type="line"/>
      <point x="7" y="338" type="line"/>
      <point x="111" y="338" type="line"/>
      <point x="67" y="0" type="line"/>
      <point x="308" y="0" type="line" smooth="yes"/>
      <point x="533" y="0"/>
      <point x="649" y="95"/>
      <point x="684" y="374" type="curve" smooth="yes"/>
    </contour>
    <contour>
      <point x="247" y="140" type="line"/>
      <point x="273" y="338" type="line"/>
      <point x="438" y="338" type="line"/>
      <point x="454" y="459" type="line"/>
      <point x="289" y="459" type="line"/>
      <point x="313" y="640" type="line"/>
      <point x="389" y="640" type="line" smooth="yes"/>
      <point x="515" y="640"/>
      <point x="542" y="561"/>
      <point x="523" y="406" type="curve" smooth="yes"/>
      <point x="519" y="374" type="line" smooth="yes"/>
      <point x="498" y="208"/>
      <point x="445" y="140"/>
      <point x="310" y="140" type="curve" smooth="yes"/>
    </contour>
  </outline>
</glyph>
<glyph name="Ntilde" format="1">
  <advance width="683"/>
  <unicode hex="00D1"/>
  <outline>
    <contour>
      <point x="519" y="947" type="line"/>
      <point x="517" y="922"/>
      <point x="500" y="914"/>
      <point x="482" y="914" type="curve" smooth="yes"/>
      <point x="444" y="914"/>
      <point x="398" y="962"/>
      <point x="334" y="962" type="curve" smooth="yes"/>
      <point x="280" y="962"/>
      <point x="229" y="931"/>
      <point x="220" y="843" type="curve"/>
      <point x="305" y="843" type="line"/>
      <point x="307" y="868"/>
      <point x="324" y="876"/>
      <point x="342" y="876" type="curve" smooth="yes"/>
      <point x="380" y="876"/>
      <point x="426" y="828"/>
      <point x="490" y="828" type="curve" smooth="yes"/>
      <point x="544" y="828"/>
      <point x="595" y="859"/>
      <point x="604" y="947" type="curve"/>
    </contour>
    <contour>
      <point x="109" y="780" type="line"/>
      <point x="7" y="0" type="line"/>
      <point x="162" y="0" type="line"/>
      <point x="204" y="322" type="line"/>
      <point x="221" y="484" type="line"/>
      <point x="409" y="0" type="line"/>
      <point x="578" y="0" type="line"/>
      <point x="680" y="780" type="line"/>
      <point x="525" y="780" type="line"/>
      <point x="483" y="458" type="line"/>
      <point x="466" y="296" type="line"/>
      <point x="278" y="780" type="line"/>
    </contour>
  </outline>
</glyph>
<glyph name="Otilde" format="1">
  <advance width="673"/>
  <unicode hex="00D5"/>
  <outline>
    <contour>
      <point x="511" y="947" type="line"/>
      <point x="509" y="922"/>
      <point x="492" y="914"/>
      <point x="474" y="914" type="curve" smooth="yes"/>
      <point x="436" y="914"/>
      <point x="390" y="962"/>
      <point x="326" y="962" type="curve" smooth="yes"/>
      <point x="272" y="962"/>
      <point x="221" y="931"/>
      <point x="212" y="843" type="curve"/>
      <point x="297" y="843" type="line"/>
      <point x="299" y="868"/>
      <point x="316" y="876"/>
      <point x="334" y="876" type="curve" smooth="yes"/>
      <point x="372" y="876"/>
      <point x="418" y="828"/>
      <point x="482" y="828" type="curve" smooth="yes"/>
      <point x="536" y="828"/>
      <point x="587" y="859"/>
      <point x="596" y="947" type="curve"/>
    </contour>
    <contour>
      <point x="376" y="793" type="curve" smooth="yes"/>
      <point x="173" y="793"/>
      <point x="76" y="677"/>
      <point x="42" y="406" type="curve" smooth="yes"/>
      <point x="38" y="374" type="line" smooth="yes"/>
      <point x="4" y="102"/>
      <point x="97" y="-13"/>
      <point x="300" y="-13" type="curve" smooth="yes"/>
      <point x="503" y="-13"/>
      <point x="600" y="103"/>
      <point x="634" y="374" type="curve" smooth="yes"/>
      <point x="638" y="406" type="line" smooth="yes"/>
      <point x="672" y="678"/>
      <point x="579" y="793"/>
    </contour>
    <contour>
      <point x="299" y="127" type="line" smooth="yes"/>
      <point x="199" y="127"/>
      <point x="183" y="217"/>
      <point x="203" y="374" type="curve" smooth="yes"/>
      <point x="207" y="406" type="line" smooth="yes"/>
      <point x="227" y="563"/>
      <point x="268" y="653"/>
      <point x="367" y="653" type="curve" smooth="yes"/>
      <point x="377" y="653" type="line" smooth="yes"/>
      <point x="477" y="653"/>
      <point x="493" y="563"/>
      <point x="473" y="406" type="curve" smooth="yes"/>
      <point x="469" y="374" type="line" smooth="yes"/>
      <point x="449" y="217"/>
      <point x="408" y="127"/>
      <point x="309" y="127" type="curve" smooth="yes"/>
    </contour>
  </outline>
</glyph>
<glyph name="multiply" format="1">
  <advance width="600"/>
  <unicode hex="00D7"/>
  <outline>
    <contour>
      <point x="94" y="119" type="line"/>
      <point x="288" y="290" type="line"/>
      <point x="436" y="119" type="line"/>
      <point x="550" y="219" type="line"/>
      <point x="401" y="390" type="line"/>
      <point x="595" y="561" type="line"/>
      <point x="508" y="661" type="line"/>
      <point x="314" y="490" type="line"/>
      <point x="166" y="661" type="line"/>
      <point x="52" y="561" type="line"/>
      <point x="201" y="390" type="line"/>
      <point x="7" y="219" type="line"/>
    </contour>
  </outline>
</glyph>
<glyph name="Oslash" format="1">
  <advance width="670"/>
  <unicode hex="00D8"/>
  <outline>
    <contour>
      <point x="376" y="793" type="curve" smooth="yes"/>
      <point x="173" y="793"/>
      <point x="76" y="677"/>
      <point x="42" y="406" type="curve" smooth="yes"/>
      <point x="38" y="374" type="line" smooth="yes"/>
      <point x="23" y="253"/>
      <point x="32" y="163"/>
      <point x="66" y="101" type="curve"/>
      <point x="-11" y="0" type="line"/>
      <point x="88" y="0" type="line"/>
      <point x="118" y="39" type="line"/>
      <point x="162" y="3"/>
      <point x="223" y="-13"/>
      <point x="300" y="-13" type="curve" smooth="yes"/>
      <point x="503" y="-13"/>
      <point x="600" y="103"/>
      <point x="634" y="374" type="curve" smooth="yes"/>
      <point x="638" y="406" type="line" smooth="yes"/>
      <point x="653" y="527"/>
      <point x="644" y="617"/>
      <point x="610" y="679" type="curve"/>
      <point x="687" y="780" type="line"/>
      <point x="588" y="780" type="line"/>
      <point x="558" y="741" type="line"/>
      <point x="514" y="777"/>
      <point x="453" y="793"/>
    </contour>
    <contour>
      <point x="207" y="406" type="line" smooth="yes"/>
      <point x="227" y="563"/>
      <point x="268" y="653"/>
      <point x="367" y="653" type="curve" smooth="yes"/>
      <point x="377" y="653" type="line" smooth="yes"/>
      <point x="416" y="653"/>
      <point x="443" y="639"/>
      <point x="459" y="612" type="curve"/>
      <point x="196" y="270" type="line"/>
      <point x="195" y="301"/>
      <point x="198" y="335"/>
      <point x="203" y="374" type="curve" smooth="yes"/>
    </contour>
    <contour>
      <point x="299" y="127" type="line" smooth="yes"/>
      <point x="260" y="127"/>
      <point x="233" y="141"/>
      <point x="217" y="168" type="curve"/>
      <point x="480" y="510" type="line"/>
      <point x="481" y="479"/>
      <point x="478" y="445"/>
      <point x="473" y="406" type="curve" smooth="yes"/>
      <point x="469" y="374" type="line" smooth="yes"/>
      <point x="449" y="217"/>
      <point x="408" y="127"/>
      <point x="309" y="127" type="curve" smooth="yes"/>
    </contour>
  </outline>
</glyph>
<glyph name="Udieresis" format="1">
  <advance width="663"/>
  <unicode hex="00DC"/>
  <outline>
    <contour>
      <point x="385" y="945" type="line"/>
      <point x="252" y="945" type="line"/>
      <point x="239" y="845" type="line"/>
      <point x="372" y="845" type="line"/>
    </contour>
    <contour>
      <point x="560" y="945" type="line"/>
      <point x="427" y="945" type="line"/>
      <point x="414" y="845" type="line"/>
      <point x="547" y="845" type="line"/>
    </contour>
    <contour>
      <point x="293" y="-13" type="curve" smooth="yes"/>
      <point x="505" y="-13"/>
      <point x="573" y="78"/>
      <point x="595" y="247" type="curve" smooth="yes"/>
      <point x="665" y="780" type="line"/>
      <point x="503" y="780" type="line"/>
      <point x="434" y="252" type="line" smooth="yes"/>
      <point x="423" y="168"/>
      <point x="389" y="127"/>
      <point x="297" y="127" type="curve" smooth="yes"/>
      <point x="205" y="127"/>
      <point x="186" y="170"/>
      <point x="197" y="252" type="curve" smooth="yes"/>
      <point x="266" y="780" type="line"/>
      <point x="104" y="780" type="line"/>
      <point x="34" y="247" type="line" smooth="yes"/>
      <point x="12" y="77"/>
      <point x="81" y="-13"/>
    </contour>
  </outline>
</glyph>
<glyph name="Thorn" format="1">
  <advance width="609"/>
  <unicode hex="00DE"/>
  <outline>
    <contour>
      <point x="205" y="280" type="line"/>
      <point x="235" y="500" type="line"/>
      <point x="335" y="500" type="line" smooth="yes"/>
      <point x="379" y="500"/>
      <point x="435" y="482"/>
      <point x="423" y="394" type="curve" smooth="yes"/>
      <point x="421" y="379" type="line" smooth="yes"/>
      <point x="410" y="294"/>
      <point x="351" y="280"/>
      <point x="307" y="280" type="curve" smooth="yes"/>
    </contour>
    <contour>
      <point x="169" y="0" type="line"/>
      <point x="188" y="140" type="line"/>
      <point x="292" y="140" type="line" smooth="yes"/>
      <point x="419" y="140"/>
      <point x="556" y="170"/>
      <point x="584" y="375" type="curve" smooth="yes"/>
      <point x="587" y="398" type="line" smooth="yes"/>
      <point x="612" y="590"/>
      <point x="493" y="640"/>
      <point x="354" y="640" type="curve" smooth="yes"/>
      <point x="253" y="640" type="line"/>
      <point x="271" y="780" type="line"/>
      <point x="109" y="780" type="line"/>
      <point x="7" y="0" type="line"/>
    </contour>
  </outline>
</glyph>
<glyph name="germandbls" format="1">
  <advance width="632"/>
  <unicode hex="00DF"/>
  <outline>
    <contour>
      <point x="280" y="334" type="line"/>
      <point x="364" y="270" type="line" smooth="yes"/>
      <point x="414" y="232"/>
      <point x="426" y="201"/>
      <point x="426" y="171" type="curve" smooth="yes"/>
      <point x="426" y="139"/>
      <point x="415" y="107"/>
      <point x="385" y="107" type="curve" smooth="yes"/>
      <point x="354" y="107"/>
      <point x="344" y="129"/>
      <point x="351" y="168" type="curve"/>
      <point x="217" y="168" type="line"/>
      <point x="215" y="153" type="line" smooth="yes"/>
      <point x="204" y="71"/>
      <point x="223" y="-13"/>
      <point x="384" y="-13" type="curve" smooth="yes"/>
      <point x="515" y="-13"/>
      <point x="571" y="73"/>
      <point x="583" y="161" type="curve" smooth="yes"/>
      <point x="585" y="176" type="line" smooth="yes"/>
      <point x="596" y="257"/>
      <point x="557" y="317"/>
      <point x="475" y="379" type="curve" smooth="yes"/>
      <point x="450" y="398" type="line"/>
      <point x="519" y="444"/>
      <point x="564" y="495"/>
      <point x="575" y="581" type="curve" smooth="yes"/>
      <point x="577" y="596" type="line" smooth="yes"/>
      <point x="592" y="712"/>
      <point x="529" y="813"/>
      <point x="343" y="813" type="curve" smooth="yes"/>
      <point x="175" y="813"/>
      <point x="94" y="716"/>
      <point x="78" y="594" type="curve" smooth="yes"/>
      <point x="0" y="0" type="line"/>
      <point x="158" y="0" type="line"/>
      <point x="235" y="585" type="line" smooth="yes"/>
      <point x="242" y="635"/>
      <point x="270" y="677"/>
      <point x="333" y="677" type="curve" smooth="yes"/>
      <point x="393" y="677"/>
      <point x="417" y="645"/>
      <point x="417" y="598" type="curve" smooth="yes"/>
      <point x="417" y="526"/>
      <point x="368" y="472"/>
      <point x="293" y="434" type="curve"/>
    </contour>
  </outline>
</glyph>
<glyph name="atilde" format="1">
  <advance width="549"/>
  <unicode hex="00E3"/>
  <outline>
    <contour>
      <point x="422" y="772" type="line"/>
      <point x="422" y="746"/>
      <point x="404" y="735"/>
      <point x="388" y="735" type="curve" smooth="yes"/>
      <point x="346" y="735"/>
      <point x="300" y="787"/>
      <point x="232" y="787" type="curve" smooth="yes"/>
      <point x="174" y="787"/>
      <point x="115" y="739"/>
      <point x="106" y="628" type="curve"/>
      <point x="211" y="628" type="line"/>
      <point x="211" y="654"/>
      <point x="229" y="665"/>
      <point x="245" y="665" type="curve" smooth="yes"/>
      <point x="287" y="665"/>
      <point x="333" y="613"/>
      <point x="401" y="613" type="curve" smooth="yes"/>
      <point x="459" y="613"/>
      <point x="518" y="661"/>
      <point x="527" y="772" type="curve"/>
    </contour>
    <contour>
      <point x="320" y="0" type="line"/>
      <point x="461" y="0" type="line"/>
      <point x="471" y="149" type="line"/>
      <point x="496" y="341" type="line" smooth="yes"/>
      <point x="512" y="464"/>
      <point x="449" y="543"/>
      <point x="280" y="543" type="curve" smooth="yes"/>
      <point x="111" y="543"/>
      <point x="63" y="471"/>
      <point x="49" y="370" type="curve" smooth="yes"/>
      <point x="47" y="355" type="line"/>
      <point x="196" y="355" type="line"/>
      <point x="199" y="391"/>
      <point x="219" y="423"/>
      <point x="274" y="423" type="curve" smooth="yes"/>
      <point x="326" y="423"/>
      <point x="346" y="402"/>
      <point x="340" y="354" type="curve" smooth="yes"/>
      <point x="339" y="346" type="line"/>
      <point x="209" y="326" type="line" smooth="yes"/>
      <point x="90" y="308"/>
      <point x="17" y="280"/>
      <point x="1" y="163" type="curve" smooth="yes"/>
      <point x="-1" y="148" type="line" smooth="yes"/>
      <point x="-12" y="64"/>
      <point x="36" y="-13"/>
      <point x="155" y="-13" type="curve" smooth="yes"/>
      <point x="229" y="-13"/>
      <point x="274" y="15"/>
      <point x="320" y="59" type="curve"/>
    </contour>
    <contour>
      <point x="208" y="115" type="curve" smooth="yes"/>
      <point x="168" y="115"/>
      <point x="156" y="138"/>
      <point x="160" y="166" type="curve" smooth="yes"/>
      <point x="162" y="179" type="line" smooth="yes"/>
      <point x="166" y="203"/>
      <point x="183" y="230"/>
      <point x="229" y="237" type="curve" smooth="yes"/>
      <point x="327" y="252" type="line"/>
      <point x="315" y="163" type="line"/>
      <point x="297" y="142"/>
      <point x="266" y="115"/>
    </contour>
  </outline>
</glyph>
<glyph name="ae" format="1">
  <advance width="869"/>
  <unicode hex="00E6"/>
  <outline>
    <contour>
      <point x="817" y="208" type="line"/>
      <point x="823" y="255" type="line" smooth="yes"/>
      <point x="844" y="423"/>
      <point x="785" y="543"/>
      <point x="600" y="543" type="curve" smooth="yes"/>
      <point x="528" y="543"/>
      <point x="478" y="523"/>
      <point x="442" y="488" type="curve"/>
      <point x="415" y="523"/>
      <point x="364" y="543"/>
      <point x="280" y="543" type="curve" smooth="yes"/>
      <point x="111" y="543"/>
      <point x="63" y="471"/>
      <point x="49" y="370" type="curve" smooth="yes"/>
      <point x="47" y="355" type="line"/>
      <point x="196" y="355" type="line"/>
      <point x="199" y="391"/>
      <point x="219" y="423"/>
      <point x="274" y="423" type="curve" smooth="yes"/>
      <point x="326" y="423"/>
      <point x="346" y="402"/>
      <point x="340" y="354" type="curve" smooth="yes"/>
      <point x="339" y="346" type="line"/>
      <point x="209" y="326" type="line" smooth="yes"/>
      <point x="90" y="308"/>
      <point x="17" y="280"/>
      <point x="1" y="163" type="curve" smooth="yes"/>
      <point x="-1" y="148" type="line" smooth="yes"/>
      <point x="-12" y="64"/>
      <point x="36" y="-13"/>
      <point x="155" y="-13" type="curve" smooth="yes"/>
      <point x="220" y="-13"/>
      <point x="292" y="12"/>
      <point x="357" y="74" type="curve"/>
      <point x="394" y="19"/>
      <point x="462" y="-13"/>
      <point x="565" y="-13" type="curve" smooth="yes"/>
      <point x="717" y="-13"/>
      <point x="797" y="60"/>
      <point x="810" y="155" type="curve" smooth="yes"/>
      <point x="812" y="170" type="line"/>
      <point x="663" y="170" type="line"/>
      <point x="657" y="131"/>
      <point x="629" y="107"/>
      <point x="565" y="107" type="curve" smooth="yes"/>
      <point x="505" y="107"/>
      <point x="467" y="135"/>
      <point x="476" y="208" type="curve"/>
    </contour>
    <contour>
      <point x="208" y="115" type="curve" smooth="yes"/>
      <point x="168" y="115"/>
      <point x="156" y="138"/>
      <point x="160" y="166" type="curve" smooth="yes"/>
      <point x="162" y="179" type="line" smooth="yes"/>
      <point x="166" y="203"/>
      <point x="183" y="230"/>
      <point x="229" y="237" type="curve" smooth="yes"/>
      <point x="327" y="252" type="line"/>
      <point x="326" y="246" type="line" smooth="yes"/>
      <point x="322" y="220"/>
      <point x="322" y="196"/>
      <point x="324" y="173" type="curve"/>
      <point x="297" y="137"/>
      <point x="261" y="115"/>
    </contour>
    <contour>
      <point x="600" y="423" type="curve" smooth="yes"/>
      <point x="656" y="423"/>
      <point x="679" y="388"/>
      <point x="674" y="322" type="curve"/>
      <point x="491" y="322" type="line"/>
      <point x="503" y="390"/>
      <point x="543" y="423"/>
    </contour>
  </outline>
</glyph>
<glyph name="ccedilla" format="1">
  <advance width="527"/>
  <unicode hex="00E7"/>
  <outline>
    <contour>
      <point x="176" y="284" type="line" smooth="yes"/>
      <point x="187" y="370"/>
      <point x="224" y="407"/>
      <point x="277" y="407" type="curve" smooth="yes"/>
      <point x="331" y="407"/>
      <point x="348" y="371"/>
      <point x="342" y="324" type="curve"/>
      <point x="491" y="324" type="line"/>
      <point x="493" y="339" type="line" smooth="yes"/>
      <point x="510" y="468"/>
      <point x="438" y="543"/>
      <point x="282" y="543" type="curve" smooth="yes"/>
      <point x="118" y="543"/>
      <point x="39" y="440"/>
      <point x="18" y="284" type="curve" smooth="yes"/>
      <point x="13" y="246" type="line" smooth="yes"/>
      <point x="-4" y="113"/>
      <point x="49" y="12"/>
      <point x="180" y="-9" type="curve"/>
      <point x="146" y="-72" type="line"/>
      <point x="157" y="-100" type="line"/>
      <point x="157" y="-100"/>
      <point x="178" y="-95"/>
      <point x="196" y="-95" type="curve" smooth="yes"/>
      <point x="226" y="-95"/>
      <point x="241" y="-102"/>
      <point x="241" y="-116" type="curve" smooth="yes"/>
      <point x="241" y="-131"/>
      <point x="227" y="-141"/>
      <point x="195" y="-141" type="curve" smooth="yes"/>
      <point x="165" y="-141"/>
      <point x="136" y="-134"/>
      <point x="121" y="-124" type="curve"/>
      <point x="89" y="-190" type="line"/>
      <point x="107" y="-202"/>
      <point x="144" y="-215"/>
      <point x="200" y="-215" type="curve" smooth="yes"/>
      <point x="275" y="-215"/>
      <point x="326" y="-178"/>
      <point x="326" y="-118" type="curve" smooth="yes"/>
      <point x="326" y="-65"/>
      <point x="288" y="-44"/>
      <point x="236" y="-40" type="curve"/>
      <point x="250" y="-13" type="line"/>
      <point x="386" y="-8"/>
      <point x="456" y="63"/>
      <point x="472" y="181" type="curve" smooth="yes"/>
      <point x="474" y="196" type="line"/>
      <point x="325" y="196" type="line"/>
      <point x="320" y="157"/>
      <point x="291" y="123"/>
      <point x="240" y="123" type="curve" smooth="yes"/>
      <point x="179" y="123"/>
      <point x="160" y="166"/>
      <point x="171" y="246" type="curve" smooth="yes"/>
    </contour>
  </outline>
</glyph>
<glyph name="ecircumflex" format="1">
  <advance width="556"/>
  <unicode hex="00EA"/>
  <outline>
    <contour>
      <point x="520" y="596" type="line"/>
      <point x="410" y="780" type="line"/>
      <point x="258" y="780" type="line"/>
      <point x="100" y="596" type="line"/>
      <point x="241" y="596" type="line"/>
      <point x="324" y="679" type="line"/>
      <point x="385" y="596" type="line"/>
    </contour>
    <contour>
      <point x="504" y="208" type="line"/>
      <point x="510" y="255" type="line" smooth="yes"/>
      <point x="531" y="423"/>
      <point x="472" y="543"/>
      <point x="287" y="543" type="curve" smooth="yes"/>
      <point x="119" y="543"/>
      <point x="37" y="432"/>
      <point x="18" y="284" type="curve" smooth="yes"/>
      <point x="13" y="246" type="line" smooth="yes"/>
      <point x="-7" y="97"/>
      <point x="64" y="-13"/>
      <point x="252" y="-13" type="curve" smooth="yes"/>
      <point x="404" y="-13"/>
      <point x="484" y="60"/>
      <point x="497" y="155" type="curve" smooth="yes"/>
      <point x="499" y="170" type="line"/>
      <point x="350" y="170" type="line"/>
      <point x="344" y="131"/>
      <point x="316" y="107"/>
      <point x="252" y="107" type="curve" smooth="yes"/>
      <point x="192" y="107"/>
      <point x="154" y="135"/>
      <point x="163" y="208" type="curve"/>
    </contour>
    <contour>
      <point x="287" y="423" type="curve" smooth="yes"/>
      <point x="343" y="423"/>
      <point x="366" y="388"/>
      <point x="361" y="322" type="curve"/>
      <point x="178" y="322" type="line"/>
      <point x="190" y="390"/>
      <point x="230" y="423"/>
    </contour>
  </outline>
</glyph>
<glyph name="igrave" format="1">
  <advance width="266"/>
  <unicode hex="00EC"/>
  <outline>
    <contour>
      <point x="1" y="780" type="line"/>
      <point x="84" y="596" type="line"/>
      <point x="240" y="596" type="line"/>
      <point x="173" y="780" type="line"/>
    </contour>
    <contour>
      <point x="5" y="0" type="line"/>
      <point x="163" y="0" type="line"/>
      <point x="232" y="530" type="line"/>
      <point x="74" y="530" type="line"/>
    </contour>
  </outline>
</glyph>
<glyph name="iacute" format="1">
  <advance width="265"/>
  <unicode hex="00ED"/>
  <outline>
    <contour>
      <point x="199" y="780" type="line"/>
      <point x="84" y="596" type="line"/>
      <point x="240" y="596" type="line"/>
      <point x="371" y="780" type="line"/>
    </contour>
    <contour>
      <point x="5" y="0" type="line"/>
      <point x="163" y="0" type="line"/>
      <point x="232" y="530" type="line"/>
      <point x="74" y="530" type="line"/>
    </contour>
  </outline>
</glyph>
<glyph name="icircumflex" format="1">
  <advance width="265"/>
  <unicode hex="00EE"/>
  <outline>
    <contour>
      <point x="372" y="596" type="line"/>
      <point x="262" y="780" type="line"/>
      <point x="110" y="780" type="line"/>
      <point x="-48" y="596" type="line"/>
      <point x="93" y="596" type="line"/>
      <point x="176" y="679" type="line"/>
      <point x="237" y="596" type="line"/>
    </contour>
    <contour>
      <point x="5" y="0" type="line"/>
      <point x="163" y="0" type="line"/>
      <point x="232" y="530" type="line"/>
      <point x="74" y="530" type="line"/>
    </contour>
  </outline>
</glyph>
<glyph name="idieresis" format="1">
  <advance width="265"/>
  <unicode hex="00EF"/>
  <outline>
    <contour>
      <point x="161" y="772" type="line"/>
      <point x="-6" y="772" type="line"/>
      <point x="-28" y="605" type="line"/>
      <point x="139" y="605" type="line"/>
    </contour>
    <contour>
      <point x="376" y="772" type="line"/>
      <point x="209" y="772" type="line"/>
      <point x="187" y="605" type="line"/>
      <point x="354" y="605" type="line"/>
    </contour>
    <contour>
      <point x="5" y="0" type="line"/>
      <point x="163" y="0" type="line"/>
      <point x="232" y="530" type="line"/>
      <point x="74" y="530" type="line"/>
    </contour>
  </outline>
</glyph>
<glyph name="eth" format="1">
  <advance width="556"/>
  <unicode hex="00F0"/>
  <outline>
    <contour>
      <point x="70" y="673" type="line"/>
      <point x="110" y="669"/>
      <point x="146" y="663"/>
      <point x="179" y="653" type="curve"/>
      <point x="89" y="607" type="line"/>
      <point x="78" y="518" type="line"/>
      <point x="267" y="616" type="line"/>
      <point x="298" y="598"/>
      <point x="326" y="566"/>
      <point x="343" y="533" type="curve"/>
      <point x="323" y="540"/>
      <point x="310" y="543"/>
      <point x="275" y="543" type="curve" smooth="yes"/>
      <point x="123" y="543"/>
      <point x="39" y="440"/>
      <point x="18" y="284" type="curve" smooth="yes"/>
      <point x="13" y="246" type="line" smooth="yes"/>
      <point x="-7" y="96"/>
      <point x="67" y="-13"/>
      <point x="242" y="-13" type="curve" smooth="yes"/>
      <point x="410" y="-13"/>
      <point x="488" y="90"/>
      <point x="509" y="246" type="curve" smooth="yes"/>
      <point x="514" y="284" type="line" smooth="yes"/>
      <point x="533" y="428"/>
      <point x="525" y="595"/>
      <point x="423" y="697" type="curve"/>
      <point x="476" y="724" type="line"/>
      <point x="487" y="813" type="line"/>
      <point x="359" y="746" type="line"/>
      <point x="284" y="789"/>
      <point x="190" y="806"/>
      <point x="89" y="813" type="curve"/>
    </contour>
    <contour>
      <point x="247" y="123" type="curve" smooth="yes"/>
      <point x="182" y="123"/>
      <point x="160" y="166"/>
      <point x="171" y="246" type="curve" smooth="yes"/>
      <point x="176" y="284" type="line" smooth="yes"/>
      <point x="187" y="370"/>
      <point x="222" y="407"/>
      <point x="280" y="407" type="curve" smooth="yes"/>
      <point x="345" y="407"/>
      <point x="367" y="364"/>
      <point x="356" y="284" type="curve" smooth="yes"/>
      <point x="351" y="246" type="line" smooth="yes"/>
      <point x="340" y="160"/>
      <point x="305" y="123"/>
    </contour>
  </outline>
</glyph>
<glyph name="ntilde" format="1">
  <advance width="580"/>
  <unicode hex="00F1"/>
  <outline>
    <contour>
      <point x="441" y="772" type="line"/>
      <point x="441" y="746"/>
      <point x="423" y="735"/>
      <point x="407" y="735" type="curve" smooth="yes"/>
      <point x="365" y="735"/>
      <point x="319" y="787"/>
      <point x="251" y="787" type="curve" smooth="yes"/>
      <point x="193" y="787"/>
      <point x="134" y="739"/>
      <point x="125" y="628" type="curve"/>
      <point x="230" y="628" type="line"/>
      <point x="230" y="654"/>
      <point x="248" y="665"/>
      <point x="264" y="665" type="curve" smooth="yes"/>
      <point x="306" y="665"/>
      <point x="352" y="613"/>
      <point x="420" y="613" type="curve" smooth="yes"/>
      <point x="478" y="613"/>
      <point x="537" y="661"/>
      <point x="546" y="772" type="curve"/>
    </contour>
    <contour>
      <point x="483" y="0" type="line"/>
      <point x="530" y="358" type="line" smooth="yes"/>
      <point x="544" y="464"/>
      <point x="502" y="543"/>
      <point x="375" y="543" type="curve" smooth="yes"/>
      <point x="305" y="543"/>
      <point x="246" y="508"/>
      <point x="206" y="460" type="curve"/>
      <point x="206" y="530" type="line"/>
      <point x="65" y="530" type="line"/>
      <point x="55" y="381" type="line"/>
      <point x="5" y="0" type="line"/>
      <point x="163" y="0" type="line"/>
      <point x="210" y="358" type="line"/>
      <point x="227" y="379"/>
      <point x="265" y="407"/>
      <point x="310" y="407" type="curve" smooth="yes"/>
      <point x="358" y="407"/>
      <point x="375" y="381"/>
      <point x="369" y="335" type="curve" smooth="yes"/>
      <point x="325" y="0" type="line"/>
    </contour>
  </outline>
</glyph>
<glyph name="ocircumflex" format="1">
  <advance width="556"/>
  <unicode hex="00F4"/>
  <outline>
    <contour>
      <point x="517" y="596" type="line"/>
      <point x="407" y="780" type="line"/>
      <point x="255" y="780" type="line"/>
      <point x="97" y="596" type="line"/>
      <point x="238" y="596" type="line"/>
      <point x="321" y="679" type="line"/>
      <point x="382" y="596" type="line"/>
    </contour>
    <contour>
      <point x="247" y="123" type="curve" smooth="yes"/>
      <point x="182" y="123"/>
      <point x="160" y="166"/>
      <point x="171" y="246" type="curve" smooth="yes"/>
      <point x="176" y="284" type="line" smooth="yes"/>
      <point x="187" y="370"/>
      <point x="222" y="407"/>
      <point x="280" y="407" type="curve" smooth="yes"/>
      <point x="345" y="407"/>
      <point x="367" y="364"/>
      <point x="356" y="284" type="curve" smooth="yes"/>
      <point x="351" y="246" type="line" smooth="yes"/>
      <point x="340" y="160"/>
      <point x="305" y="123"/>
    </contour>
    <contour>
      <point x="242" y="-13" type="curve" smooth="yes"/>
      <point x="410" y="-13"/>
      <point x="488" y="90"/>
      <point x="509" y="246" type="curve" smooth="yes"/>
      <point x="514" y="284" type="line" smooth="yes"/>
      <point x="534" y="434"/>
      <point x="460" y="543"/>
      <point x="285" y="543" type="curve" smooth="yes"/>
      <point x="117" y="543"/>
      <point x="38" y="440"/>
      <point x="18" y="284" type="curve" smooth="yes"/>
      <point x="13" y="246" type="line" smooth="yes"/>
      <point x="-7" y="96"/>
      <point x="67" y="-13"/>
    </contour>
  </outline>
</glyph>
<glyph name="otilde" format="1">
  <advance width="556"/>
  <unicode hex="00F5"/>
  <outline>
    <contour>
      <point x="426" y="772" type="line"/>
      <point x="426" y="746"/>
      <point x="408" y="735"/>
      <point x="392" y="735" type="curve" smooth="yes"/>
      <point x="350" y="735"/>
      <point x="304" y="787"/>
      <point x="236" y="787" type="curve" smooth="yes"/>
      <point x="178" y="787"/>
      <point x="119" y="739"/>
      <point x="110" y="628" type="curve"/>
      <point x="215" y="628" type="line"/>
      <point x="215" y="654"/>
      <point x="233" y="665"/>
      <point x="249" y="665" type="curve" smooth="yes"/>
      <point x="291" y="665"/>
      <point x="337" y="613"/>
      <point x="405" y="613" type="curve" smooth="yes"/>
      <point x="463" y="613"/>
      <point x="522" y="661"/>
      <point x="531" y="772" type="curve"/>
    </contour>
    <contour>
      <point x="247" y="123" type="curve" smooth="yes"/>
      <point x="182" y="123"/>
      <point x="160" y="166"/>
      <point x="171" y="246" type="curve" smooth="yes"/>
      <point x="176" y="284" type="line" smooth="yes"/>
      <point x="187" y="370"/>
      <point x="222" y="407"/>
      <point x="280" y="407" type="curve" smooth="yes"/>
      <point x="345" y="407"/>
      <point x="367" y="364"/>
      <point x="356" y="284" type="curve" smooth="yes"/>
      <point x="351" y="246" type="line" smooth="yes"/>
      <point x="340" y="160"/>
      <point x="305" y="123"/>
    </contour>
    <contour>
      <point x="242" y="-13" type="curve" smooth="yes"/>
      <point x="410" y="-13"/>
      <point x="488" y="90"/>
      <point x="509" y="246" type="curve" smooth="yes"/>
      <point x="514" y="284" type="line" smooth="yes"/>
      <point x="534" y="434"/>
      <point x="460" y="543"/>
      <point x="285" y="543" type="curve" smooth="yes"/>
      <point x="117" y="543"/>
      <point x="38" y="440"/>
      <point x="18" y="284" type="curve" smooth="yes"/>
      <point x="13" y="246" type="line" smooth="yes"/>
      <point x="-7" y="96"/>
      <point x="67" y="-13"/>
    </contour>
  </outline>
</glyph>
<glyph name="divide" format="1">
  <advance width="600"/>
  <unicode hex="00F7"/>
  <outline>
    <contour>
      <point x="34" y="320" type="line"/>
      <point x="550" y="320" type="line"/>
      <point x="568" y="460" type="line"/>
      <point x="52" y="460" type="line"/>
    </contour>
    <contour>
      <point x="423" y="681" type="line"/>
      <point x="256" y="681" type="line"/>
      <point x="234" y="514" type="line"/>
      <point x="401" y="514" type="line"/>
    </contour>
    <contour>
      <point x="179" y="99" type="line"/>
      <point x="346" y="99" type="line"/>
      <point x="368" y="266" type="line"/>
      <point x="201" y="266" type="line"/>
    </contour>
  </outline>
</glyph>
<glyph name="oslash" format="1">
  <advance width="556"/>
  <unicode hex="00F8"/>
  <outline>
    <contour>
      <point x="176" y="284" type="line" smooth="yes"/>
      <point x="187" y="370"/>
      <point x="222" y="407"/>
      <point x="280" y="407" type="curve" smooth="yes"/>
      <point x="303" y="407"/>
      <point x="321" y="402"/>
      <point x="334" y="391" type="curve"/>
      <point x="168" y="207" type="line"/>
      <point x="168" y="219"/>
      <point x="169" y="232"/>
      <point x="171" y="246" type="curve" smooth="yes"/>
    </contour>
    <contour>
      <point x="247" y="123" type="curve" smooth="yes"/>
      <point x="224" y="123"/>
      <point x="206" y="128"/>
      <point x="193" y="139" type="curve"/>
      <point x="359" y="323" type="line"/>
      <point x="359" y="311"/>
      <point x="358" y="298"/>
      <point x="356" y="284" type="curve" smooth="yes"/>
      <point x="351" y="246" type="line" smooth="yes"/>
      <point x="340" y="160"/>
      <point x="305" y="123"/>
    </contour>
    <contour>
      <point x="91" y="27" type="line"/>
      <point x="130" y="0"/>
      <point x="179" y="-13"/>
      <point x="242" y="-13" type="curve" smooth="yes"/>
      <point x="410" y="-13"/>
      <point x="489" y="90"/>
      <point x="509" y="246" type="curve" smooth="yes"/>
      <point x="514" y="284" type="line" smooth="yes"/>
      <point x="523" y="353"/>
      <point x="512" y="414"/>
      <point x="481" y="459" type="curve"/>
      <point x="546" y="530" type="line"/>
      <point x="460" y="530" type="line"/>
      <point x="436" y="503" type="line"/>
      <point x="397" y="530"/>
      <point x="348" y="543"/>
      <point x="285" y="543" type="curve" smooth="yes"/>
      <point x="117" y="543"/>
      <point x="38" y="440"/>
      <point x="18" y="284" type="curve" smooth="yes"/>
      <point x="13" y="246" type="line" smooth="yes"/>
      <point x="4" y="177"/>
      <point x="15" y="116"/>
      <point x="46" y="71" type="curve"/>
      <point x="-19" y="0" type="line"/>
      <point x="67" y="0" type="line"/>
    </contour>
  </outline>
</glyph>
<glyph name="ucircumflex" format="1">
  <advance width="580"/>
  <unicode hex="00FB"/>
  <outline>
    <contour>
      <point x="525" y="596" type="line"/>
      <point x="415" y="780" type="line"/>
      <point x="263" y="780" type="line"/>
      <point x="105" y="596" type="line"/>
      <point x="246" y="596" type="line"/>
      <point x="329" y="679" type="line"/>
      <point x="390" y="596" type="line"/>
    </contour>
    <contour>
      <point x="68" y="530" type="line"/>
      <point x="21" y="172" type="line" smooth="yes"/>
      <point x="7" y="66"/>
      <point x="49" y="-13"/>
      <point x="176" y="-13" type="curve" smooth="yes"/>
      <point x="246" y="-13"/>
      <point x="305" y="22"/>
      <point x="345" y="70" type="curve"/>
      <point x="345" y="0" type="line"/>
      <point x="486" y="0" type="line"/>
      <point x="496" y="149" type="line"/>
      <point x="546" y="530" type="line"/>
      <point x="388" y="530" type="line"/>
      <point x="341" y="172" type="line"/>
      <point x="324" y="151"/>
      <point x="286" y="123"/>
      <point x="241" y="123" type="curve" smooth="yes"/>
      <point x="193" y="123"/>
      <point x="176" y="149"/>
      <point x="182" y="195" type="curve" smooth="yes"/>
      <point x="226" y="530" type="line"/>
    </contour>
  </outline>
</glyph>
<glyph name="yacute" format="1">
  <advance width="551"/>
  <unicode hex="00FD"/>
  <outline>
    <contour>
      <point x="343" y="780" type="line"/>
      <point x="228" y="596" type="line"/>
      <point x="384" y="596" type="line"/>
      <point x="515" y="780" type="line"/>
    </contour>
    <contour>
      <point x="251" y="192" type="line"/>
      <point x="194" y="530" type="line"/>
      <point x="25" y="530" type="line"/>
      <point x="145" y="28" type="line"/>
      <point x="30" y="-200" type="line"/>
      <point x="218" y="-200" type="line"/>
      <point x="316" y="28" type="line"/>
      <point x="569" y="530" type="line"/>
      <point x="394" y="530" type="line"/>
    </contour>
  </outline>
</glyph>
<glyph name="thorn" format="1">
  <advance width="574"/>
  <unicode hex="00FE"/>
  <outline>
    <contour>
      <point x="108" y="800" type="line"/>
      <point x="-24" y="-200" type="line"/>
      <point x="134" y="-200" type="line"/>
      <point x="167" y="46" type="line"/>
      <point x="183" y="21"/>
      <point x="227" y="-13"/>
      <point x="302" y="-13" type="curve" smooth="yes"/>
      <point x="439" y="-13"/>
      <point x="507" y="93"/>
      <point x="527" y="246" type="curve" smooth="yes"/>
      <point x="532" y="284" type="line" smooth="yes"/>
      <point x="553" y="442"/>
      <point x="497" y="543"/>
      <point x="362" y="543" type="curve" smooth="yes"/>
      <point x="299" y="543"/>
      <point x="255" y="522"/>
      <point x="225" y="488" type="curve"/>
      <point x="266" y="800" type="line"/>
    </contour>
    <contour>
      <point x="265" y="123" type="curve" smooth="yes"/>
      <point x="218" y="123"/>
      <point x="194" y="155"/>
      <point x="184" y="175" type="curve"/>
      <point x="208" y="358" type="line"/>
      <point x="223" y="377"/>
      <point x="249" y="407"/>
      <point x="300" y="407" type="curve" smooth="yes"/>
      <point x="359" y="407"/>
      <point x="385" y="365"/>
      <point x="374" y="284" type="curve" smooth="yes"/>
      <point x="369" y="246" type="line" smooth="yes"/>
      <point x="359" y="166"/>
      <point x="327" y="123"/>
    </contour>
  </outline>
</glyph>
<glyph name="ydieresis" format="1">
  <advance width="551"/>
  <unicode hex="00FF"/>
  <outline>
    <contour>
      <point x="305" y="772" type="line"/>
      <point x="138" y="772" type="line"/>
      <point x="116" y="605" type="line"/>
      <point x="283" y="605" type="line"/>
    </contour>
    <contour>
      <point x="520" y="772" type="line"/>
      <point x="353" y="772" type="line"/>
      <point x="331" y="605" type="line"/>
      <point x="498" y="605" type="line"/>
    </contour>
    <contour>
      <point x="251" y="192" type="line"/>
      <point x="194" y="530" type="line"/>
      <point x="25" y="530" type="line"/>
      <point x="145" y="28" type="line"/>
      <point x="30" y="-200" type="line"/>
      <point x="218" y="-200" type="line"/>
      <point x="316" y="28" type="line"/>
      <point x="569" y="530" type="line"/>
      <point x="394" y="530" type="line"/>
    </contour>
  </outline>
</glyph>
<glyph name="Amacron" format="1">
  <advance width="641"/>
  <unicode hex="0100"/>
  <outline>
    <contour>
      <point x="233" y="847" type="line"/>
      <point x="531" y="847" type="line"/>
      <point x="544" y="943" type="line"/>
      <point x="246" y="943" type="line"/>
    </contour>
    <contour>
      <point x="262" y="782" type="line"/>
      <point x="-35" y="0" type="line"/>
      <point x="139" y="0" type="line"/>
      <point x="199" y="168" type="line"/>
      <point x="389" y="168" type="line"/>
      <point x="404" y="0" type="line"/>
      <point x="578" y="0" type="line"/>
      <point x="485" y="782" type="line"/>
    </contour>
    <contour>
      <point x="351" y="601" type="line"/>
      <point x="376" y="308" type="line"/>
      <point x="248" y="308" type="line"/>
    </contour>
  </outline>
</glyph>
<glyph name="amacron" format="1">
  <advance width="549"/>
  <unicode hex="0101"/>
  <outline>
    <contour>
      <point x="156" y="619" type="line"/>
      <point x="456" y="619" type="line"/>
      <point x="474" y="757" type="line"/>
      <point x="174" y="757" type="line"/>
    </contour>
    <contour>
      <point x="320" y="0" type="line"/>
      <point x="461" y="0" type="line"/>
      <point x="471" y="149" type="line"/>
      <point x="496" y="341" type="line" smooth="yes"/>
      <point x="512" y="464"/>
      <point x="449" y="543"/>
      <point x="280" y="543" type="curve" smooth="yes"/>
      <point x="111" y="543"/>
      <point x="63" y="471"/>
      <point x="49" y="370" type="curve" smooth="yes"/>
      <point x="47" y="355" type="line"/>
      <point x="196" y="355" type="line"/>
      <point x="199" y="391"/>
      <point x="219" y="423"/>
      <point x="274" y="423" type="curve" smooth="yes"/>
      <point x="326" y="423"/>
      <point x="346" y="402"/>
      <point x="340" y="354" type="curve" smooth="yes"/>
      <point x="339" y="346" type="line"/>
      <point x="209" y="326" type="line" smooth="yes"/>
      <point x="90" y="308"/>
      <point x="17" y="280"/>
      <point x="1" y="163" type="curve" smooth="yes"/>
      <point x="-1" y="148" type="line" smooth="yes"/>
      <point x="-12" y="64"/>
      <point x="36" y="-13"/>
      <point x="155" y="-13" type="curve" smooth="yes"/>
      <point x="229" y="-13"/>
      <point x="274" y="15"/>
      <point x="320" y="59" type="curve"/>
    </contour>
    <contour>
      <point x="208" y="115" type="curve" smooth="yes"/>
      <point x="168" y="115"/>
      <point x="156" y="138"/>
      <point x="160" y="166" type="curve" smooth="yes"/>
      <point x="162" y="179" type="line" smooth="yes"/>
      <point x="166" y="203"/>
      <point x="183" y="230"/>
      <point x="229" y="237" type="curve" smooth="yes"/>
      <point x="327" y="252" type="line"/>
      <point x="315" y="163" type="line"/>
      <point x="297" y="142"/>
      <point x="266" y="115"/>
    </contour>
  </outline>
</glyph>
<glyph name="Abreve" format="1">
  <advance width="641"/>
  <unicode hex="0102"/>
  <outline>
    <contour>
      <point x="384" y="825" type="curve" smooth="yes"/>
      <point x="531" y="825"/>
      <point x="570" y="882"/>
      <point x="579" y="950" type="curve"/>
      <point x="468" y="950" type="line"/>
      <point x="467" y="923"/>
      <point x="436" y="910"/>
      <point x="388" y="910" type="curve" smooth="yes"/>
      <point x="340" y="910"/>
      <point x="319" y="923"/>
      <point x="320" y="950" type="curve"/>
      <point x="213" y="950" type="line"/>
      <point x="206" y="882"/>
      <point x="239" y="825"/>
    </contour>
    <contour>
      <point x="262" y="782" type="line"/>
      <point x="-35" y="0" type="line"/>
      <point x="139" y="0" type="line"/>
      <point x="199" y="168" type="line"/>
      <point x="389" y="168" type="line"/>
      <point x="404" y="0" type="line"/>
      <point x="578" y="0" type="line"/>
      <point x="485" y="782" type="line"/>
    </contour>
    <contour>
      <point x="351" y="601" type="line"/>
      <point x="376" y="308" type="line"/>
      <point x="248" y="308" type="line"/>
    </contour>
  </outline>
</glyph>
<glyph name="abreve" format="1">
  <advance width="549"/>
  <unicode hex="0103"/>
  <outline>
    <contour>
      <point x="301" y="582" type="curve" smooth="yes"/>
      <point x="441" y="582"/>
      <point x="501" y="666"/>
      <point x="514" y="780" type="curve"/>
      <point x="399" y="780" type="line"/>
      <point x="391" y="721"/>
      <point x="358" y="702"/>
      <point x="315" y="702" type="curve" smooth="yes"/>
      <point x="272" y="702"/>
      <point x="243" y="721"/>
      <point x="251" y="780" type="curve"/>
      <point x="140" y="780" type="line"/>
      <point x="123" y="666"/>
      <point x="161" y="582"/>
    </contour>
    <contour>
      <point x="320" y="0" type="line"/>
      <point x="461" y="0" type="line"/>
      <point x="471" y="149" type="line"/>
      <point x="496" y="341" type="line" smooth="yes"/>
      <point x="512" y="464"/>
      <point x="449" y="543"/>
      <point x="280" y="543" type="curve" smooth="yes"/>
      <point x="111" y="543"/>
      <point x="63" y="471"/>
      <point x="49" y="370" type="curve" smooth="yes"/>
      <point x="47" y="355" type="line"/>
      <point x="196" y="355" type="line"/>
      <point x="199" y="391"/>
      <point x="219" y="423"/>
      <point x="274" y="423" type="curve" smooth="yes"/>
      <point x="326" y="423"/>
      <point x="346" y="402"/>
      <point x="340" y="354" type="curve" smooth="yes"/>
      <point x="339" y="346" type="line"/>
      <point x="209" y="326" type="line" smooth="yes"/>
      <point x="90" y="308"/>
      <point x="17" y="280"/>
      <point x="1" y="163" type="curve" smooth="yes"/>
      <point x="-1" y="148" type="line" smooth="yes"/>
      <point x="-12" y="64"/>
      <point x="36" y="-13"/>
      <point x="155" y="-13" type="curve" smooth="yes"/>
      <point x="229" y="-13"/>
      <point x="274" y="15"/>
      <point x="320" y="59" type="curve"/>
    </contour>
    <contour>
      <point x="208" y="115" type="curve" smooth="yes"/>
      <point x="168" y="115"/>
      <point x="156" y="138"/>
      <point x="160" y="166" type="curve" smooth="yes"/>
      <point x="162" y="179" type="line" smooth="yes"/>
      <point x="166" y="203"/>
      <point x="183" y="230"/>
      <point x="229" y="237" type="curve" smooth="yes"/>
      <point x="327" y="252" type="line"/>
      <point x="315" y="163" type="line"/>
      <point x="297" y="142"/>
      <point x="266" y="115"/>
    </contour>
  </outline>
</glyph>
<glyph name="Aogonek" format="1">
  <advance width="641"/>
  <unicode hex="0104"/>
  <outline>
    <contour>
      <point x="262" y="782" type="line"/>
      <point x="-35" y="0" type="line"/>
      <point x="139" y="0" type="line"/>
      <point x="199" y="168" type="line"/>
      <point x="389" y="168" type="line"/>
      <point x="404" y="0" type="line"/>
      <point x="440" y="0" type="line"/>
      <point x="406" y="-31"/>
      <point x="383" y="-72"/>
      <point x="383" y="-120" type="curve" smooth="yes"/>
      <point x="383" y="-185"/>
      <point x="431" y="-215"/>
      <point x="510" y="-215" type="curve" smooth="yes"/>
      <point x="547" y="-215"/>
      <point x="589" y="-203"/>
      <point x="611" y="-190" type="curve"/>
      <point x="588" y="-94" type="line"/>
      <point x="579" y="-99"/>
      <point x="564" y="-105"/>
      <point x="545" y="-105" type="curve" smooth="yes"/>
      <point x="520" y="-105"/>
      <point x="506" y="-94"/>
      <point x="506" y="-75" type="curve" smooth="yes"/>
      <point x="506" y="-35"/>
      <point x="545" y="-10"/>
      <point x="578" y="0" type="curve"/>
      <point x="485" y="782" type="line"/>
    </contour>
    <contour>
      <point x="351" y="601" type="line"/>
      <point x="376" y="308" type="line"/>
      <point x="248" y="308" type="line"/>
    </contour>
  </outline>
</glyph>
<glyph name="aogonek" format="1">
  <advance width="549"/>
  <unicode hex="0105"/>
  <outline>
    <contour>
      <point x="461" y="0" type="curve"/>
      <point x="471" y="149" type="line"/>
      <point x="496" y="341" type="line" smooth="yes"/>
      <point x="512" y="464"/>
      <point x="449" y="543"/>
      <point x="280" y="543" type="curve" smooth="yes"/>
      <point x="111" y="543"/>
      <point x="63" y="471"/>
      <point x="49" y="370" type="curve" smooth="yes"/>
      <point x="47" y="355" type="line"/>
      <point x="196" y="355" type="line"/>
      <point x="199" y="391"/>
      <point x="219" y="423"/>
      <point x="274" y="423" type="curve" smooth="yes"/>
      <point x="326" y="423"/>
      <point x="346" y="402"/>
      <point x="340" y="354" type="curve" smooth="yes"/>
      <point x="339" y="346" type="line"/>
      <point x="209" y="326" type="line" smooth="yes"/>
      <point x="90" y="308"/>
      <point x="17" y="280"/>
      <point x="1" y="163" type="curve" smooth="yes"/>
      <point x="-1" y="148" type="line" smooth="yes"/>
      <point x="-12" y="64"/>
      <point x="36" y="-13"/>
      <point x="155" y="-13" type="curve" smooth="yes"/>
      <point x="229" y="-13"/>
      <point x="274" y="15"/>
      <point x="320" y="59" type="curve"/>
      <point x="320" y="-3" type="line"/>
      <point x="288" y="-34"/>
      <point x="266" y="-73"/>
      <point x="266" y="-120" type="curve" smooth="yes"/>
      <point x="266" y="-185"/>
      <point x="314" y="-215"/>
      <point x="393" y="-215" type="curve" smooth="yes"/>
      <point x="430" y="-215"/>
      <point x="472" y="-203"/>
      <point x="494" y="-190" type="curve"/>
      <point x="471" y="-94" type="line"/>
      <point x="462" y="-99"/>
      <point x="447" y="-105"/>
      <point x="428" y="-105" type="curve" smooth="yes"/>
      <point x="403" y="-105"/>
      <point x="389" y="-94"/>
      <point x="389" y="-75" type="curve" smooth="yes"/>
      <point x="389" y="-35"/>
      <point x="428" y="-10"/>
    </contour>
    <contour>
      <point x="208" y="115" type="curve" smooth="yes"/>
      <point x="168" y="115"/>
      <point x="156" y="138"/>
      <point x="160" y="166" type="curve" smooth="yes"/>
      <point x="162" y="179" type="line" smooth="yes"/>
      <point x="166" y="203"/>
      <point x="183" y="230"/>
      <point x="229" y="237" type="curve" smooth="yes"/>
      <point x="327" y="252" type="line"/>
      <point x="315" y="163" type="line"/>
      <point x="297" y="142"/>
      <point x="266" y="115"/>
    </contour>
  </outline>
</glyph>
<glyph name="cdotaccent" format="1">
  <advance width="527"/>
  <unicode hex="010B"/>
  <outline>
    <contour>
      <point x="406" y="772" type="line"/>
      <point x="239" y="772" type="line"/>
      <point x="217" y="605" type="line"/>
      <point x="384" y="605" type="line"/>
    </contour>
    <contour>
      <point x="176" y="284" type="line" smooth="yes"/>
      <point x="187" y="370"/>
      <point x="224" y="407"/>
      <point x="277" y="407" type="curve" smooth="yes"/>
      <point x="331" y="407"/>
      <point x="348" y="371"/>
      <point x="342" y="324" type="curve"/>
      <point x="491" y="324" type="line"/>
      <point x="493" y="339" type="line" smooth="yes"/>
      <point x="510" y="468"/>
      <point x="438" y="543"/>
      <point x="282" y="543" type="curve" smooth="yes"/>
      <point x="118" y="543"/>
      <point x="39" y="440"/>
      <point x="18" y="284" type="curve" smooth="yes"/>
      <point x="13" y="246" type="line" smooth="yes"/>
      <point x="-7" y="96"/>
      <point x="65" y="-13"/>
      <point x="235" y="-13" type="curve" smooth="yes"/>
      <point x="381" y="-13"/>
      <point x="456" y="59"/>
      <point x="472" y="181" type="curve" smooth="yes"/>
      <point x="474" y="196" type="line"/>
      <point x="325" y="196" type="line"/>
      <point x="320" y="157"/>
      <point x="291" y="123"/>
      <point x="240" y="123" type="curve" smooth="yes"/>
      <point x="179" y="123"/>
      <point x="160" y="166"/>
      <point x="171" y="246" type="curve" smooth="yes"/>
    </contour>
  </outline>
</glyph>
<glyph name="Ccaron" format="1">
  <advance width="650"/>
  <unicode hex="010C"/>
  <outline>
    <contour>
      <point x="204" y="950" type="line"/>
      <point x="313" y="840" type="line"/>
      <point x="473" y="840" type="line"/>
      <point x="612" y="950" type="line"/>
      <point x="467" y="950" type="line"/>
      <point x="400" y="900" type="line"/>
      <point x="343" y="950" type="line"/>
    </contour>
    <contour>
      <point x="207" y="407" type="line" smooth="yes"/>
      <point x="226" y="563"/>
      <point x="273" y="653"/>
      <point x="362" y="653" type="curve" smooth="yes"/>
      <point x="372" y="653" type="line" smooth="yes"/>
      <point x="458" y="653"/>
      <point x="477" y="596"/>
      <point x="463" y="484" type="curve"/>
      <point x="626" y="484" type="line"/>
      <point x="630" y="516" type="line" smooth="yes"/>
      <point x="653" y="701"/>
      <point x="574" y="793"/>
      <point x="371" y="793" type="curve" smooth="yes"/>
      <point x="178" y="793"/>
      <point x="76" y="677"/>
      <point x="42" y="406" type="curve" smooth="yes"/>
      <point x="38" y="374" type="line" smooth="yes"/>
      <point x="4" y="102"/>
      <point x="102" y="-13"/>
      <point x="295" y="-13" type="curve" smooth="yes"/>
      <point x="466" y="-13"/>
      <point x="569" y="60"/>
      <point x="595" y="251" type="curve" smooth="yes"/>
      <point x="597" y="266" type="line"/>
      <point x="434" y="266" type="line"/>
      <point x="422" y="178"/>
      <point x="403" y="127"/>
      <point x="304" y="127" type="curve" smooth="yes"/>
      <point x="294" y="127" type="line" smooth="yes"/>
      <point x="204" y="127"/>
      <point x="184" y="217"/>
      <point x="203" y="374" type="curve" smooth="yes"/>
    </contour>
  </outline>
</glyph>
<glyph name="Dcaron" format="1">
  <advance width="663"/>
  <unicode hex="010E"/>
  <outline>
    <contour>
      <point x="185" y="950" type="line"/>
      <point x="294" y="840" type="line"/>
      <point x="454" y="840" type="line"/>
      <point x="593" y="950" type="line"/>
      <point x="448" y="950" type="line"/>
      <point x="381" y="900" type="line"/>
      <point x="324" y="950" type="line"/>
    </contour>
    <contour>
      <point x="628" y="406" type="line" smooth="yes"/>
      <point x="662" y="681"/>
      <point x="561" y="780"/>
      <point x="337" y="780" type="curve" smooth="yes"/>
      <point x="109" y="780" type="line"/>
      <point x="7" y="0" type="line"/>
      <point x="248" y="0" type="line" smooth="yes"/>
      <point x="473" y="0"/>
      <point x="589" y="95"/>
      <point x="624" y="374" type="curve" smooth="yes"/>
    </contour>
    <contour>
      <point x="187" y="140" type="line"/>
      <point x="253" y="640" type="line"/>
      <point x="329" y="640" type="line" smooth="yes"/>
      <point x="455" y="640"/>
      <point x="482" y="561"/>
      <point x="463" y="406" type="curve" smooth="yes"/>
      <point x="459" y="374" type="line" smooth="yes"/>
      <point x="438" y="208"/>
      <point x="385" y="140"/>
      <point x="250" y="140" type="curve" smooth="yes"/>
    </contour>
  </outline>
</glyph>
<glyph name="dcroat" format="1">
  <advance width="582"/>
  <unicode hex="0111"/>
  <outline>
    <contour>
      <point x="289" y="609" type="line"/>
      <point x="401" y="609" type="line"/>
      <point x="385" y="484" type="line"/>
      <point x="369" y="509"/>
      <point x="325" y="543"/>
      <point x="250" y="543" type="curve" smooth="yes"/>
      <point x="113" y="543"/>
      <point x="45" y="437"/>
      <point x="25" y="284" type="curve" smooth="yes"/>
      <point x="20" y="246" type="line" smooth="yes"/>
      <point x="-1" y="88"/>
      <point x="55" y="-13"/>
      <point x="190" y="-13" type="curve" smooth="yes"/>
      <point x="270" y="-13"/>
      <point x="318" y="21"/>
      <point x="348" y="70" type="curve"/>
      <point x="348" y="0" type="line"/>
      <point x="489" y="0" type="line"/>
      <point x="499" y="149" type="line"/>
      <point x="560" y="609" type="line"/>
      <point x="627" y="609" type="line"/>
      <point x="642" y="721" type="line"/>
      <point x="574" y="721" type="line"/>
      <point x="585" y="800" type="line"/>
      <point x="427" y="800" type="line"/>
      <point x="416" y="721" type="line"/>
      <point x="304" y="721" type="line"/>
    </contour>
    <contour>
      <point x="287" y="407" type="curve" smooth="yes"/>
      <point x="334" y="407"/>
      <point x="358" y="375"/>
      <point x="368" y="355" type="curve"/>
      <point x="344" y="172" type="line"/>
      <point x="329" y="153"/>
      <point x="303" y="123"/>
      <point x="252" y="123" type="curve" smooth="yes"/>
      <point x="193" y="123"/>
      <point x="167" y="165"/>
      <point x="178" y="246" type="curve" smooth="yes"/>
      <point x="183" y="284" type="line" smooth="yes"/>
      <point x="193" y="364"/>
      <point x="225" y="407"/>
    </contour>
  </outline>
</glyph>
<glyph name="Emacron" format="1">
  <advance width="573"/>
  <unicode hex="0112"/>
  <outline>
    <contour>
      <point x="209" y="847" type="line"/>
      <point x="507" y="847" type="line"/>
      <point x="520" y="943" type="line"/>
      <point x="222" y="943" type="line"/>
    </contour>
    <contour>
      <point x="109" y="780" type="line"/>
      <point x="7" y="0" type="line"/>
      <point x="484" y="0" type="line"/>
      <point x="502" y="140" type="line"/>
      <point x="187" y="140" type="line"/>
      <point x="212" y="328" type="line"/>
      <point x="477" y="328" type="line"/>
      <point x="495" y="468" type="line"/>
      <point x="230" y="468" type="line"/>
      <point x="253" y="640" type="line"/>
      <point x="568" y="640" type="line"/>
      <point x="586" y="780" type="line"/>
    </contour>
  </outline>
</glyph>
<glyph name="Ebreve" format="1">
  <advance width="573"/>
  <unicode hex="0114"/>
  <outline>
    <contour>
      <point x="360" y="825" type="curve" smooth="yes"/>
      <point x="507" y="825"/>
      <point x="546" y="882"/>
      <point x="555" y="950" type="curve"/>
      <point x="444" y="950" type="line"/>
      <point x="443" y="923"/>
      <point x="412" y="910"/>
      <point x="364" y="910" type="curve" smooth="yes"/>
      <point x="316" y="910"/>
      <point x="295" y="923"/>
      <point x="296" y="950" type="curve"/>
      <point x="189" y="950" type="line"/>
      <point x="182" y="882"/>
      <point x="215" y="825"/>
    </contour>
    <contour>
      <point x="109" y="780" type="line"/>
      <point x="7" y="0" type="line"/>
      <point x="484" y="0" type="line"/>
      <point x="502" y="140" type="line"/>
      <point x="187" y="140" type="line"/>
      <point x="212" y="328" type="line"/>
      <point x="477" y="328" type="line"/>
      <point x="495" y="468" type="line"/>
      <point x="230" y="468" type="line"/>
      <point x="253" y="640" type="line"/>
      <point x="568" y="640" type="line"/>
      <point x="586" y="780" type="line"/>
    </contour>
  </outline>
</glyph>
<glyph name="Eogonek" format="1">
  <advance width="573"/>
  <unicode hex="0118"/>
  <outline>
    <contour>
      <point x="109" y="780" type="line"/>
      <point x="7" y="0" type="line"/>
      <point x="346" y="0" type="line"/>
      <point x="312" y="-31"/>
      <point x="289" y="-72"/>
      <point x="289" y="-120" type="curve" smooth="yes"/>
      <point x="289" y="-185"/>
      <point x="337" y="-215"/>
      <point x="416" y="-215" type="curve" smooth="yes"/>
      <point x="453" y="-215"/>
      <point x="495" y="-203"/>
      <point x="517" y="-190" type="curve"/>
      <point x="494" y="-94" type="line"/>
      <point x="485" y="-99"/>
      <point x="470" y="-105"/>
      <point x="451" y="-105" type="curve" smooth="yes"/>
      <point x="426" y="-105"/>
      <point x="412" y="-94"/>
      <point x="412" y="-75" type="curve" smooth="yes"/>
      <point x="412" y="-35"/>
      <point x="451" y="-10"/>
      <point x="484" y="0" type="curve"/>
      <point x="502" y="140" type="line"/>
      <point x="187" y="140" type="line"/>
      <point x="212" y="328" type="line"/>
      <point x="477" y="328" type="line"/>
      <point x="495" y="468" type="line"/>
      <point x="230" y="468" type="line"/>
      <point x="253" y="640" type="line"/>
      <point x="568" y="640" type="line"/>
      <point x="586" y="780" type="line"/>
    </contour>
  </outline>
</glyph>
<glyph name="eogonek" format="1">
  <advance width="556"/>
  <unicode hex="0119"/>
  <outline>
    <contour>
      <point x="504" y="208" type="line"/>
      <point x="510" y="255" type="line" smooth="yes"/>
      <point x="531" y="423"/>
      <point x="472" y="543"/>
      <point x="287" y="543" type="curve" smooth="yes"/>
      <point x="119" y="543"/>
      <point x="37" y="432"/>
      <point x="18" y="284" type="curve" smooth="yes"/>
      <point x="13" y="246" type="line" smooth="yes"/>
      <point x="-5" y="110"/>
      <point x="52" y="6"/>
      <point x="205" y="-10" type="curve"/>
      <point x="177" y="-40"/>
      <point x="158" y="-77"/>
      <point x="158" y="-120" type="curve" smooth="yes"/>
      <point x="158" y="-185"/>
      <point x="206" y="-215"/>
      <point x="285" y="-215" type="curve" smooth="yes"/>
      <point x="322" y="-215"/>
      <point x="364" y="-203"/>
      <point x="386" y="-190" type="curve"/>
      <point x="363" y="-94" type="line"/>
      <point x="354" y="-99"/>
      <point x="339" y="-105"/>
      <point x="320" y="-105" type="curve" smooth="yes"/>
      <point x="295" y="-105"/>
      <point x="281" y="-94"/>
      <point x="281" y="-75" type="curve" smooth="yes"/>
      <point x="281" y="-35"/>
      <point x="320" y="-10"/>
      <point x="353" y="0" type="curve" smooth="yes"/>
      <point x="440" y="25"/>
      <point x="487" y="84"/>
      <point x="497" y="155" type="curve" smooth="yes"/>
      <point x="499" y="170" type="line"/>
      <point x="350" y="170" type="line"/>
      <point x="344" y="131"/>
      <point x="316" y="107"/>
      <point x="252" y="107" type="curve" smooth="yes"/>
      <point x="192" y="107"/>
      <point x="154" y="135"/>
      <point x="163" y="208" type="curve"/>
    </contour>
    <contour>
      <point x="287" y="423" type="curve" smooth="yes"/>
      <point x="343" y="423"/>
      <point x="366" y="388"/>
      <point x="361" y="322" type="curve"/>
      <point x="178" y="322" type="line"/>
      <point x="190" y="390"/>
      <point x="230" y="423"/>
    </contour>
  </outline>
</glyph>
<glyph name="Ecaron" format="1">
  <advance width="573"/>
  <unicode hex="011A"/>
  <outline>
    <contour>
      <point x="168" y="950" type="line"/>
      <point x="277" y="840" type="line"/>
      <point x="437" y="840" type="line"/>
      <point x="576" y="950" type="line"/>
      <point x="431" y="950" type="line"/>
      <point x="364" y="900" type="line"/>
      <point x="307" y="950" type="line"/>
    </contour>
    <contour>
      <point x="109" y="780" type="line"/>
      <point x="7" y="0" type="line"/>
      <point x="484" y="0" type="line"/>
      <point x="502" y="140" type="line"/>
      <point x="187" y="140" type="line"/>
      <point x="212" y="328" type="line"/>
      <point x="477" y="328" type="line"/>
      <point x="495" y="468" type="line"/>
      <point x="230" y="468" type="line"/>
      <point x="253" y="640" type="line"/>
      <point x="568" y="640" type="line"/>
      <point x="586" y="780" type="line"/>
    </contour>
  </outline>
</glyph>
<glyph name="Gbreve" format="1">
  <advance width="673"/>
  <unicode hex="011E"/>
  <outline>
    <contour>
      <point x="401" y="825" type="curve" smooth="yes"/>
      <point x="548" y="825"/>
      <point x="587" y="882"/>
      <point x="596" y="950" type="curve"/>
      <point x="485" y="950" type="line"/>
      <point x="484" y="923"/>
      <point x="453" y="910"/>
      <point x="405" y="910" type="curve" smooth="yes"/>
      <point x="357" y="910"/>
      <point x="336" y="923"/>
      <point x="337" y="950" type="curve"/>
      <point x="230" y="950" type="line"/>
      <point x="223" y="882"/>
      <point x="256" y="825"/>
    </contour>
    <contour>
      <point x="314" y="-13" type="curve" smooth="yes"/>
      <point x="441" y="-13"/>
      <point x="536" y="34"/>
      <point x="583" y="77" type="curve"/>
      <point x="628" y="422" type="line"/>
      <point x="363" y="422" type="line"/>
      <point x="345" y="282" type="line"/>
      <point x="448" y="282" type="line"/>
      <point x="431" y="154" type="line"/>
      <point x="409" y="138"/>
      <point x="374" y="127"/>
      <point x="325" y="127" type="curve" smooth="yes"/>
      <point x="315" y="127" type="line" smooth="yes"/>
      <point x="216" y="127"/>
      <point x="184" y="217"/>
      <point x="203" y="374" type="curve" smooth="yes"/>
      <point x="207" y="407" type="line" smooth="yes"/>
      <point x="226" y="563"/>
      <point x="278" y="653"/>
      <point x="367" y="653" type="curve" smooth="yes"/>
      <point x="377" y="653" type="line" smooth="yes"/>
      <point x="463" y="653"/>
      <point x="487" y="596"/>
      <point x="473" y="484" type="curve"/>
      <point x="636" y="484" type="line"/>
      <point x="640" y="516" type="line" smooth="yes"/>
      <point x="663" y="701"/>
      <point x="579" y="793"/>
      <point x="376" y="793" type="curve" smooth="yes"/>
      <point x="183" y="793"/>
      <point x="76" y="677"/>
      <point x="42" y="406" type="curve" smooth="yes"/>
      <point x="38" y="374" type="line" smooth="yes"/>
      <point x="4" y="102"/>
      <point x="121" y="-13"/>
    </contour>
  </outline>
</glyph>
<glyph name="gdotaccent" format="1">
  <advance width="574"/>
  <unicode hex="0121"/>
  <outline>
    <contour>
      <point x="416" y="772" type="line"/>
      <point x="249" y="772" type="line"/>
      <point x="227" y="605" type="line"/>
      <point x="394" y="605" type="line"/>
    </contour>
    <contour>
      <point x="315" y="7" type="line" smooth="yes"/>
      <point x="306" y="-59"/>
      <point x="274" y="-85"/>
      <point x="216" y="-85" type="curve" smooth="yes"/>
      <point x="145" y="-85"/>
      <point x="133" y="-53"/>
      <point x="140" y="0" type="curve"/>
      <point x="-9" y="0" type="line"/>
      <point x="-11" y="-15" type="line" smooth="yes"/>
      <point x="-26" y="-124"/>
      <point x="26" y="-213"/>
      <point x="218" y="-213" type="curve" smooth="yes"/>
      <point x="357" y="-213"/>
      <point x="453" y="-144"/>
      <point x="472" y="0" type="curve" smooth="yes"/>
      <point x="522" y="380" type="line"/>
      <point x="550" y="530" type="line"/>
      <point x="408" y="530" type="line"/>
      <point x="390" y="465" type="line"/>
      <point x="366" y="511"/>
      <point x="318" y="543"/>
      <point x="243" y="543" type="curve" smooth="yes"/>
      <point x="106" y="543"/>
      <point x="38" y="437"/>
      <point x="20" y="300" type="curve" smooth="yes"/>
      <point x="15" y="262" type="line" smooth="yes"/>
      <point x="-4" y="120"/>
      <point x="52" y="19"/>
      <point x="187" y="19" type="curve" smooth="yes"/>
      <point x="250" y="19"/>
      <point x="294" y="40"/>
      <point x="324" y="74" type="curve"/>
    </contour>
    <contour>
      <point x="341" y="204" type="line"/>
      <point x="326" y="185"/>
      <point x="300" y="155"/>
      <point x="248" y="155" type="curve" smooth="yes"/>
      <point x="190" y="155"/>
      <point x="164" y="197"/>
      <point x="173" y="262" type="curve" smooth="yes"/>
      <point x="178" y="300" type="line" smooth="yes"/>
      <point x="186" y="364"/>
      <point x="218" y="407"/>
      <point x="280" y="407" type="curve" smooth="yes"/>
      <point x="327" y="407"/>
      <point x="351" y="375"/>
      <point x="361" y="355" type="curve"/>
    </contour>
  </outline>
</glyph>
<glyph name="Gcommaaccent" format="1">
  <advance width="673"/>
  <unicode hex="0122"/>
  <outline>
    <contour>
      <point x="363" y="-44" type="line"/>
      <point x="221" y="-44" type="line"/>
      <point x="209" y="-136" type="line"/>
      <point x="288" y="-136" type="line"/>
      <point x="277" y="-165"/>
      <point x="237" y="-171"/>
      <point x="199" y="-171" type="curve"/>
      <point x="192" y="-226" type="line"/>
      <point x="291" y="-226"/>
      <point x="342" y="-194"/>
      <point x="355" y="-101" type="curve" smooth="yes"/>
    </contour>
    <contour>
      <point x="314" y="-13" type="curve" smooth="yes"/>
      <point x="441" y="-13"/>
      <point x="536" y="34"/>
      <point x="583" y="77" type="curve"/>
      <point x="628" y="422" type="line"/>
      <point x="363" y="422" type="line"/>
      <point x="345" y="282" type="line"/>
      <point x="448" y="282" type="line"/>
      <point x="431" y="154" type="line"/>
      <point x="409" y="138"/>
      <point x="374" y="127"/>
      <point x="325" y="127" type="curve" smooth="yes"/>
      <point x="315" y="127" type="line" smooth="yes"/>
      <point x="216" y="127"/>
      <point x="184" y="217"/>
      <point x="203" y="374" type="curve" smooth="yes"/>
      <point x="207" y="407" type="line" smooth="yes"/>
      <point x="226" y="563"/>
      <point x="278" y="653"/>
      <point x="367" y="653" type="curve" smooth="yes"/>
      <point x="377" y="653" type="line" smooth="yes"/>
      <point x="463" y="653"/>
      <point x="487" y="596"/>
      <point x="473" y="484" type="curve"/>
      <point x="636" y="484" type="line"/>
      <point x="640" y="516" type="line" smooth="yes"/>
      <point x="663" y="701"/>
      <point x="579" y="793"/>
      <point x="376" y="793" type="curve" smooth="yes"/>
      <point x="183" y="793"/>
      <point x="76" y="677"/>
      <point x="42" y="406" type="curve" smooth="yes"/>
      <point x="38" y="374" type="line" smooth="yes"/>
      <point x="4" y="102"/>
      <point x="121" y="-13"/>
    </contour>
  </outline>
</glyph>
<glyph name="hcircumflex" format="1">
  <advance width="579"/>
  <unicode hex="0125"/>
  <outline>
    <contour>
      <point x="5" y="0" type="line"/>
      <point x="163" y="0" type="line"/>
      <point x="210" y="358" type="line"/>
      <point x="227" y="379"/>
      <point x="265" y="407"/>
      <point x="310" y="407" type="curve" smooth="yes"/>
      <point x="358" y="407"/>
      <point x="375" y="381"/>
      <point x="369" y="335" type="curve" smooth="yes"/>
      <point x="325" y="0" type="line"/>
      <point x="483" y="0" type="line"/>
      <point x="530" y="358" type="line" smooth="yes"/>
      <point x="544" y="464"/>
      <point x="502" y="543"/>
      <point x="375" y="543" type="curve" smooth="yes"/>
      <point x="316" y="543"/>
      <point x="265" y="518"/>
      <point x="226" y="482" type="curve"/>
      <point x="268" y="800" type="line"/>
      <point x="110" y="800" type="line"/>
    </contour>
    <contour>
      <point x="397" y="840" type="line"/>
      <point x="288" y="950" type="line"/>
      <point x="128" y="950" type="line"/>
      <point x="-11" y="840" type="line"/>
      <point x="134" y="840" type="line"/>
      <point x="201" y="890" type="line"/>
      <point x="258" y="840" type="line"/>
    </contour>
  </outline>
</glyph>
<glyph name="Hbar" format="1">
  <advance width="663"/>
  <unicode hex="0126"/>
  <outline>
    <contour>
      <point x="498" y="780" type="line"/>
      <point x="485" y="685" type="line"/>
      <point x="258" y="685" type="line"/>
      <point x="271" y="780" type="line"/>
      <point x="109" y="780" type="line"/>
      <point x="7" y="0" type="line"/>
      <point x="169" y="0" type="line"/>
      <point x="212" y="328" type="line"/>
      <point x="439" y="328" type="line"/>
      <point x="396" y="0" type="line"/>
      <point x="558" y="0" type="line"/>
      <point x="660" y="780" type="line"/>
    </contour>
    <contour>
      <point x="242" y="564" type="line"/>
      <point x="469" y="564" type="line"/>
      <point x="457" y="468" type="line"/>
      <point x="230" y="468" type="line"/>
    </contour>
  </outline>
</glyph>
<glyph name="hbar" format="1">
  <advance width="579"/>
  <unicode hex="0127"/>
  <outline>
    <contour>
      <point x="17" y="609" type="line"/>
      <point x="85" y="609" type="line"/>
      <point x="5" y="0" type="line"/>
      <point x="163" y="0" type="line"/>
      <point x="210" y="358" type="line"/>
      <point x="227" y="379"/>
      <point x="265" y="407"/>
      <point x="310" y="407" type="curve" smooth="yes"/>
      <point x="358" y="407"/>
      <point x="375" y="381"/>
      <point x="369" y="335" type="curve" smooth="yes"/>
      <point x="325" y="0" type="line"/>
      <point x="483" y="0" type="line"/>
      <point x="530" y="358" type="line" smooth="yes"/>
      <point x="544" y="464"/>
      <point x="502" y="543"/>
      <point x="375" y="543" type="curve" smooth="yes"/>
      <point x="316" y="543"/>
      <point x="265" y="518"/>
      <point x="226" y="482" type="curve"/>
      <point x="243" y="609" type="line"/>
      <point x="355" y="609" type="line"/>
      <point x="370" y="721" type="line"/>
      <point x="257" y="721" type="line"/>
      <point x="268" y="800" type="line"/>
      <point x="110" y="800" type="line"/>
      <point x="99" y="721" type="line"/>
      <point x="32" y="721" type="line"/>
    </contour>
  </outline>
</glyph>
<glyph name="Itilde" format="1">
  <advance width="283"/>
  <unicode hex="0128"/>
  <outline>
    <contour>
      <point x="317" y="947" type="line"/>
      <point x="315" y="922"/>
      <point x="298" y="914"/>
      <point x="280" y="914" type="curve" smooth="yes"/>
      <point x="242" y="914"/>
      <point x="196" y="962"/>
      <point x="132" y="962" type="curve" smooth="yes"/>
      <point x="78" y="962"/>
      <point x="27" y="931"/>
      <point x="18" y="843" type="curve"/>
      <point x="103" y="843" type="line"/>
      <point x="105" y="868"/>
      <point x="122" y="876"/>
      <point x="140" y="876" type="curve" smooth="yes"/>
      <point x="178" y="876"/>
      <point x="224" y="828"/>
      <point x="288" y="828" type="curve" smooth="yes"/>
      <point x="342" y="828"/>
      <point x="393" y="859"/>
      <point x="402" y="947" type="curve"/>
    </contour>
    <contour>
      <point x="276" y="780" type="line"/>
      <point x="114" y="780" type="line"/>
      <point x="12" y="0" type="line"/>
      <point x="174" y="0" type="line"/>
    </contour>
  </outline>
</glyph>
<glyph name="itilde" format="1">
  <advance width="266"/>
  <unicode hex="0129"/>
  <outline>
    <contour>
      <point x="281" y="772" type="line"/>
      <point x="281" y="746"/>
      <point x="263" y="735"/>
      <point x="247" y="735" type="curve" smooth="yes"/>
      <point x="205" y="735"/>
      <point x="159" y="787"/>
      <point x="91" y="787" type="curve" smooth="yes"/>
      <point x="33" y="787"/>
      <point x="-26" y="739"/>
      <point x="-35" y="628" type="curve"/>
      <point x="70" y="628" type="line"/>
      <point x="70" y="654"/>
      <point x="88" y="665"/>
      <point x="104" y="665" type="curve" smooth="yes"/>
      <point x="146" y="665"/>
      <point x="192" y="613"/>
      <point x="260" y="613" type="curve" smooth="yes"/>
      <point x="318" y="613"/>
      <point x="377" y="661"/>
      <point x="386" y="772" type="curve"/>
    </contour>
    <contour>
      <point x="5" y="0" type="line"/>
      <point x="163" y="0" type="line"/>
      <point x="232" y="530" type="line"/>
      <point x="74" y="530" type="line"/>
    </contour>
  </outline>
</glyph>
<glyph name="Imacron" format="1">
  <advance width="283"/>
  <unicode hex="012A"/>
  <outline>
    <contour>
      <point x="55" y="847" type="line"/>
      <point x="353" y="847" type="line"/>
      <point x="366" y="943" type="line"/>
      <point x="68" y="943" type="line"/>
    </contour>
    <contour>
      <point x="276" y="780" type="line"/>
      <point x="114" y="780" type="line"/>
      <point x="12" y="0" type="line"/>
      <point x="174" y="0" type="line"/>
    </contour>
  </outline>
</glyph>
<glyph name="imacron" format="1">
  <advance width="266"/>
  <unicode hex="012B"/>
  <outline>
    <contour>
      <point x="15" y="619" type="line"/>
      <point x="315" y="619" type="line"/>
      <point x="333" y="757" type="line"/>
      <point x="33" y="757" type="line"/>
    </contour>
    <contour>
      <point x="5" y="0" type="line"/>
      <point x="163" y="0" type="line"/>
      <point x="232" y="530" type="line"/>
      <point x="74" y="530" type="line"/>
    </contour>
  </outline>
</glyph>
<glyph name="Ibreve" format="1">
  <advance width="283"/>
  <unicode hex="012C"/>
  <outline>
    <contour>
      <point x="206" y="825" type="curve" smooth="yes"/>
      <point x="353" y="825"/>
      <point x="392" y="882"/>
      <point x="401" y="950" type="curve"/>
      <point x="290" y="950" type="line"/>
      <point x="289" y="923"/>
      <point x="258" y="910"/>
      <point x="210" y="910" type="curve" smooth="yes"/>
      <point x="162" y="910"/>
      <point x="141" y="923"/>
      <point x="142" y="950" type="curve"/>
      <point x="35" y="950" type="line"/>
      <point x="28" y="882"/>
      <point x="61" y="825"/>
    </contour>
    <contour>
      <point x="276" y="780" type="line"/>
      <point x="114" y="780" type="line"/>
      <point x="12" y="0" type="line"/>
      <point x="174" y="0" type="line"/>
    </contour>
  </outline>
</glyph>
<glyph name="ibreve" format="1">
  <advance width="265"/>
  <unicode hex="012D"/>
  <outline>
    <contour>
      <point x="160" y="582" type="curve" smooth="yes"/>
      <point x="300" y="582"/>
      <point x="360" y="666"/>
      <point x="373" y="780" type="curve"/>
      <point x="258" y="780" type="line"/>
      <point x="250" y="721"/>
      <point x="217" y="702"/>
      <point x="174" y="702" type="curve" smooth="yes"/>
      <point x="131" y="702"/>
      <point x="102" y="721"/>
      <point x="110" y="780" type="curve"/>
      <point x="-1" y="780" type="line"/>
      <point x="-18" y="666"/>
      <point x="20" y="582"/>
    </contour>
    <contour>
      <point x="5" y="0" type="line"/>
      <point x="163" y="0" type="line"/>
      <point x="232" y="530" type="line"/>
      <point x="74" y="530" type="line"/>
    </contour>
  </outline>
</glyph>
